{"glyphs":{"0":{"ha":901,"x_min":71,"x_max":832,"o":"m 323 85 q 237 496 237 212 q 376 909 237 789 q 206 763 268 872 q 142 485 142 650 q 248 148 142 269 q 323 85 281 110 m 541 900 q 309 496 309 900 q 384 115 309 207 q 519 56 433 56 q 663 132 604 56 q 755 399 736 226 q 761 483 761 446 q 756 566 761 521 q 742 656 752 610 q 716 746 732 703 q 675 825 699 790 q 541 900 621 900 m 832 485 q 742 138 825 279 q 579 -4 682 36 q 451 -25 527 -25 q 303 11 375 -25 q 180 114 232 47 q 71 485 71 255 q 180 854 71 714 q 461 994 288 994 q 731 859 631 994 q 832 485 832 722 z "},"1":{"ha":603,"x_min":53,"x_max":547,"o":"m 357 869 q 258 768 338 848 l 258 68 q 282 69 270 69 q 326 69 307 69 q 357 68 345 69 l 357 869 m 505 -22 q 305 -1 400 -1 q 107 -22 210 -1 l 100 -22 q 75 -12 85 -22 q 64 12 64 -1 q 72 35 64 25 q 99 49 81 45 q 187 62 144 58 l 187 701 q 134 653 155 671 q 107 630 113 635 q 86 625 101 625 q 62 636 72 625 q 53 656 53 646 q 65 688 53 677 l 80 701 q 366 986 257 857 q 393 999 378 999 q 419 987 408 999 q 428 962 430 976 l 428 62 q 473 56 450 59 q 514 49 496 53 q 547 12 547 43 q 535 -14 547 -5 q 513 -22 523 -22 l 505 -22 z "},"2":{"ha":789,"x_min":50,"x_max":720,"o":"m 268 607 q 253 643 268 628 q 218 657 239 657 q 183 643 197 657 q 168 607 168 628 q 183 571 168 586 q 218 557 197 557 q 253 571 239 557 q 268 607 268 586 m 479 347 q 648 668 648 486 q 571 856 648 782 q 376 929 494 929 l 357 929 q 382 921 363 927 q 512 816 467 889 q 558 644 558 743 q 479 347 558 474 m 222 71 q 316 83 274 83 q 384 79 357 83 q 437 69 411 75 q 533 54 502 54 q 585 60 565 54 q 618 75 604 66 q 649 96 638 85 q 674 107 660 107 q 700 96 689 107 q 710 75 710 84 q 654 12 710 45 q 541 -18 602 -18 q 455 -8 504 -18 q 323 12 362 12 q 153 -28 237 12 q 135 -31 148 -31 q 113 -20 122 -31 q 103 -1 103 -9 q 103 11 103 -1 q 126 65 103 28 q 171 126 150 102 q 249 202 193 152 q 344 291 304 253 q 416 378 384 330 q 488 639 488 490 q 429 803 488 738 q 279 868 370 868 q 164 827 208 868 q 121 715 121 785 q 123 682 121 699 q 218 728 160 728 q 304 692 269 728 q 339 607 339 657 q 304 521 339 557 q 218 485 269 485 q 68 600 113 485 q 50 713 50 645 q 79 834 50 781 q 154 924 108 887 q 376 1000 249 1000 q 622 906 524 1000 q 720 668 720 812 q 511 288 720 452 q 397 204 452 240 q 298 137 342 168 q 222 71 255 106 z "},"3":{"ha":842,"x_min":52,"x_max":778,"o":"m 707 373 q 688 479 707 430 q 639 563 669 528 q 573 620 609 598 q 502 655 536 642 q 392 684 457 672 l 322 624 q 528 528 443 614 q 616 313 616 439 q 534 71 616 163 q 665 191 618 111 q 707 373 707 267 m 129 313 q 122 241 122 279 q 135 166 122 203 q 172 103 149 130 q 309 46 224 46 q 527 189 473 46 q 546 298 546 239 q 532 391 546 356 q 496 454 519 427 q 442 501 473 481 q 378 533 412 521 q 249 558 314 558 l 232 558 q 207 569 216 558 q 197 595 197 581 q 210 621 197 610 l 551 901 l 129 901 q 103 911 113 901 q 93 937 93 922 q 103 962 93 951 q 129 972 113 972 l 647 972 q 673 961 662 972 q 684 935 684 949 q 671 909 684 921 l 458 742 q 778 363 778 667 q 712 131 778 228 q 553 1 656 47 q 378 -39 462 -39 q 239 -19 294 -39 q 142 37 184 0 q 52 245 52 115 q 71 339 52 324 q 95 347 81 347 q 119 336 110 347 q 129 313 129 324 z "},"4":{"ha":843,"x_min":20,"x_max":794,"o":"m 549 78 l 597 77 l 597 901 q 498 861 551 878 l 498 77 l 549 78 m 252 818 q 118 380 252 587 q 393 368 255 368 l 428 368 l 428 889 q 436 911 428 904 q 449 921 444 919 q 455 923 454 922 q 470 927 456 924 q 505 939 484 930 q 591 979 566 961 q 636 1000 623 1000 q 659 989 649 1000 q 668 964 668 977 l 668 380 q 687 382 677 382 q 708 385 698 383 q 731 387 718 386 q 754 376 745 387 q 764 351 764 365 q 755 328 764 338 q 732 316 747 318 q 668 310 692 312 l 668 71 q 716 64 692 67 q 759 57 740 61 q 794 21 794 50 q 783 -5 794 5 q 764 -16 771 -16 q 726 -9 754 -16 q 549 7 648 7 q 400 -4 456 7 q 335 -16 345 -16 q 315 -4 326 -16 q 304 20 304 7 q 313 43 304 33 q 339 57 321 54 q 428 69 399 66 l 428 297 l 393 296 q 52 317 218 296 q 29 328 38 319 q 20 347 20 338 q 26 372 20 364 q 180 819 180 583 q 174 917 180 891 q 167 945 167 943 l 167 950 q 177 976 167 966 q 201 986 188 986 q 236 960 229 986 q 247 898 243 947 q 252 818 252 849 z "},"5":{"ha":827,"x_min":53,"x_max":772,"o":"m 509 62 q 700 346 700 120 q 636 556 700 482 q 457 640 572 630 q 597 446 571 572 q 607 345 607 401 q 598 243 607 288 q 576 165 590 199 q 509 62 555 112 m 191 657 q 424 713 296 713 q 679 609 583 713 q 772 346 772 509 q 663 71 772 171 q 376 -25 558 -25 q 151 52 243 -25 q 53 260 53 132 q 65 320 53 310 q 91 330 77 330 q 116 319 106 330 q 126 296 126 307 l 126 290 q 123 256 123 282 q 138 192 123 229 q 178 125 152 155 q 319 53 239 53 q 481 140 424 53 q 534 346 534 218 q 404 587 534 532 q 322 606 361 606 q 259 600 284 606 q 211 585 234 594 q 146 539 157 563 q 119 528 134 528 q 95 539 104 528 q 85 559 85 550 l 85 570 q 86 575 85 573 q 99 608 87 577 q 129 692 111 640 q 205 958 177 832 q 240 986 213 986 q 264 983 244 986 q 387 975 308 975 q 508 977 465 975 q 585 980 551 978 q 660 986 656 984 l 663 986 q 688 975 677 986 q 699 950 699 964 q 689 926 699 937 q 672 915 680 916 q 642 912 663 914 q 587 909 621 911 q 422 903 505 903 q 268 911 340 903 q 191 657 244 816 z "},"6":{"ha":829,"x_min":74,"x_max":764,"o":"m 475 155 q 487 174 475 155 q 510 241 498 193 q 522 348 522 290 q 508 451 522 405 q 468 526 494 496 q 332 585 418 585 q 199 505 248 585 q 157 335 157 433 q 205 167 157 253 q 285 85 237 111 q 345 72 308 72 q 416 95 381 72 q 475 155 452 117 m 672 212 q 692 346 692 267 q 670 481 692 425 q 615 572 649 537 q 457 637 551 637 l 441 637 q 427 636 434 637 q 583 432 551 587 q 593 343 593 387 q 458 40 593 134 q 672 212 618 59 m 668 622 q 689 599 668 622 q 737 507 711 576 q 764 357 764 438 q 750 223 764 277 q 713 127 736 169 q 657 56 690 86 q 589 6 625 26 q 439 -32 517 -32 q 309 -14 361 -32 q 216 38 256 5 q 149 116 176 71 q 106 216 122 162 q 74 424 74 319 q 82 595 74 528 q 109 724 91 663 q 157 834 127 784 q 229 922 186 885 q 453 1000 317 1000 q 671 897 579 1000 q 699 862 694 871 q 707 836 707 849 q 695 813 707 823 q 673 803 684 803 q 640 821 652 803 q 602 866 629 843 q 555 901 575 890 q 453 928 507 928 q 279 866 357 928 q 149 550 169 778 q 381 703 231 674 q 468 710 422 710 q 569 688 514 710 q 668 622 625 667 z "},"7":{"ha":754,"x_min":56,"x_max":743,"o":"m 640 916 q 534 908 587 910 q 307 258 362 646 q 290 83 293 161 q 313 85 302 85 q 336 85 325 85 l 361 85 q 385 83 373 85 q 546 726 402 397 q 640 916 589 823 m 114 966 l 187 964 q 493 976 309 964 q 704 991 676 989 l 707 991 q 733 980 722 990 q 743 960 743 970 q 740 941 743 947 q 725 917 736 935 q 696 865 714 899 q 654 785 677 832 q 605 680 630 739 q 555 553 580 621 q 510 408 530 484 q 456 78 465 237 q 504 71 479 75 q 547 64 528 68 q 581 28 581 57 q 568 1 581 10 q 548 -8 556 -8 q 513 -3 541 -8 q 361 14 435 14 q 134 -7 242 14 q 130 -8 132 -8 q 119 -8 128 -8 q 101 3 111 -8 q 92 27 92 14 q 121 62 92 58 q 218 78 147 68 q 244 322 218 186 q 294 545 269 457 q 447 903 352 746 q 189 892 262 892 l 151 893 l 151 886 q 139 721 151 792 q 125 643 127 650 q 114 628 123 636 q 89 621 104 621 q 64 633 73 621 q 56 653 56 645 q 56 663 56 661 q 61 684 57 665 q 69 735 64 704 q 81 859 81 821 l 81 909 q 81 931 81 919 q 90 955 81 944 q 114 966 99 966 z "},"8":{"ha":798,"x_min":68,"x_max":736,"o":"m 504 229 q 486 313 504 290 q 409 371 458 347 q 267 450 319 415 q 148 340 174 426 q 139 277 139 314 q 154 200 139 240 q 195 129 168 160 q 338 61 253 61 q 467 115 423 61 q 504 229 504 160 m 210 831 q 179 729 179 781 q 190 644 179 677 q 228 577 200 610 q 428 440 284 510 q 541 357 509 401 q 575 244 575 308 q 521 68 575 135 q 626 153 588 98 q 664 273 664 209 q 647 374 664 337 q 602 438 631 411 q 534 487 572 466 q 451 531 495 509 q 363 580 407 553 q 285 640 319 607 q 208 807 208 715 q 208 819 208 813 q 210 831 208 825 m 595 757 q 581 820 595 788 q 542 875 566 851 q 416 926 489 926 q 290 859 320 926 q 279 801 279 836 q 300 733 279 766 q 353 673 321 700 q 496 587 395 637 q 595 757 595 658 m 564 550 q 675 461 645 500 q 736 283 736 383 q 637 59 736 146 q 386 -29 537 -29 q 145 67 233 -29 q 68 283 68 153 q 153 473 68 413 q 201 503 178 490 q 109 715 109 590 q 209 925 109 846 q 416 997 300 997 q 591 924 517 997 q 665 745 665 852 q 564 550 665 637 z "},"9":{"ha":831,"x_min":65,"x_max":755,"o":"m 515 415 q 519 456 519 415 l 519 511 q 402 867 519 804 q 316 888 363 888 q 236 866 269 888 q 180 808 203 844 q 136 638 136 736 q 158 487 136 541 q 214 400 180 433 q 370 342 275 342 q 515 415 465 342 m 528 97 q 684 509 684 201 q 635 790 684 700 q 435 925 578 894 q 590 511 590 827 q 528 97 590 222 m 399 997 q 755 509 755 997 q 670 140 755 281 q 376 -20 573 -20 q 157 83 251 -20 q 135 110 143 98 q 126 123 127 121 q 122 143 122 130 q 133 166 122 156 q 160 176 143 176 q 187 160 177 176 q 320 61 247 86 q 372 54 340 54 q 428 74 404 54 q 467 128 452 94 q 490 210 481 163 q 509 310 498 256 q 384 271 452 271 q 260 290 315 271 q 161 351 205 309 q 65 623 65 446 q 157 885 65 777 q 399 997 253 997 z "}," ":{"ha":416,"x_min":0,"x_max":0,"o":""},"!":{"ha":392,"x_min":79,"x_max":317,"o":"m 197 40 q 221 50 211 40 q 231 73 231 60 q 221 96 231 86 q 197 106 211 106 q 175 96 184 106 q 165 73 165 86 q 175 50 165 60 q 197 40 184 40 m 197 471 q 244 871 244 748 q 231 904 244 890 q 198 918 217 918 q 164 904 178 918 q 150 863 150 890 q 154 789 150 835 q 165 690 158 743 q 197 471 175 611 m 301 73 q 293 33 301 52 q 271 0 285 14 q 197 -31 241 -31 q 123 0 154 -31 q 93 74 93 31 q 157 168 93 141 q 197 176 176 176 q 271 146 240 176 q 301 73 301 117 m 235 251 q 197 210 229 210 q 175 218 184 210 q 161 252 165 227 q 151 316 157 277 q 135 409 144 355 q 116 529 127 463 q 98 656 106 595 q 79 845 79 795 q 89 917 79 895 q 114 954 98 938 q 197 989 149 989 q 281 954 247 989 q 317 873 317 919 q 278 514 317 753 q 235 251 239 276 z "},"\"":{"ha":566,"x_min":54,"x_max":511,"o":"m 407 762 q 440 873 440 852 q 430 905 440 895 q 407 914 420 914 q 385 905 394 914 q 375 880 375 895 q 407 762 375 853 m 511 884 q 507 843 511 865 q 494 797 502 821 q 478 749 487 773 q 461 704 469 724 q 448 670 454 684 q 440 652 441 656 q 407 629 431 629 q 375 652 383 629 q 309 844 332 737 q 304 884 304 866 q 313 922 304 903 q 334 955 321 941 q 407 986 364 986 q 480 955 449 986 q 511 884 511 924 m 157 762 q 191 874 191 854 q 180 905 191 895 q 157 914 170 914 q 135 905 144 914 q 125 884 125 895 q 127 861 125 873 q 134 832 130 848 q 157 762 142 808 m 261 884 q 256 843 261 865 q 244 797 252 821 q 229 749 237 773 q 212 704 220 724 q 198 670 204 684 q 191 652 192 656 q 157 629 181 629 q 125 652 134 629 q 59 844 82 737 q 54 884 54 866 q 62 922 54 903 q 84 955 71 941 q 157 986 114 986 q 230 955 199 986 q 261 884 261 924 z "},"#":{"ha":807,"x_min":60,"x_max":750,"o":"m 353 829 l 334 829 l 204 164 l 225 164 l 353 829 m 345 410 l 387 411 l 401 411 q 415 410 408 411 l 449 583 l 427 582 l 378 583 l 345 410 m 589 829 l 570 829 l 439 164 l 461 164 l 589 829 m 629 664 l 713 675 q 723 675 714 675 q 741 664 731 675 q 750 639 750 652 q 742 615 750 625 q 713 603 733 606 q 615 591 677 598 l 579 401 q 677 390 620 398 q 708 350 708 386 q 696 328 706 336 q 673 319 686 319 l 668 319 q 566 330 618 326 l 525 121 q 513 101 523 109 q 490 93 503 93 l 396 93 q 371 103 380 93 q 361 127 361 114 l 361 135 l 401 339 l 330 339 l 289 121 q 277 101 287 109 q 254 93 267 93 l 161 93 q 135 103 146 93 q 125 127 125 114 l 125 135 l 163 326 q 100 319 130 323 l 96 319 q 70 330 80 319 q 60 354 60 340 q 68 378 60 368 q 94 391 77 388 q 178 400 122 395 l 215 593 q 138 603 159 600 q 102 639 102 608 l 102 644 q 114 666 104 657 q 138 675 124 675 l 229 664 l 269 872 q 281 893 271 885 q 304 901 292 901 l 396 901 q 422 890 412 901 q 432 870 432 878 q 431 859 432 861 l 392 654 l 463 654 l 505 872 q 541 901 511 901 l 632 901 q 658 890 648 901 q 668 865 668 878 l 629 664 z "},"$":{"ha":790,"x_min":66,"x_max":739,"o":"m 570 635 l 581 685 q 415 750 511 739 l 415 743 q 425 579 412 673 l 457 574 q 633 516 580 549 q 713 444 686 482 q 739 350 739 406 q 710 250 739 294 q 636 177 681 206 q 439 118 547 118 q 431 -54 435 -22 q 417 -94 427 -85 q 393 -103 407 -103 q 368 -93 378 -103 q 357 -66 357 -82 q 371 121 366 -41 q 138 222 233 139 l 138 199 q 139 178 138 189 l 139 175 q 130 151 139 161 q 106 140 121 140 q 80 150 92 140 q 68 172 69 159 q 66 199 66 186 l 66 228 q 74 355 66 340 q 85 378 75 369 q 110 387 95 387 q 135 376 125 387 q 144 353 144 366 l 144 349 l 140 317 q 371 195 233 214 l 371 196 q 361 351 374 262 q 96 494 165 380 q 72 592 72 535 q 95 692 72 648 q 157 764 119 735 q 347 825 231 821 q 358 1011 347 932 q 370 1033 359 1025 q 394 1042 380 1042 q 418 1031 408 1042 q 429 1006 429 1021 q 415 821 420 980 q 607 754 524 810 q 621 784 613 769 q 636 811 629 799 q 666 831 648 831 q 694 820 684 831 q 704 798 704 810 q 688 759 704 785 q 659 690 673 732 q 642 630 644 649 q 604 593 635 593 q 579 604 589 593 q 570 629 570 616 l 570 635 m 659 309 q 668 356 668 332 q 657 400 668 379 q 627 436 646 421 q 585 463 609 452 q 536 480 562 473 q 426 507 495 492 q 327 529 357 521 q 270 548 298 537 q 220 576 243 559 q 160 667 171 612 q 143 594 143 630 q 156 534 143 558 q 189 491 168 509 q 236 461 210 473 q 291 439 262 448 q 376 421 336 427 q 441 413 416 416 q 493 403 466 409 q 547 388 520 397 q 597 368 574 380 q 659 309 648 342 m 433 342 q 439 237 436 316 l 439 191 q 581 225 534 191 q 600 259 600 239 q 583 291 600 278 q 541 315 566 304 q 433 342 499 330 m 353 595 q 347 688 347 651 q 347 746 347 725 l 347 754 q 239 718 270 749 q 228 690 228 707 q 239 658 228 673 q 267 631 250 643 q 353 595 296 611 z "},"%":{"ha":1238,"x_min":49,"x_max":1190,"o":"m 182 518 q 155 672 155 593 q 196 876 155 804 q 119 690 119 812 q 182 518 119 583 m 494 689 q 487 756 494 720 q 465 826 480 793 q 366 904 429 904 q 239 787 270 904 q 228 704 228 747 q 231 621 228 661 q 247 548 235 581 q 351 471 277 471 q 462 549 422 471 q 494 689 494 613 m 566 689 q 549 578 566 632 q 500 484 532 525 q 314 395 429 395 q 123 477 197 395 q 49 690 49 560 q 123 905 49 822 q 314 987 197 987 q 503 894 433 987 q 566 689 566 810 m 872 1018 q 898 1007 888 1018 q 908 984 908 996 q 882 919 908 972 q 817 784 857 865 q 739 629 777 703 q 663 485 701 555 q 579 338 624 414 q 363 -14 509 219 q 334 -28 349 -28 q 309 -17 319 -28 q 298 7 298 -5 q 304 28 298 19 q 835 996 636 545 q 868 1018 846 1018 l 872 1018 m 807 104 q 781 284 781 176 q 821 463 781 393 q 764 380 783 430 q 745 279 745 330 q 807 104 745 168 m 1120 275 q 1113 343 1120 306 q 1090 412 1105 380 q 990 490 1053 490 q 863 374 895 490 q 852 290 852 333 q 856 207 852 246 q 872 134 859 168 q 977 57 902 57 q 1087 136 1047 57 q 1120 275 1120 199 m 1190 275 q 1174 165 1190 218 q 1124 71 1157 111 q 939 -20 1054 -20 q 747 64 822 -20 q 673 277 673 146 q 747 491 673 408 q 939 574 821 574 q 1127 480 1057 574 q 1190 275 1190 397 z "},"&":{"ha":1354,"x_min":62,"x_max":1326,"o":"m 335 46 q 225 289 225 127 q 321 534 225 449 q 183 452 233 517 q 134 287 134 386 q 186 127 134 189 q 335 46 239 66 m 1129 581 q 1080 586 1111 586 q 1016 577 1049 586 q 951 552 983 569 q 838 463 884 517 q 668 334 758 371 l 684 334 q 905 430 787 334 q 963 481 936 456 q 1017 529 991 507 q 1065 562 1042 551 q 1129 581 1102 578 m 677 755 q 663 791 677 777 q 628 806 649 806 q 592 791 607 806 q 578 755 578 777 q 592 720 578 734 q 628 705 607 705 q 663 720 649 705 q 677 755 677 734 m 1146 280 q 1149 284 1146 280 q 1157 296 1153 288 q 1161 321 1161 305 q 1146 351 1161 336 q 1111 366 1132 366 q 1076 351 1090 366 q 1061 316 1061 336 q 1076 280 1061 296 q 1105 265 1090 265 q 1130 269 1121 265 q 1146 280 1139 273 m 486 382 l 494 380 q 526 376 498 376 q 581 381 553 376 q 640 399 608 385 q 778 504 715 432 q 1001 648 875 615 q 1089 659 1042 659 q 1182 636 1137 659 q 1260 578 1227 614 q 1326 399 1326 504 q 1265 250 1326 307 q 1117 195 1206 195 q 1027 230 1064 195 q 989 315 989 265 q 1025 401 989 366 q 1111 437 1061 437 q 1196 402 1161 437 q 1232 317 1231 368 q 1255 399 1255 351 q 1191 502 1249 474 q 1150 511 1172 511 q 1111 504 1128 511 q 1076 486 1093 497 q 1027 444 1059 473 q 973 394 996 414 q 925 354 951 374 q 815 286 865 307 q 819 236 819 260 q 719 35 819 115 q 501 -40 625 -40 q 98 134 194 -40 q 62 272 62 197 q 76 394 62 347 q 117 481 90 442 q 267 593 170 560 q 187 737 187 646 q 279 890 187 836 q 481 936 358 936 q 731 826 673 936 q 749 761 749 791 q 739 708 749 730 q 713 670 730 686 q 628 635 678 635 q 543 670 578 635 q 507 763 507 705 q 559 856 507 821 q 484 864 527 864 q 401 858 441 864 q 330 837 361 852 q 260 736 260 804 q 300 656 260 688 q 481 610 361 610 l 484 610 q 507 600 497 610 q 518 575 517 590 l 518 574 q 509 550 518 560 q 492 539 500 540 q 469 535 484 538 q 433 524 454 532 q 388 499 412 515 q 343 454 363 482 q 296 289 296 391 q 369 111 296 176 q 549 52 438 52 q 689 100 633 52 q 749 236 749 151 q 746 267 749 250 q 681 261 721 261 q 602 269 640 261 q 534 286 564 277 q 473 311 488 302 q 450 344 450 326 q 462 372 450 363 q 486 382 473 382 z "},"'":{"ha":315,"x_min":54,"x_max":261,"o":"m 157 762 q 191 874 191 854 q 180 905 191 895 q 157 914 170 914 q 135 905 144 914 q 125 884 125 895 q 127 861 125 873 q 134 832 130 848 q 157 762 142 808 m 261 884 q 256 843 261 865 q 244 797 252 821 q 229 749 237 773 q 212 704 220 724 q 198 670 204 684 q 191 652 192 656 q 157 629 181 629 q 125 652 134 629 q 59 844 82 737 q 54 884 54 866 q 62 922 54 903 q 84 955 71 941 q 157 986 114 986 q 230 955 199 986 q 261 884 261 924 z "},"(":{"ha":558,"x_min":41,"x_max":568,"o":"m 335 -117 q 204 528 204 142 q 332 1133 204 915 q 329 1131 330 1132 q 326 1128 328 1129 q 113 530 113 925 q 184 127 113 309 q 332 -113 239 -10 l 335 -117 m 532 1324 q 558 1312 547 1324 q 568 1289 568 1301 q 547 1255 568 1265 q 505 1230 526 1245 q 288 745 334 1101 q 275 527 275 649 q 288 305 275 405 q 321 126 301 205 q 508 -241 382 -115 q 549 -276 530 -264 q 568 -307 568 -289 q 556 -334 568 -324 q 536 -345 545 -345 q 460 -311 513 -345 q 295 -179 351 -243 q 196 -52 238 -116 q 119 98 154 12 q 41 530 41 293 q 121 951 41 771 q 281 1183 180 1088 q 446 1294 355 1253 q 501 1316 479 1310 q 525 1323 523 1322 q 529 1324 527 1324 l 532 1324 z "},")":{"ha":558,"x_min":-9,"x_max":517,"o":"m 227 1133 q 354 528 354 909 q 224 -117 354 140 l 227 -113 q 426 307 374 48 q 446 530 446 406 q 232 1128 446 925 q 230 1131 231 1129 q 227 1133 229 1132 m 438 951 q 455 911 438 951 q 495 767 473 871 q 517 531 517 663 q 495 291 517 398 q 438 98 473 183 q 281 -161 380 -50 q 118 -300 208 -242 q 29 -345 47 -345 q 1 -333 11 -345 q -9 -305 -9 -322 q 7 -278 -9 -288 q 42 -250 14 -278 q 134 -131 101 -190 q 192 -12 168 -71 q 237 126 217 47 q 283 528 283 306 q 147 1128 283 920 q 14 1254 83 1223 q -9 1284 -9 1265 q 2 1314 -9 1304 q 20 1324 14 1324 l 30 1324 q 33 1323 31 1324 q 57 1316 35 1322 q 113 1294 79 1310 q 261 1198 204 1252 q 361 1088 319 1145 q 438 951 404 1031 z "},"*":{"ha":743,"x_min":54,"x_max":688,"o":"m 301 600 q 205 522 227 548 q 200 500 200 511 q 210 480 200 489 q 235 471 220 471 q 256 481 250 471 q 269 504 263 492 q 280 531 274 515 q 291 564 286 546 q 301 600 296 582 m 269 720 q 157 793 184 793 q 134 783 143 793 q 125 762 125 772 q 157 728 125 733 q 269 720 195 721 m 515 471 q 523 471 515 471 q 539 481 530 471 q 549 501 549 491 q 543 522 549 511 q 447 600 522 549 q 487 489 474 508 q 515 471 499 471 m 371 800 q 403 915 403 896 q 394 943 403 933 q 371 953 385 953 q 348 943 357 953 q 339 918 339 933 q 371 800 339 886 m 616 758 q 616 767 616 758 q 606 784 616 776 q 589 793 595 793 l 579 793 q 525 762 564 793 q 472 720 487 732 q 590 728 574 722 q 616 758 616 739 m 300 787 q 268 910 268 880 q 276 960 268 941 q 298 993 284 979 q 371 1023 328 1023 q 465 960 438 1023 q 473 924 473 941 q 471 893 473 908 q 464 860 468 878 q 441 786 456 829 q 535 852 512 844 q 585 864 563 864 q 626 856 607 864 q 659 833 645 847 q 688 766 688 802 q 670 703 688 730 q 555 652 642 660 q 501 648 533 650 q 600 562 577 596 q 619 509 619 537 q 611 462 619 481 q 589 430 602 444 q 525 400 557 400 q 432 443 463 400 q 375 596 400 488 q 320 448 338 473 q 232 400 286 400 q 159 432 190 400 q 129 503 129 463 q 145 559 129 536 q 248 648 172 597 q 124 664 158 652 q 73 703 91 675 q 54 756 54 730 q 63 802 54 783 q 86 834 72 821 q 147 864 117 864 q 196 857 178 864 q 300 787 229 846 z "},"+":{"ha":743,"x_min":47,"x_max":696,"o":"m 418 254 l 418 741 l 326 741 l 326 254 l 418 254 m 489 526 q 661 545 613 532 q 686 533 676 545 q 696 509 696 522 q 687 485 696 495 q 649 471 679 475 q 489 456 579 460 l 489 218 q 479 193 489 203 q 453 182 469 182 l 290 182 q 265 193 275 182 q 254 218 254 203 l 254 456 q 78 473 160 460 q 47 514 47 477 q 60 535 50 526 q 83 545 70 545 q 254 526 117 533 l 254 775 q 265 800 254 789 q 290 811 275 811 l 453 811 q 479 800 469 811 q 489 775 489 789 l 489 526 z "},",":{"ha":339,"x_min":64,"x_max":277,"o":"m 168 26 q 191 36 182 26 q 200 59 200 46 q 191 82 200 73 q 168 92 182 92 q 145 82 155 92 q 135 59 135 73 q 145 36 135 46 q 168 26 155 26 m 187 -43 q 163 -45 179 -45 q 127 -37 146 -45 q 94 -14 109 -28 q 64 60 64 16 q 94 133 64 103 q 160 163 125 163 q 216 152 195 163 q 250 122 237 141 q 277 42 277 85 q 269 -31 277 -1 q 244 -88 261 -61 q 134 -175 205 -147 q 116 -178 127 -178 q 95 -166 105 -178 q 85 -143 85 -155 q 112 -107 85 -117 q 187 -43 160 -89 z "},"-":{"ha":838,"x_min":94,"x_max":743,"o":"m 703 543 l 708 545 q 733 534 723 545 q 743 509 743 523 q 735 485 743 495 q 713 473 726 475 q 418 453 564 453 q 125 473 273 453 q 103 485 111 475 q 94 509 94 495 q 105 534 94 523 q 131 545 115 545 q 254 529 150 538 q 450 519 359 519 q 703 543 542 519 z "},".":{"ha":339,"x_min":65,"x_max":273,"o":"m 170 40 q 193 50 183 40 q 203 73 203 60 q 193 96 203 86 q 170 106 183 106 q 147 96 156 106 q 138 73 138 86 q 147 50 138 60 q 170 40 156 40 m 273 73 q 265 33 273 52 q 243 0 257 14 q 170 -31 214 -31 q 96 0 126 -31 q 65 74 65 31 q 129 168 65 141 q 170 176 148 176 q 243 146 212 176 q 273 73 273 117 z "},"/":{"ha":836,"x_min":35,"x_max":803,"o":"m 628 946 q 415 521 546 762 q 703 946 573 739 l 628 946 m 766 1018 q 792 1007 782 1018 q 803 984 803 996 q 798 962 803 972 q 98 -14 506 492 q 70 -28 85 -28 q 45 -17 55 -28 q 35 7 35 -5 q 40 28 35 19 q 571 996 371 542 q 604 1018 582 1018 l 766 1018 z "},":":{"ha":382,"x_min":86,"x_max":294,"o":"m 191 40 q 214 50 204 40 q 224 73 224 60 q 214 96 224 86 q 191 106 204 106 q 168 96 177 106 q 158 73 158 86 q 168 50 158 60 q 191 40 177 40 m 294 73 q 286 33 294 52 q 264 0 278 14 q 191 -31 235 -31 q 117 0 147 -31 q 86 74 86 31 q 150 168 86 141 q 191 176 169 176 q 264 146 233 176 q 294 73 294 117 m 191 415 q 214 425 204 415 q 224 448 224 435 q 214 471 224 461 q 191 481 204 481 q 168 471 177 481 q 158 448 158 461 q 168 425 158 435 q 191 415 177 415 m 294 458 q 264 375 294 405 q 191 345 234 345 q 117 374 148 345 q 86 449 86 404 q 117 521 86 492 q 191 551 148 551 q 264 521 234 551 q 294 458 294 491 z "},";":{"ha":387,"x_min":87,"x_max":300,"o":"m 192 26 q 215 36 205 26 q 224 59 224 46 q 215 82 224 73 q 192 92 205 92 q 168 82 178 92 q 158 59 158 73 q 168 36 158 46 q 192 26 178 26 m 211 -43 q 186 -45 203 -45 q 151 -37 170 -45 q 118 -14 132 -28 q 87 60 87 16 q 118 133 87 103 q 184 163 149 163 q 239 152 219 163 q 273 122 260 141 q 300 42 300 86 q 292 -31 300 -1 q 267 -88 284 -61 q 157 -175 229 -147 q 139 -178 150 -178 q 119 -166 129 -178 q 109 -143 109 -155 q 136 -107 109 -117 q 211 -43 184 -89 m 193 415 q 217 425 207 415 q 227 448 227 435 q 217 471 227 461 q 193 481 207 481 q 171 471 180 481 q 161 448 161 461 q 171 425 161 435 q 193 415 180 415 m 297 458 q 267 375 297 405 q 193 345 237 345 q 119 374 151 345 q 89 449 89 404 q 119 521 89 492 q 193 551 151 551 q 267 521 237 551 q 297 458 297 491 z "},"<":{"ha":562,"x_min":52,"x_max":476,"o":"m 228 572 q 147 497 175 519 q 228 432 184 469 l 228 572 m 476 154 q 476 147 476 154 q 466 130 476 140 q 439 121 455 121 q 412 135 422 121 q 398 152 412 135 q 360 197 384 170 q 303 260 336 225 q 232 332 270 296 q 68 464 141 418 q 52 490 52 477 q 65 522 52 513 q 397 883 214 632 q 414 907 412 903 q 439 920 421 920 q 466 908 456 920 q 476 884 476 896 q 472 866 476 871 q 455 842 469 861 q 419 793 441 823 q 300 648 355 711 l 300 366 q 421 235 376 290 q 470 176 467 180 q 476 154 476 168 z "},"=":{"ha":886,"x_min":119,"x_max":768,"o":"m 160 639 q 445 618 307 618 q 728 639 583 618 l 733 639 q 758 628 748 639 q 768 604 768 618 q 760 580 768 590 q 737 568 751 570 q 483 547 595 547 q 150 568 293 547 q 128 580 136 570 q 119 604 119 590 q 130 628 119 618 q 155 639 140 639 l 160 639 m 160 375 q 444 354 298 354 q 728 375 590 354 l 733 375 q 758 364 748 375 q 768 340 768 353 q 760 316 768 326 q 737 304 751 307 q 482 283 595 283 q 150 304 293 283 q 128 316 136 307 q 119 340 119 326 q 130 364 119 353 q 155 375 140 375 l 160 375 z "},">":{"ha":564,"x_min":86,"x_max":513,"o":"m 416 497 q 335 572 385 522 l 335 432 q 416 497 374 466 m 497 522 q 513 496 513 513 q 496 464 513 479 q 164 152 342 369 l 150 135 q 123 121 140 121 q 96 131 106 121 q 86 155 86 142 q 91 174 86 168 q 109 196 96 180 q 144 239 122 212 q 264 366 199 302 l 264 648 q 133 807 172 753 q 90 867 94 861 q 86 886 86 873 q 97 909 86 899 q 125 920 109 920 q 151 904 141 920 q 190 850 151 902 q 262 758 229 799 q 334 675 296 718 q 497 522 426 575 z "},"?":{"ha":771,"x_min":46,"x_max":724,"o":"m 332 40 q 355 50 345 40 q 364 73 364 60 q 355 96 364 86 q 332 106 345 106 q 308 96 318 106 q 298 73 298 86 q 308 50 298 60 q 332 40 318 40 m 513 504 q 653 724 653 589 q 552 894 653 832 q 481 925 520 913 q 564 715 564 849 q 513 504 564 585 m 436 73 q 428 33 436 52 q 405 0 419 14 q 332 -31 374 -31 q 258 0 289 -31 q 228 74 228 31 q 292 168 228 141 q 332 176 311 176 q 405 146 374 176 q 436 73 436 117 m 281 241 l 279 265 q 301 360 279 323 q 379 458 334 417 q 421 501 401 479 q 458 552 442 523 q 493 715 493 616 q 430 872 493 810 q 279 932 370 932 q 167 883 218 932 q 117 777 117 833 q 129 716 117 736 q 148 693 142 697 q 154 688 153 688 q 176 656 176 673 q 166 629 176 640 q 146 618 157 618 q 124 622 130 618 q 108 634 119 626 q 83 659 96 642 q 46 771 46 707 q 74 880 46 836 q 146 955 102 925 q 350 1014 235 1014 q 619 933 515 1014 q 724 724 724 852 q 511 422 724 533 q 453 393 481 406 q 406 368 426 379 q 374 342 387 356 q 351 264 351 317 l 351 245 q 342 221 351 232 q 318 210 333 211 q 293 219 304 210 q 281 241 282 228 z "},"@":{"ha":1059,"x_min":72,"x_max":1006,"o":"m 342 404 q 421 277 342 277 q 529 365 491 277 q 561 521 561 436 q 543 564 552 551 q 481 597 517 597 q 421 584 445 597 q 380 545 397 570 q 342 404 342 490 m 729 268 q 679 390 679 315 l 679 603 l 632 603 l 632 367 q 659 294 632 321 q 729 268 686 268 m 333 600 q 348 617 333 600 q 398 651 362 633 q 480 668 435 668 q 561 643 526 668 q 573 666 563 656 q 597 675 583 675 l 794 675 q 820 664 809 675 q 831 639 831 654 q 820 613 831 624 q 794 603 809 603 l 751 603 l 751 390 q 787 311 751 337 q 818 302 799 302 q 855 316 837 302 q 886 351 873 330 q 909 399 900 372 q 924 453 918 426 q 935 553 935 502 q 915 664 935 604 q 853 769 895 723 q 596 872 761 872 q 270 739 398 872 q 143 411 143 609 q 205 186 143 275 q 393 90 272 90 q 497 110 448 90 q 532 104 519 119 q 546 78 546 90 q 522 43 546 53 q 388 20 460 20 q 256 51 316 20 q 155 136 196 83 q 72 411 72 245 q 218 791 72 640 q 596 943 367 943 q 906 815 794 943 q 1006 543 1006 702 q 935 304 1006 403 q 732 196 858 196 q 597 256 646 196 q 571 301 581 276 q 421 205 511 205 q 305 266 345 205 q 269 395 269 320 q 287 518 269 469 q 333 600 304 567 z "},"A":{"ha":1140,"x_min":-32,"x_max":1178,"o":"m 278 357 q 465 343 399 343 q 679 357 566 343 q 479 770 604 585 q 278 357 354 557 m 838 75 l 895 77 l 916 77 q 936 75 926 77 q 572 918 816 587 l 519 836 q 745 386 659 645 q 838 75 824 138 m 357 -16 q 180 5 287 5 q 4 -16 74 5 q -22 -5 -12 -16 q -32 20 -32 6 q -3 56 -32 48 q 121 74 44 68 q 541 999 210 509 q 565 1014 551 1014 q 597 1002 588 1014 q 1010 72 880 642 q 1147 56 1079 66 q 1170 43 1161 54 q 1178 20 1178 33 q 1166 -5 1178 6 q 1147 -16 1154 -16 q 1106 -9 1138 -16 q 779 0 975 14 q 692 -9 721 -4 q 661 -15 663 -15 q 652 -16 660 -16 q 633 -4 644 -16 q 623 20 623 7 q 631 43 623 33 q 660 57 640 54 q 708 64 680 61 q 765 71 736 67 q 701 289 735 184 q 481 272 581 272 q 253 289 382 272 q 195 77 217 182 q 366 56 281 74 q 386 43 378 54 q 393 19 393 33 q 381 -5 393 5 q 357 -16 370 -16 z "},"B":{"ha":996,"x_min":66,"x_max":943,"o":"m 342 939 q 245 930 290 937 q 245 832 245 887 q 245 714 245 777 q 246 584 245 651 q 248 451 247 517 q 250 323 249 385 q 252 206 251 260 q 254 43 254 81 q 342 35 292 39 l 342 939 m 452 412 q 412 411 452 412 l 412 32 l 444 32 q 747 132 674 32 q 775 219 775 170 q 759 298 775 268 q 717 348 743 328 q 656 381 690 369 q 586 401 622 394 q 452 412 525 412 m 497 485 q 872 708 872 485 q 789 856 872 797 q 503 939 686 929 q 412 940 453 942 l 412 485 l 497 485 m 174 920 l 103 903 q 77 914 87 903 q 66 937 66 925 q 92 974 66 964 q 403 1011 224 1011 q 753 955 610 1011 q 918 819 870 909 q 943 713 943 772 q 925 609 943 654 q 873 529 906 564 q 699 441 807 460 q 837 298 804 404 q 847 220 847 265 q 832 135 847 174 q 790 67 817 96 q 724 19 762 39 q 641 -12 686 0 q 436 -39 555 -35 q 172 -14 287 -40 q 86 14 105 1 q 66 42 66 23 q 78 71 66 60 q 99 81 90 81 q 115 79 111 81 q 182 57 138 68 q 180 159 181 96 q 179 299 180 222 q 177 461 178 376 q 175 629 176 547 q 174 787 174 712 q 174 920 173 863 z "},"C":{"ha":1028,"x_min":69,"x_max":994,"o":"m 374 892 q 140 464 140 777 q 262 147 140 255 q 357 82 302 111 q 241 489 241 222 q 374 892 241 754 m 587 1011 q 888 879 777 1011 l 925 986 q 954 1011 934 1011 q 984 1000 973 1011 q 994 979 994 989 q 991 964 994 969 l 884 648 q 856 625 877 625 q 824 637 834 625 q 814 657 814 648 q 817 671 814 665 l 860 798 q 706 924 802 890 q 627 935 674 935 q 531 916 580 935 q 447 864 483 897 q 385 788 410 831 q 343 694 359 744 q 313 489 313 601 q 364 199 313 324 q 477 62 404 103 q 570 41 515 41 q 678 58 625 41 q 774 107 731 75 q 903 281 866 173 q 931 309 910 309 q 962 297 952 309 q 972 272 972 286 l 972 264 q 968 250 972 262 q 956 218 964 238 q 747 9 892 73 q 555 -28 661 -29 q 358 8 450 -27 q 202 109 266 44 q 69 464 69 241 q 239 892 69 751 q 587 1011 382 1011 z "},"D":{"ha":1048,"x_min":53,"x_max":981,"o":"m 264 50 q 359 43 323 45 l 359 916 q 264 904 315 912 l 264 50 m 892 359 q 909 504 909 417 q 873 674 909 590 q 772 814 836 758 q 431 917 640 929 l 431 43 q 768 162 629 37 q 892 359 858 243 m 193 892 l 87 865 q 62 877 72 865 q 53 901 53 888 q 77 935 53 928 q 107 944 79 935 q 180 962 134 952 q 422 987 301 987 q 645 956 543 987 q 821 861 747 924 q 981 482 981 726 q 897 200 981 321 q 682 28 821 90 q 387 -29 549 -29 q 89 16 223 -29 q 65 45 65 25 q 77 75 65 64 q 102 85 88 85 l 193 61 l 193 892 z "},"E":{"ha":916,"x_min":64,"x_max":865,"o":"m 353 895 q 256 892 305 892 l 256 68 q 304 69 279 69 q 353 71 329 69 l 353 895 m 443 71 q 770 61 625 71 l 794 243 q 807 265 797 256 q 831 273 817 273 q 856 262 846 273 q 865 239 865 250 l 865 233 l 836 18 q 824 -4 834 5 q 800 -12 814 -12 l 799 -12 q 441 0 616 0 q 103 -12 267 0 l 100 -12 q 74 -1 84 -11 q 64 23 64 8 q 73 47 64 37 q 101 59 83 57 q 141 61 119 60 q 184 64 163 62 l 184 890 q 141 892 163 892 l 98 892 q 74 903 84 893 q 64 928 64 913 q 75 953 64 943 q 105 963 85 964 q 149 962 125 962 l 197 962 q 766 1000 484 962 l 772 1000 q 795 991 786 1000 q 807 970 805 982 l 836 741 l 836 736 q 825 711 836 720 q 801 701 814 701 q 778 710 787 701 q 765 732 768 718 l 741 925 q 424 897 606 907 l 424 450 q 652 472 570 456 l 659 472 q 684 461 673 472 q 694 437 694 451 q 665 401 694 409 q 424 379 585 386 l 424 71 l 443 71 z "},"F":{"ha":907,"x_min":53,"x_max":882,"o":"m 261 78 q 357 81 309 81 l 367 904 l 271 904 l 261 78 m 103 981 q 395 975 193 975 q 843 1006 596 975 l 847 1006 q 872 995 863 1006 q 882 971 882 985 l 882 966 l 854 677 q 843 655 853 664 q 818 646 833 646 q 793 657 803 646 q 783 682 783 669 l 783 685 l 807 929 q 439 905 614 909 l 433 472 q 579 483 522 472 q 646 493 637 493 q 664 485 654 493 q 675 461 674 477 q 668 435 676 446 q 647 422 660 425 q 432 401 534 401 l 429 79 q 490 77 458 78 q 547 73 522 75 q 589 33 589 69 q 577 11 587 20 q 554 1 568 1 l 551 1 q 349 9 447 9 q 93 -12 250 9 l 89 -12 q 63 -2 73 -12 q 53 22 53 9 q 61 46 53 36 q 83 58 70 56 q 191 71 139 66 l 200 905 q 150 907 175 907 q 104 909 125 908 q 65 946 65 912 q 76 970 65 960 q 102 981 87 981 l 103 981 z "},"G":{"ha":1089,"x_min":69,"x_max":1061,"o":"m 349 77 q 235 489 235 220 q 366 886 235 746 q 140 464 140 768 q 256 142 140 252 q 349 77 296 106 m 587 1008 q 888 878 778 1008 l 925 985 q 955 1008 934 1008 q 985 997 975 1008 q 994 978 994 985 q 991 961 994 968 l 884 646 q 855 623 876 623 q 824 634 834 623 q 814 652 814 645 q 817 669 814 663 l 860 796 q 705 922 802 886 q 642 933 673 933 q 393 803 484 933 q 307 489 307 680 q 361 200 307 331 q 475 56 401 98 q 579 33 513 33 q 705 54 645 33 q 803 107 764 74 q 878 271 878 172 q 841 387 878 340 q 786 432 817 418 q 644 393 701 420 q 630 386 634 389 q 613 383 626 383 q 591 394 601 383 q 581 422 581 406 q 599 450 581 439 q 621 460 601 451 q 675 481 640 470 q 858 510 768 510 q 1032 496 949 510 q 1053 484 1044 494 q 1061 459 1061 474 q 1049 434 1061 444 q 1029 425 1037 425 q 1002 429 1021 425 q 890 439 972 435 q 950 269 950 370 q 822 34 950 117 q 561 -39 709 -39 q 200 100 331 -32 q 69 464 69 233 q 151 788 69 658 q 347 959 220 901 q 587 1008 456 1008 z "},"H":{"ha":1162,"x_min":54,"x_max":1141,"o":"m 372 909 q 323 909 372 909 q 273 911 299 909 l 258 64 l 349 64 l 372 909 m 1107 1000 q 1141 972 1134 1000 q 1114 929 1141 937 q 972 909 1043 915 q 935 126 935 568 l 935 60 q 1071 53 999 60 q 1103 14 1103 46 q 1091 -9 1101 -1 q 1067 -18 1080 -18 l 1064 -18 q 914 -11 979 -11 q 771 -18 847 -11 l 766 -18 q 741 -7 751 -18 q 730 17 730 3 q 740 41 730 31 q 768 53 749 51 q 864 60 803 56 l 864 126 q 868 404 864 275 q 646 395 770 395 q 429 404 521 395 l 421 61 q 528 53 460 58 q 550 41 541 51 q 559 16 559 31 q 548 -8 559 1 q 524 -18 536 -18 l 521 -18 q 93 -18 304 3 l 90 -18 q 64 -7 75 -18 q 54 17 54 3 q 63 41 54 31 q 92 53 73 51 q 137 57 111 55 q 187 61 162 59 l 203 917 q 85 929 144 921 q 63 941 71 931 q 54 966 54 951 q 66 991 54 981 q 90 1000 79 1000 l 94 1000 q 348 981 224 981 q 539 987 471 981 l 542 987 q 566 978 555 987 q 577 954 576 969 q 568 928 578 939 q 538 917 558 918 q 443 909 478 911 l 432 476 q 612 465 522 465 q 871 475 772 465 q 901 907 879 709 q 808 915 833 910 q 766 951 766 922 q 778 978 766 968 q 802 987 790 987 l 807 987 q 929 978 854 978 q 1099 1000 1004 978 l 1107 1000 z "},"I":{"ha":628,"x_min":54,"x_max":578,"o":"m 372 905 q 323 905 372 905 q 273 907 299 905 l 258 72 l 349 72 l 372 905 m 94 996 q 350 977 229 977 q 539 983 471 977 l 542 983 q 568 972 557 983 q 578 948 578 962 q 568 924 578 934 q 539 912 559 914 q 443 905 504 909 l 421 69 q 528 61 460 66 q 559 22 559 54 q 548 -1 558 7 q 524 -9 537 -9 l 521 -9 q 93 -9 304 12 l 90 -9 q 64 1 75 -9 q 54 25 54 12 q 63 49 54 39 q 92 61 73 59 q 137 65 111 63 q 187 69 162 67 l 203 913 q 85 925 144 917 q 63 937 71 927 q 54 962 54 947 q 66 986 54 977 q 90 996 79 996 l 94 996 z "},"J":{"ha":900,"x_min":28,"x_max":852,"o":"m 642 920 q 546 907 587 910 q 560 785 547 872 q 583 640 574 697 q 599 524 591 582 q 616 317 616 388 q 554 97 616 176 q 686 262 649 158 q 701 345 701 304 q 699 426 701 387 q 692 509 696 465 q 642 920 676 680 m 473 900 q 391 897 423 897 q 338 932 338 895 q 348 957 338 947 q 372 968 357 968 q 808 1028 597 971 q 813 1029 810 1029 l 818 1029 q 843 1019 833 1029 q 852 995 852 1008 q 825 959 852 967 q 711 932 778 945 q 774 361 774 509 q 650 83 774 199 q 363 -32 528 -32 q 132 54 232 -32 q 28 272 28 144 q 107 468 28 380 q 134 479 119 479 q 159 469 149 479 q 170 444 170 458 q 150 408 170 429 q 115 348 130 386 q 100 269 100 311 q 117 188 100 227 q 165 121 135 149 q 317 60 229 60 q 490 132 429 60 q 546 314 546 197 q 524 562 546 427 q 494 747 503 696 q 473 900 475 863 z "},"K":{"ha":1139,"x_min":49,"x_max":1161,"o":"m 351 905 q 302 904 328 904 l 254 904 l 278 72 l 367 72 l 351 905 m 610 574 q 550 518 572 536 q 812 65 739 323 l 899 78 q 690 491 841 312 q 610 574 659 527 m 87 982 q 277 975 155 975 q 532 994 399 975 l 536 994 q 562 984 552 994 q 572 960 572 973 q 564 936 572 946 q 533 922 555 926 q 424 911 496 918 l 431 511 q 589 649 532 589 q 779 914 712 777 l 684 914 q 658 924 669 914 q 647 949 647 934 q 658 975 647 964 q 684 985 669 985 l 987 985 q 1013 975 1002 985 q 1023 949 1023 964 q 1013 924 1023 934 q 987 914 1002 914 l 859 914 q 713 687 802 789 q 659 625 686 656 q 925 231 828 479 q 970 87 951 165 l 1121 110 l 1125 110 q 1151 99 1141 110 q 1161 75 1161 88 q 1153 51 1161 61 q 1131 39 1144 41 l 790 -9 l 786 -9 q 764 -2 774 -9 q 752 12 753 5 q 746 39 751 19 q 729 92 741 58 q 698 169 718 125 q 651 264 679 214 q 496 471 586 379 q 432 424 494 470 l 439 69 q 490 65 464 67 q 535 61 515 63 q 563 49 554 59 q 572 23 572 39 q 560 -1 572 8 q 536 -9 548 -9 l 532 -9 q 322 1 430 1 q 106 -9 214 1 l 102 -9 q 76 1 86 -9 q 66 25 66 12 q 76 49 66 39 q 105 61 85 59 q 153 65 126 63 q 205 69 180 67 l 183 904 q 81 911 134 907 q 58 922 67 912 q 49 947 49 932 q 60 972 49 962 q 85 982 72 982 l 87 982 z "},"L":{"ha":909,"x_min":53,"x_max":886,"o":"m 371 918 q 321 918 371 918 q 272 920 298 918 l 257 69 q 301 71 279 71 q 347 72 324 71 l 371 918 m 886 342 l 829 20 q 817 -2 827 6 q 794 -9 807 -9 l 790 -9 q 439 1 679 1 q 92 -9 197 1 l 89 -9 q 53 25 57 -9 q 62 49 53 39 q 88 61 71 59 q 130 64 104 63 q 186 68 155 66 l 201 925 q 83 937 143 929 q 61 949 70 939 q 54 975 53 960 q 65 999 55 990 q 89 1008 75 1008 l 93 1008 q 346 989 222 989 q 538 996 470 989 l 541 996 q 566 985 556 996 q 576 960 576 975 q 567 936 576 946 q 538 925 557 926 q 441 918 497 921 l 419 72 l 439 72 q 765 64 646 72 l 815 347 q 827 369 817 361 q 851 378 838 378 q 876 367 865 378 q 886 342 886 355 z "},"M":{"ha":1464,"x_min":21,"x_max":1454,"o":"m 332 886 q 317 818 321 854 q 309 753 313 781 l 636 113 q 656 172 646 138 l 681 244 l 332 886 m 1131 82 q 1235 89 1182 86 q 1143 814 1216 368 q 1131 890 1135 865 q 1019 884 1080 886 q 1131 82 1105 522 m 1283 978 l 1289 979 q 1315 968 1305 979 q 1325 943 1325 957 q 1317 920 1325 930 q 1296 908 1308 910 q 1203 896 1270 904 q 1216 816 1207 867 q 1234 699 1224 765 q 1255 555 1244 633 q 1276 398 1265 478 q 1305 92 1297 225 q 1373 92 1344 92 q 1418 91 1402 92 q 1444 80 1434 90 q 1454 55 1454 71 q 1443 30 1454 40 q 1417 20 1433 20 q 1383 21 1400 21 q 1348 21 1365 21 q 968 -12 1158 21 l 961 -12 q 936 -2 945 -12 q 926 22 926 9 q 934 45 926 35 q 962 58 942 55 q 1060 74 1006 67 q 962 811 1031 503 q 709 106 862 566 q 686 38 709 106 q 677 11 677 12 q 644 -12 671 -12 q 612 5 621 -12 l 283 648 q 224 83 231 250 q 365 56 347 78 q 372 31 372 46 q 360 7 372 16 q 338 -1 348 -1 l 330 -1 q 182 14 252 14 q 62 4 112 14 l 57 4 q 31 15 41 4 q 21 39 21 26 q 50 75 21 69 q 151 85 87 81 q 233 755 163 370 q 267 918 248 838 q 118 940 186 921 q 92 968 92 947 q 103 1000 92 989 q 122 1010 114 1010 l 132 1010 q 155 1004 134 1010 q 286 989 212 989 l 335 990 q 367 972 355 990 l 713 336 q 943 936 881 829 q 974 953 954 953 l 1283 978 z "},"N":{"ha":1140,"x_min":54,"x_max":1082,"o":"m 372 916 q 323 916 372 916 q 273 917 299 916 l 258 69 l 349 69 l 372 916 m 783 999 q 861 994 817 994 q 1038 1018 949 994 q 1051 1019 1040 1019 q 1072 1009 1062 1019 q 1082 986 1082 998 q 1058 951 1082 958 q 964 930 1006 937 q 996 562 996 736 q 960 18 996 307 q 926 -12 951 -12 q 892 9 901 -12 q 736 326 838 139 q 590 591 633 513 q 441 852 515 724 l 421 66 q 528 58 460 64 q 550 46 541 56 q 559 21 559 36 q 548 -3 559 7 q 524 -12 536 -12 l 521 -12 q 93 -12 304 9 l 90 -12 q 65 -2 75 -12 q 54 22 54 9 q 63 46 54 36 q 92 58 73 56 q 137 62 111 60 q 187 66 162 64 l 203 922 q 85 935 144 926 q 63 947 71 937 q 54 972 54 958 q 66 997 54 987 q 90 1006 79 1006 l 94 1006 q 375 986 245 986 l 425 986 q 452 976 445 986 q 473 939 458 965 q 512 872 488 913 q 567 777 536 831 q 632 661 597 722 q 704 532 667 599 q 776 400 741 466 q 904 154 861 243 q 925 522 925 366 q 893 925 925 726 q 876 924 884 924 l 859 924 q 755 937 766 924 q 743 964 743 950 q 754 989 743 979 q 779 999 766 999 l 783 999 z "},"O":{"ha":1108,"x_min":64,"x_max":1046,"o":"m 346 90 q 232 493 232 223 q 387 893 232 758 q 397 901 391 897 q 208 736 279 849 q 135 482 135 621 q 260 161 135 294 q 346 90 298 119 m 975 480 q 963 579 975 528 q 929 678 951 629 q 876 770 907 726 q 808 846 845 814 q 643 918 728 918 q 384 781 476 918 q 302 493 302 660 q 324 299 302 371 q 370 183 346 227 q 429 107 394 140 q 619 39 505 39 q 798 109 711 39 q 926 278 876 173 q 975 480 975 381 m 1046 480 q 1028 345 1046 411 q 978 220 1010 279 q 900 114 945 162 q 800 31 854 66 q 554 -41 686 -41 q 208 113 353 -41 q 81 343 117 209 q 64 482 64 410 q 131 746 64 624 q 307 935 195 863 q 554 1006 420 1006 q 808 929 692 1006 q 982 736 918 857 q 1046 480 1046 614 z "},"P":{"ha":989,"x_min":54,"x_max":953,"o":"m 372 925 q 273 918 315 922 l 258 69 l 349 69 l 372 925 m 428 353 q 533 342 470 342 q 661 360 596 342 q 774 416 726 379 q 882 635 882 495 q 672 895 882 829 q 490 925 595 920 l 443 925 l 428 353 m 521 -12 q 93 -12 304 9 l 90 -12 q 65 -2 75 -12 q 54 22 54 9 q 63 46 54 36 q 92 58 73 56 q 137 62 111 60 q 187 66 162 64 l 203 908 q 129 892 153 900 q 100 882 104 884 q 85 880 95 880 q 65 892 75 880 q 54 916 54 903 q 77 950 54 942 q 429 997 217 997 l 460 997 q 513 995 476 997 q 608 984 551 994 q 716 955 665 975 q 811 907 768 936 q 886 840 854 879 q 953 635 953 755 q 814 363 953 467 q 525 271 690 271 q 427 281 467 271 l 421 66 q 528 58 460 64 q 550 46 541 56 q 559 21 559 36 q 548 -3 559 7 q 524 -12 536 -12 l 521 -12 z "},"Q":{"ha":1109,"x_min":64,"x_max":1075,"o":"m 751 4 q 425 -23 590 -72 q 208 113 300 14 q 81 343 117 209 q 64 482 64 410 q 131 746 64 624 q 307 935 195 863 q 554 1006 420 1006 q 808 929 692 1006 q 982 736 918 857 q 1046 482 1046 614 q 909 123 1046 277 q 815 40 867 75 q 918 -103 847 -68 q 963 -115 943 -115 q 1013 -107 1000 -115 q 1063 -106 1042 -87 q 1075 -133 1075 -115 q 1057 -162 1075 -151 q 975 -187 1018 -187 q 898 -172 932 -187 q 836 -132 864 -157 q 751 4 782 -81 m 608 244 q 796 107 742 244 q 925 276 876 173 q 975 482 975 380 q 929 678 975 576 q 808 846 882 781 q 643 918 728 918 q 384 781 476 918 q 302 493 302 660 q 324 299 302 371 q 370 183 346 227 q 429 107 394 140 q 619 39 505 39 q 734 68 676 39 q 608 174 701 174 q 546 163 570 174 q 511 153 521 153 q 490 163 501 153 q 478 186 478 174 q 509 225 478 213 q 608 244 554 244 m 346 90 q 232 493 232 223 q 387 893 232 758 l 396 900 q 208 736 279 848 q 135 482 135 622 q 260 161 135 294 q 346 90 298 119 z "},"R":{"ha":1088,"x_min":53,"x_max":1031,"o":"m 258 72 q 347 75 292 75 l 371 921 q 272 914 314 918 l 258 72 m 768 60 q 707 351 707 145 l 707 376 q 708 397 707 388 q 615 383 640 385 q 612 328 612 364 q 619 246 612 292 q 643 161 625 201 q 768 60 682 72 m 429 463 q 532 453 475 453 q 631 458 589 453 q 715 473 674 463 q 793 502 756 484 q 857 547 829 520 q 917 694 917 606 q 790 882 917 828 q 632 919 713 913 q 515 925 551 925 l 466 925 q 441 924 453 925 l 429 463 m 960 241 l 958 262 q 969 288 958 278 q 994 297 981 297 q 1018 288 1008 297 q 1029 265 1028 279 l 1031 241 q 967 60 1031 130 q 796 -12 902 -12 l 794 -12 q 564 174 618 -7 q 542 335 542 245 l 543 380 q 428 390 491 380 l 418 39 q 407 13 418 22 q 382 4 397 4 q 93 -12 223 4 l 89 -12 q 63 -2 73 -12 q 53 22 53 9 q 61 46 53 36 q 89 59 70 56 q 135 64 109 62 q 186 68 161 66 l 201 904 l 98 884 q 83 880 94 880 q 63 891 73 880 q 53 916 53 902 q 78 950 53 943 q 494 996 214 996 q 723 971 652 987 q 840 934 795 955 q 918 881 886 913 q 987 694 987 813 q 930 522 987 597 q 781 419 875 450 q 778 364 778 388 q 779 314 778 340 q 782 258 779 288 q 790 195 785 227 q 806 137 796 163 q 867 78 828 78 q 940 141 914 78 q 960 241 960 188 z "},"S":{"ha":989,"x_min":79,"x_max":920,"o":"m 182 745 q 171 665 171 706 q 182 591 171 625 q 228 528 193 558 q 501 418 307 458 q 691 358 627 391 q 792 289 756 325 q 839 204 829 254 q 848 268 848 232 q 834 334 848 303 q 798 389 821 366 q 745 430 775 412 q 684 460 715 448 q 579 492 640 477 q 475 517 518 507 q 392 542 433 528 q 315 573 351 555 q 250 615 278 591 q 182 745 189 667 m 155 227 q 549 24 313 24 q 751 95 694 24 q 774 157 774 121 q 758 216 774 192 q 718 259 743 240 q 661 293 692 278 q 597 318 629 307 q 493 347 547 336 q 392 370 439 357 q 302 400 345 382 q 222 441 259 418 q 159 498 186 465 q 102 671 102 566 q 217 917 102 826 q 473 1000 323 1000 q 661 966 558 1000 q 798 888 760 932 q 842 990 813 930 q 871 1010 853 1010 q 899 999 889 1010 q 909 977 909 987 q 890 926 909 966 q 847 811 870 885 q 815 663 825 738 q 804 641 814 649 q 780 632 794 632 q 755 644 765 632 q 745 667 745 655 l 745 671 q 774 812 753 743 q 655 890 762 850 q 467 930 549 930 q 272 842 324 930 q 253 768 254 812 q 379 621 260 669 q 493 585 437 597 q 597 562 549 573 q 707 530 645 551 q 817 477 770 510 q 920 264 920 404 q 798 34 920 124 q 550 -47 688 -47 q 150 123 310 -47 l 150 107 q 153 22 150 64 l 153 20 q 143 -4 153 6 q 119 -15 134 -14 q 94 -6 104 -16 q 82 22 83 3 q 79 117 79 58 q 104 350 79 224 q 139 379 112 379 q 165 367 155 379 q 175 349 175 355 l 175 340 q 173 330 175 338 q 168 308 170 321 q 163 282 165 294 q 155 227 161 268 z "},"T":{"ha":914,"x_min":21,"x_max":896,"o":"m 510 900 q 412 901 510 900 l 397 65 q 420 66 409 66 q 459 66 442 66 q 488 65 476 66 l 510 900 m 121 990 q 490 971 262 971 q 802 978 718 971 l 804 978 q 827 969 817 978 q 838 955 837 961 q 841 937 839 948 q 846 908 843 926 q 855 866 850 890 q 866 817 860 842 q 895 717 882 753 l 896 705 q 885 680 896 691 q 861 669 873 669 q 827 694 836 669 q 775 904 791 797 q 581 900 698 900 l 558 62 q 686 46 675 58 q 697 18 697 33 q 686 -7 697 3 q 663 -17 675 -17 l 659 -17 q 443 -5 565 -5 q 232 -17 321 -5 l 228 -17 q 202 -5 213 -17 q 192 20 192 6 q 201 43 192 33 q 326 62 215 58 l 342 904 q 143 916 235 908 q 133 871 139 897 q 121 814 127 844 q 93 705 99 726 q 57 669 82 669 q 31 681 41 669 q 21 700 21 692 l 21 711 q 27 732 21 713 q 43 794 33 751 q 61 874 53 837 q 81 962 81 959 q 115 990 88 990 l 121 990 z "},"U":{"ha":1047,"x_min":50,"x_max":1013,"o":"m 239 895 q 210 519 210 720 q 286 140 210 257 q 428 35 339 60 q 313 387 323 159 q 310 509 310 449 q 336 895 310 704 l 239 895 m 772 160 q 815 296 801 218 q 829 514 829 374 q 799 904 829 654 l 685 895 l 681 895 q 656 906 666 895 q 646 930 646 917 q 655 954 646 944 q 677 966 664 964 l 975 990 l 978 990 q 1002 980 992 990 q 1013 955 1013 969 q 1003 931 1013 941 q 981 920 994 921 l 869 911 q 901 463 899 647 q 741 23 892 139 q 510 -46 651 -46 q 270 50 361 -46 q 138 522 138 190 q 167 895 138 724 l 86 895 q 60 905 71 895 q 50 930 50 916 q 60 956 50 945 q 86 966 71 966 l 511 966 q 536 956 526 966 q 547 930 547 945 q 536 905 547 916 q 511 895 526 895 l 408 895 q 380 505 380 717 q 587 36 380 36 q 772 160 708 36 z "},"V":{"ha":1146,"x_min":-33,"x_max":1177,"o":"m 572 46 l 624 127 q 461 415 538 245 q 316 850 399 555 q 306 889 309 874 q 278 888 292 888 q 235 888 252 888 q 205 889 217 888 q 572 46 326 376 m 822 979 q 985 958 938 958 q 1132 978 1048 958 l 1140 979 q 1166 968 1155 979 q 1177 944 1177 957 q 1149 908 1177 916 q 1023 889 1086 893 q 736 178 944 534 q 604 -35 673 70 q 575 -52 594 -48 q 546 -37 557 -52 q 132 892 263 323 q 64 899 98 895 q 7 906 31 902 q -33 943 -33 913 q -21 969 -33 960 q 3 979 -9 979 q 112 965 34 971 q 286 958 190 958 q 486 979 381 958 q 511 968 502 979 q 521 944 521 957 q 513 920 521 930 q 484 906 505 910 q 435 900 463 903 q 378 893 407 897 q 477 564 429 687 q 664 195 566 340 q 825 504 771 374 q 950 889 911 718 q 795 920 813 898 q 786 944 786 930 q 797 968 786 958 q 822 979 808 979 z "},"W":{"ha":1308,"x_min":-4,"x_max":1352,"o":"m 431 58 q 479 160 460 115 q 262 900 319 448 q 228 899 245 899 l 165 899 q 345 231 205 555 q 431 58 382 144 m 890 43 q 937 139 922 106 q 725 673 793 422 q 684 509 711 604 q 804 197 722 367 q 890 43 842 121 m 1010 985 q 1155 972 1078 972 q 1307 990 1232 972 l 1315 990 q 1341 980 1330 990 q 1352 956 1352 969 q 1343 933 1352 943 q 1312 918 1335 923 q 1192 903 1250 905 q 1075 302 1138 507 q 996 94 1036 177 q 938 -20 955 12 q 913 -57 921 -52 q 890 -62 905 -62 q 864 -47 875 -62 q 646 390 734 141 q 463 -32 561 144 q 433 -52 453 -52 q 401 -33 412 -52 q 126 693 212 275 q 93 901 104 801 q 37 906 59 904 q -4 943 -4 911 q 8 969 -2 960 q 32 978 18 978 l 35 978 q 219 970 112 970 q 449 990 327 970 l 454 990 q 480 980 470 990 q 490 956 490 969 q 482 932 490 942 q 452 918 473 922 q 335 904 379 909 q 460 376 364 632 q 515 244 484 309 q 682 869 663 593 q 693 892 684 883 q 715 902 702 901 q 753 873 745 903 q 974 225 808 567 q 1120 901 1058 441 q 997 914 1056 904 q 976 926 985 916 q 968 951 968 936 q 980 976 968 966 q 1003 985 991 985 l 1010 985 z "},"X":{"ha":1088,"x_min":-12,"x_max":1078,"o":"m 844 75 q 433 707 648 304 q 338 900 374 819 q 240 896 288 896 q 528 359 364 622 q 736 69 635 184 q 790 73 764 71 q 844 75 817 75 m 184 0 q 24 -14 78 0 q -2 -3 8 -14 q -12 21 -12 7 q -4 45 -12 35 q 28 59 5 55 q 154 71 77 68 q 194 110 166 83 q 260 176 222 137 q 439 375 354 275 q 161 897 255 690 q 118 900 140 899 q 77 902 96 901 q 50 914 59 904 q 40 938 40 924 q 52 963 40 953 q 77 974 63 974 l 79 974 q 257 966 157 966 q 510 991 358 966 l 515 991 q 541 981 531 991 q 551 957 551 970 q 543 933 551 943 q 514 920 535 923 q 467 913 494 917 q 412 905 440 909 q 599 543 509 702 q 827 905 739 734 q 737 917 773 909 q 694 934 701 924 q 686 959 686 944 q 698 983 686 974 q 721 991 710 991 l 729 991 q 877 975 800 975 q 1036 991 953 975 l 1043 991 q 1068 981 1059 991 q 1078 958 1078 970 q 1050 921 1078 928 q 904 904 968 907 q 636 475 805 697 q 940 75 758 269 q 1039 69 1018 71 q 1078 33 1078 64 q 1067 7 1078 18 q 1043 -3 1057 -3 l 1039 -3 q 847 4 975 4 q 578 -24 720 4 l 572 -24 q 547 -13 557 -24 q 536 11 536 -3 q 566 46 536 40 q 652 60 617 56 q 478 310 573 157 q 254 68 369 184 q 374 45 361 62 q 383 21 383 35 q 372 -3 383 7 q 347 -14 360 -14 q 184 0 293 0 z "},"Y":{"ha":1067,"x_min":-53,"x_max":1071,"o":"m 522 61 q 614 64 568 64 l 614 416 q 272 890 442 574 q 247 889 260 889 q 197 889 218 889 q 161 890 176 889 q 434 469 292 637 q 511 390 471 426 q 522 364 522 379 l 522 61 m 873 965 q 1029 978 948 965 l 1035 978 q 1060 967 1049 978 q 1071 942 1071 956 q 1062 919 1071 929 q 1040 907 1053 909 q 907 895 973 897 q 777 563 855 710 q 685 419 732 477 l 685 62 q 803 54 743 60 q 826 42 817 52 q 835 17 835 32 q 823 -8 835 1 q 799 -17 810 -17 l 794 -17 q 603 -7 717 -7 q 350 -35 489 -7 l 343 -35 q 318 -24 328 -35 q 307 0 307 -14 q 336 36 307 28 q 452 54 404 49 l 452 349 q 78 896 262 527 q -12 905 11 901 q -53 942 -53 911 q -41 969 -53 960 q -17 978 -28 978 l -12 978 q 221 960 103 960 q 449 978 339 960 l 453 978 q 479 967 469 978 q 489 943 489 956 q 480 919 489 929 q 452 906 472 909 q 351 895 408 899 q 550 591 439 731 q 646 485 595 534 q 781 743 713 574 q 833 896 808 811 q 720 904 748 899 q 675 942 675 911 q 687 968 675 958 q 710 978 699 978 l 715 978 q 873 965 800 965 z "},"Z":{"ha":930,"x_min":46,"x_max":865,"o":"m 269 66 l 753 913 q 699 910 726 911 q 644 908 672 909 l 147 60 q 269 66 208 64 m 353 71 q 528 74 415 74 q 770 69 642 74 q 794 334 772 222 q 807 354 797 346 q 830 363 817 363 q 854 351 844 363 q 865 331 865 340 q 859 289 865 322 q 840 50 840 193 l 840 33 q 830 8 840 18 q 806 -3 819 -3 l 803 -3 q 85 -17 475 15 l 82 -17 q 57 -6 67 -17 q 46 14 46 5 q 52 36 46 25 l 559 905 l 475 905 q 189 914 319 905 q 143 685 177 810 q 114 660 134 660 q 82 671 93 660 q 72 694 72 682 l 74 705 q 121 956 109 825 q 133 978 123 969 q 157 987 143 987 l 160 987 q 476 977 315 977 q 815 987 637 977 l 817 987 q 842 976 832 986 q 852 957 852 966 q 847 933 852 940 l 353 71 z "},"[":{"ha":517,"x_min":107,"x_max":504,"o":"m 178 -258 q 272 -252 225 -252 l 272 1254 q 178 1260 189 1259 l 178 -258 m 463 -338 q 314 -322 370 -322 q 183 -330 220 -322 q 137 -338 147 -338 q 117 -327 127 -338 q 107 -301 107 -316 l 107 1300 q 118 1325 107 1315 q 138 1336 130 1336 q 164 1333 146 1336 q 277 1325 220 1325 q 411 1331 356 1325 q 474 1336 465 1336 q 494 1325 484 1336 q 504 1300 504 1314 q 495 1277 504 1286 q 472 1265 486 1267 q 345 1255 404 1257 l 345 -253 q 473 -267 398 -256 q 495 -279 487 -269 q 504 -304 504 -289 q 492 -328 504 -319 q 468 -338 479 -338 l 463 -338 z "},"\\":{"ha":836,"x_min":33,"x_max":802,"o":"m 419 521 q 208 946 286 773 l 134 946 q 419 521 246 766 m 796 28 q 802 6 802 19 q 790 -18 802 -7 q 764 -28 779 -28 q 737 -14 749 -28 q 39 962 333 488 q 33 985 33 972 q 44 1007 33 997 q 68 1018 54 1018 l 232 1018 q 264 996 256 1018 q 796 28 465 542 z "},"]":{"ha":517,"x_min":12,"x_max":410,"o":"m 243 -252 q 339 -258 292 -252 l 339 1260 q 243 1254 323 1258 l 243 -252 m 410 -301 q 399 -327 410 -317 q 378 -338 389 -338 q 333 -330 368 -338 q 222 -322 297 -322 q 54 -338 146 -322 l 49 -338 q 23 -327 33 -338 q 12 -302 12 -316 q 21 -279 12 -289 q 51 -266 29 -269 q 172 -253 119 -256 l 172 1255 q 45 1265 111 1257 q 22 1277 31 1267 q 12 1302 12 1286 q 24 1326 12 1317 q 43 1336 36 1336 q 74 1333 50 1336 q 203 1325 145 1325 q 328 1331 286 1325 q 380 1336 371 1336 q 399 1324 389 1336 q 410 1300 410 1313 l 410 -301 z "},"^":{"ha":591,"x_min":0,"x_max":591,"o":"m 494 501 l 275 889 l 227 786 l 385 501 l 494 501 m 587 484 q 591 463 591 475 q 580 441 591 451 q 555 431 568 431 l 364 431 q 332 449 343 431 l 189 707 l 66 452 q 39 431 58 431 q 9 442 19 431 q 0 461 0 453 q 3 482 0 476 l 240 981 q 271 1002 249 1002 q 304 983 293 1002 l 587 484 z "},"_":{"ha":835,"x_min":92,"x_max":741,"o":"m 700 -132 l 705 -131 q 730 -141 720 -131 q 741 -166 741 -152 q 732 -190 741 -180 q 710 -201 724 -200 q 449 -222 556 -222 q 122 -201 276 -222 q 100 -190 109 -200 q 92 -166 92 -180 q 102 -141 92 -152 q 127 -131 112 -131 q 237 -145 151 -138 q 439 -155 354 -155 q 700 -132 524 -155 z "},"`":{"ha":431,"x_min":0,"x_max":431,"o":"m 268 972 l 201 1097 l 129 1097 l 268 972 m 12 1105 q 0 1131 0 1116 q 10 1157 0 1147 q 36 1168 20 1168 l 222 1168 q 254 1150 243 1168 l 427 828 q 431 809 431 821 q 420 787 431 798 q 396 777 410 777 q 371 785 381 777 l 12 1105 z "},"a":{"ha":850,"x_min":61,"x_max":875,"o":"m 515 237 q 513 286 513 260 l 488 286 q 269 245 376 286 q 132 98 132 194 q 164 43 132 63 q 233 28 191 28 q 319 46 276 28 q 399 95 362 65 q 515 237 464 149 m 679 69 q 681 151 681 90 q 679 267 681 212 q 668 374 676 322 q 644 471 660 425 q 600 549 627 516 q 428 623 538 623 q 425 622 426 623 q 421 621 423 621 l 424 621 q 566 425 533 562 q 586 282 584 349 q 587 176 587 214 q 582 53 587 115 q 679 69 631 63 m 793 77 l 842 75 q 866 64 857 74 q 875 39 875 54 q 865 14 875 24 q 840 3 855 3 l 838 3 q 814 4 826 4 l 790 4 q 550 -29 666 4 l 541 -31 q 515 -19 525 -31 q 505 5 505 -7 l 505 11 q 509 38 505 12 q 515 111 512 64 q 229 -43 378 -43 q 113 -5 161 -43 q 61 92 61 35 q 83 188 61 149 q 141 255 105 227 q 223 303 177 284 q 316 335 269 323 q 488 357 404 357 l 504 357 q 449 507 504 443 q 307 575 391 575 q 191 511 245 575 q 138 382 138 450 q 126 359 138 368 q 101 350 115 350 q 76 361 87 350 q 65 395 65 372 q 77 454 65 418 q 110 524 88 490 q 164 589 132 558 q 236 643 195 619 q 413 693 323 693 q 556 669 503 693 q 647 605 610 646 q 704 511 683 564 q 736 397 725 457 q 753 158 753 304 l 751 75 l 793 77 z "},"b":{"ha":836,"x_min":-69,"x_max":779,"o":"m 161 892 l 158 500 q 161 267 158 327 q 181 164 164 207 q 228 90 198 121 q 387 20 291 22 q 262 289 267 93 q 260 472 260 366 q 260 691 260 578 q 261 907 261 804 q 161 892 219 897 m 708 363 q 699 464 708 417 q 667 545 689 510 q 526 619 622 619 q 388 550 450 619 q 330 450 336 494 q 343 207 330 259 q 376 125 356 155 q 501 60 420 60 q 659 157 603 60 q 708 363 708 242 m 90 262 q 87 559 87 337 q 90 889 87 781 q -1 894 34 889 q -45 900 -37 899 q -61 912 -53 902 q -69 933 -69 922 q -65 950 -69 943 q -56 962 -62 957 q -39 971 -45 971 l -31 971 q -28 970 -29 971 q -18 968 -27 970 q 8 966 -8 967 q 94 961 50 961 q 288 986 202 961 q 303 989 293 989 q 323 978 313 989 q 334 953 334 966 l 334 951 q 333 921 334 951 q 332 843 332 892 q 331 729 332 793 q 330 595 330 665 q 466 684 378 663 q 543 690 494 690 q 640 665 591 690 q 719 595 688 640 q 779 364 779 509 q 681 70 779 185 q 403 -52 577 -52 q 184 35 273 -52 q 90 262 95 121 z "},"c":{"ha":798,"x_min":54,"x_max":755,"o":"m 317 49 q 227 314 227 143 q 262 519 227 421 q 340 643 296 614 q 125 322 125 590 q 235 87 125 164 q 317 49 271 62 m 713 450 q 700 428 711 437 q 676 419 690 419 q 653 429 663 419 q 642 460 643 438 q 629 514 642 482 q 596 572 617 546 q 490 633 547 633 q 372 575 420 633 q 301 375 315 505 q 297 303 297 340 q 308 218 297 265 q 340 133 318 170 q 476 47 389 47 q 595 103 541 47 q 661 216 645 154 q 696 245 669 245 q 721 234 711 245 q 732 214 732 223 q 729 193 732 205 q 714 154 726 180 q 684 101 703 127 q 639 50 665 75 q 578 6 612 25 q 419 -36 503 -36 q 269 -10 334 -36 q 155 64 203 16 q 54 322 54 163 q 146 608 54 498 q 410 722 243 722 q 553 691 487 722 q 663 599 620 661 l 685 737 q 697 758 687 750 q 722 766 707 766 q 746 755 736 766 q 755 732 755 743 l 755 726 l 713 450 z "},"d":{"ha":939,"x_min":57,"x_max":926,"o":"m 567 511 q 490 602 548 568 q 383 631 439 631 q 292 616 328 631 q 229 577 256 602 q 182 519 201 552 q 151 450 163 486 q 128 317 127 381 q 141 207 128 253 q 180 126 155 161 q 332 47 238 47 q 475 123 412 47 q 549 269 522 180 q 567 368 571 342 l 567 511 m 639 58 q 737 72 686 68 l 737 911 q 644 905 703 905 l 639 905 l 639 58 m 527 982 q 539 981 527 982 q 582 978 551 980 q 666 977 613 977 q 765 987 719 977 l 774 987 q 799 977 789 987 q 808 953 808 966 l 808 77 l 822 77 q 889 75 869 77 q 917 62 908 73 q 926 37 926 52 q 915 13 926 22 q 890 3 903 3 l 888 3 q 816 5 854 5 q 741 1 779 5 q 674 -8 703 -3 q 630 -17 646 -13 q 612 -22 613 -21 q 608 -22 610 -22 l 603 -22 q 577 -11 587 -22 q 567 14 567 0 l 567 129 q 408 -12 517 24 q 320 -24 372 -24 q 218 3 269 -24 q 132 73 167 29 q 57 301 58 164 q 136 577 57 463 q 374 701 220 701 q 567 635 489 701 l 567 908 q 464 917 567 908 q 441 929 450 919 q 432 954 432 939 q 443 978 432 968 q 468 987 454 987 l 472 987 q 488 986 473 987 q 527 982 503 984 z "},"e":{"ha":778,"x_min":56,"x_max":729,"o":"m 304 607 q 126 336 126 543 q 216 119 126 207 q 279 74 243 92 q 221 311 221 161 q 237 470 221 418 q 304 607 261 553 m 293 340 q 467 317 369 317 q 659 358 566 317 l 659 370 q 553 596 659 534 q 465 625 517 618 q 293 340 300 606 m 729 371 l 728 332 q 549 252 721 275 q 432 244 494 244 q 294 265 371 244 q 397 57 309 111 q 461 37 430 37 q 515 42 493 37 q 557 54 536 46 q 624 102 605 74 q 651 115 635 115 q 677 104 666 115 q 688 79 688 93 q 679 57 688 65 q 570 -15 650 12 q 288 -7 423 -63 q 85 190 145 52 q 56 340 56 258 q 81 490 56 422 q 155 604 107 557 q 422 699 252 699 q 729 371 729 686 z "},"f":{"ha":603,"x_min":29,"x_max":758,"o":"m 432 962 q 294 864 342 941 q 252 700 252 797 l 252 89 q 277 90 264 90 q 318 90 300 90 q 347 89 336 90 l 347 679 q 432 962 347 878 m 524 -3 q 303 20 412 20 q 82 -3 194 20 q 56 8 66 -3 q 46 33 46 20 q 75 68 46 64 q 180 83 132 80 l 180 604 q 86 606 123 604 q 39 618 49 608 q 29 643 29 629 q 40 668 29 658 q 65 679 51 679 l 66 679 l 180 675 l 180 700 q 263 944 180 852 q 492 1039 348 1039 q 690 961 613 1039 q 758 790 761 888 l 758 789 q 748 764 758 774 q 722 754 737 754 q 697 764 707 754 q 686 795 688 774 q 676 844 684 816 q 652 894 667 871 q 561 945 616 945 q 428 787 456 945 q 419 679 419 738 l 419 675 l 533 679 l 534 679 q 559 669 549 679 q 570 644 570 659 q 561 618 571 629 q 514 606 551 608 q 419 604 477 604 l 419 85 q 512 72 481 77 q 551 56 543 66 q 558 31 558 46 q 547 6 558 16 q 524 -3 535 -3 z "},"g":{"ha":918,"x_min":57,"x_max":892,"o":"m 561 319 q 568 387 568 354 l 568 454 q 567 519 568 489 q 469 618 538 587 q 375 635 435 634 q 267 610 315 636 q 187 539 218 584 q 127 309 127 454 q 180 132 129 202 q 332 53 238 53 q 457 114 399 53 q 561 319 534 194 m 635 615 l 640 335 q 641 184 640 261 q 635 33 641 108 q 572 -240 623 -136 q 724 60 709 -157 q 734 469 734 240 l 734 614 l 724 614 l 635 615 m 599 689 l 725 685 q 831 689 811 685 q 853 693 851 693 l 856 693 q 881 682 870 693 q 892 657 892 671 q 883 634 892 644 q 863 623 875 625 q 806 615 841 618 l 807 469 q 794 56 807 236 q 681 -235 783 -117 q 411 -359 572 -359 q 220 -288 297 -359 q 143 -111 143 -218 l 143 -110 q 153 -84 143 -95 q 179 -74 163 -74 q 204 -84 194 -74 q 214 -123 214 -95 q 230 -185 214 -152 q 274 -241 246 -218 q 410 -289 330 -289 q 549 -58 517 -289 q 566 132 561 22 q 407 -7 515 28 q 320 -18 372 -18 q 218 8 269 -18 q 132 79 167 35 q 57 307 58 171 q 138 589 57 481 q 386 707 228 707 q 562 644 491 703 l 561 652 l 561 653 q 572 678 561 667 q 597 689 584 689 l 599 689 z "},"h":{"ha":943,"x_min":0,"x_max":916,"o":"m 304 890 q 211 885 270 885 l 205 885 l 205 85 q 231 86 218 86 q 273 86 255 86 q 304 85 292 86 l 304 890 m 376 587 q 587 707 454 707 q 783 611 719 707 q 838 394 838 530 q 802 89 838 259 q 871 85 844 89 q 916 47 916 78 q 904 22 916 33 q 884 11 892 11 q 864 14 876 11 q 644 5 779 29 q 642 4 643 4 q 632 4 640 4 q 613 15 623 4 q 603 39 603 26 q 632 75 603 69 q 729 87 680 85 q 766 380 766 259 q 676 616 766 563 q 599 636 642 636 q 529 625 557 636 q 478 594 502 613 q 436 549 455 574 q 404 495 417 523 q 376 382 376 436 l 375 79 q 451 69 416 76 q 493 52 485 62 q 501 28 501 42 q 490 4 501 14 q 465 -5 479 -5 l 458 -5 q 256 16 345 16 q 54 -5 166 16 l 47 -5 q 22 5 32 -5 q 12 29 12 16 q 20 52 12 42 q 46 65 28 62 q 88 73 64 69 q 135 79 112 76 l 135 888 l 31 896 q 8 908 17 898 q 0 933 0 918 q 12 958 0 949 q 36 966 24 966 l 40 966 q 56 965 41 966 q 95 961 71 963 q 212 956 159 956 q 334 966 287 956 l 340 966 q 366 956 356 966 q 376 932 376 945 l 376 587 z "},"i":{"ha":538,"x_min":26,"x_max":528,"o":"m 330 591 q 237 586 296 586 l 232 586 l 232 75 q 257 77 245 77 q 300 77 281 77 q 330 75 318 77 l 330 591 m 322 875 q 308 910 322 896 q 272 925 293 925 q 237 910 251 925 q 222 875 222 896 q 237 840 222 854 q 272 825 251 825 q 308 840 293 825 q 322 875 322 854 m 492 -17 q 283 5 380 5 q 74 -17 186 5 q 48 -5 58 -17 q 39 19 39 6 q 46 42 39 32 q 72 56 54 52 q 114 63 90 60 q 161 69 138 66 l 161 589 l 57 597 q 35 610 43 600 q 26 635 26 620 q 39 659 26 650 q 62 668 51 668 l 66 668 q 82 666 67 668 q 121 663 97 665 q 239 657 185 657 q 359 668 313 657 l 367 668 q 393 657 382 668 q 403 633 403 647 l 401 69 q 449 63 425 66 q 492 56 473 60 q 528 20 528 49 q 516 -6 528 4 q 492 -17 505 -17 m 393 875 q 358 789 393 824 q 272 754 321 754 q 186 789 222 754 q 151 875 151 825 q 186 960 151 925 q 272 996 222 996 q 358 960 321 996 q 393 875 393 926 z "},"j":{"ha":482,"x_min":-187,"x_max":387,"o":"m 313 606 q 218 600 276 600 l 211 600 l 211 72 q 147 -254 211 -166 q 307 60 291 -197 q 317 334 317 210 q 313 606 317 502 m 302 889 q 288 924 302 910 q 252 939 273 939 q 217 924 232 939 q 203 889 203 910 q 217 853 203 868 q 252 839 232 839 q 288 853 273 839 q 302 889 302 868 m 218 671 q 339 682 295 671 l 347 682 q 372 672 362 682 q 382 648 382 661 l 387 385 q 352 -96 387 28 q 198 -309 309 -246 q 75 -340 140 -340 q -36 -324 9 -340 q -115 -277 -81 -307 q -187 -110 -187 -211 q -177 -84 -187 -95 q -152 -74 -167 -74 q -127 -84 -137 -74 q -116 -112 -117 -95 q -108 -155 -116 -130 q -84 -203 -100 -180 q -5 -257 -48 -257 q 62 -239 37 -257 q 102 -191 86 -220 q 125 -125 117 -162 q 136 -52 133 -89 q 140 72 140 -8 l 140 603 l 37 611 q 15 623 24 613 q 5 648 5 633 q 17 672 5 662 q 41 682 28 682 l 46 682 q 62 681 47 682 q 100 677 77 679 q 218 671 159 671 m 374 889 q 338 804 374 839 q 253 768 303 768 q 166 804 201 768 q 131 889 131 839 q 166 975 131 939 q 253 1010 201 1010 q 338 975 303 1010 q 374 889 374 939 z "},"k":{"ha":958,"x_min":-3,"x_max":899,"o":"m 220 75 l 245 75 q 301 72 262 75 l 301 893 q 208 889 257 889 l 203 889 l 203 74 q 220 75 211 75 m 564 353 q 476 311 543 340 q 614 87 525 147 q 696 62 650 62 q 742 68 711 62 q 564 353 648 118 m 789 127 q 827 199 827 127 l 827 224 q 821 303 827 275 q 815 332 816 332 l 815 340 q 826 366 815 355 q 849 376 836 376 q 885 349 879 376 q 899 242 899 308 q 887 134 899 177 q 850 60 876 91 q 696 -8 798 -8 q 463 155 555 -8 q 407 292 428 217 l 372 286 l 372 65 q 429 58 408 61 q 468 22 468 53 q 456 -4 468 5 q 433 -14 445 -14 l 428 -14 q 229 3 314 3 q 64 -14 144 3 l 57 -14 q 31 -2 41 -14 q 21 22 21 9 q 50 57 21 50 q 132 69 91 65 l 132 892 q 28 900 132 892 q 6 912 14 902 q -3 938 -3 922 q 9 962 -3 953 q 33 971 22 971 l 37 971 q 53 969 38 971 q 92 966 68 968 q 210 960 151 960 q 330 971 286 960 l 338 971 q 363 960 353 971 q 374 936 374 949 l 374 357 q 558 434 481 378 q 682 593 635 490 l 667 593 l 578 597 q 556 610 564 600 q 547 635 547 620 q 559 659 547 650 q 583 668 572 668 l 587 668 l 667 664 q 836 693 771 664 q 854 697 842 697 q 876 686 865 697 q 886 663 886 675 q 865 629 886 637 q 761 599 821 608 q 625 397 715 473 q 750 149 688 212 q 789 127 770 127 z "},"l":{"ha":498,"x_min":17,"x_max":472,"o":"m 302 901 q 210 897 258 897 l 204 897 l 204 78 l 302 78 l 302 901 m 134 899 l 50 908 q 28 920 37 910 q 20 946 20 930 q 32 970 20 961 q 56 979 44 979 l 60 979 q 72 978 60 979 q 103 974 83 976 q 211 968 152 968 q 309 974 283 968 q 344 979 334 979 q 365 968 355 979 q 375 943 375 957 l 374 71 q 404 67 393 68 q 423 64 415 65 q 443 60 431 63 q 464 48 456 58 q 472 25 472 39 q 461 1 472 11 q 436 -9 450 -9 l 429 -9 q 58 -11 241 24 l 52 -11 q 26 0 35 -11 q 17 24 17 10 q 45 60 17 52 q 134 71 85 66 l 134 899 z "},"m":{"ha":1291,"x_min":18,"x_max":1270,"o":"m 260 74 q 322 72 300 74 l 322 578 q 229 572 288 572 l 224 572 l 224 74 l 260 74 m 432 -9 q 65 -17 234 17 q 40 -5 50 -17 q 31 19 31 6 q 38 42 31 32 q 64 56 45 52 q 153 68 102 63 l 153 575 l 49 583 q 27 595 35 585 q 18 621 18 606 q 31 645 18 636 q 54 654 43 654 l 58 654 q 74 653 59 654 q 113 648 89 651 q 231 643 172 643 q 351 654 307 643 l 358 654 q 384 644 374 654 q 395 619 395 633 l 395 530 q 538 655 452 624 q 605 667 570 667 q 666 657 640 667 q 713 631 692 648 q 772 538 754 596 q 990 667 856 667 q 1141 580 1093 667 q 1178 395 1178 513 q 1143 81 1178 278 q 1260 62 1244 81 q 1270 38 1270 52 q 1258 14 1270 24 q 1234 3 1247 3 l 1229 3 q 1118 9 1179 9 q 972 -4 1057 9 l 966 -4 q 942 6 952 -4 q 932 31 932 17 q 940 54 932 44 q 970 68 949 64 q 1069 79 1029 76 q 1105 400 1105 259 q 1089 522 1105 484 q 1050 578 1073 560 q 985 596 1027 596 q 908 576 943 596 q 850 528 874 557 q 786 406 811 482 q 757 79 786 283 q 846 74 783 79 q 869 62 861 73 q 878 37 878 52 q 867 13 878 22 q 843 3 856 3 l 839 3 q 587 -4 726 16 l 582 -4 q 557 6 567 -4 q 547 31 547 17 q 556 54 547 44 q 586 68 564 64 q 685 78 645 76 q 715 408 715 269 q 701 526 715 491 q 664 579 686 562 q 608 596 643 596 q 545 581 573 596 q 493 542 516 566 q 453 491 470 519 q 423 437 435 463 q 395 363 403 393 l 393 66 q 417 64 406 65 q 441 61 429 62 q 463 49 454 59 q 472 24 472 39 q 461 0 472 10 q 436 -9 450 -9 l 432 -9 z "},"n":{"ha":918,"x_min":18,"x_max":914,"o":"m 322 585 q 229 579 288 579 l 224 579 l 224 69 q 282 69 258 69 q 322 68 307 69 l 322 585 m 231 652 q 358 663 304 652 q 384 651 374 663 q 395 627 395 640 l 395 557 q 612 673 474 673 q 793 503 751 673 q 808 389 808 444 q 805 294 808 334 q 796 214 802 254 q 772 77 787 134 q 826 74 798 75 q 875 71 853 73 q 914 31 914 66 q 902 8 913 17 q 878 -1 891 -1 l 875 -1 q 733 5 810 5 q 589 -9 656 5 q 564 2 574 -9 q 553 26 553 13 q 561 49 553 39 q 590 62 570 59 q 699 75 621 68 q 729 244 721 153 q 737 368 737 335 q 612 603 737 603 q 457 521 523 603 q 395 361 395 444 l 395 359 l 393 61 q 417 59 406 60 q 441 56 429 58 q 463 44 454 54 q 472 20 472 35 q 461 -5 472 6 q 441 -16 450 -16 q 432 -14 433 -16 q 264 -1 310 -1 q 121 -11 174 -1 q 59 -21 69 -21 q 40 -9 50 -21 q 31 15 31 2 q 38 38 31 28 q 64 52 45 48 q 153 64 102 59 l 153 582 q 49 591 62 586 q 27 603 35 593 q 18 628 18 613 q 30 653 18 643 q 49 663 41 663 q 58 662 57 663 q 74 660 59 661 q 113 656 89 659 q 231 652 169 652 z "},"o":{"ha":835,"x_min":56,"x_max":781,"o":"m 300 611 q 140 435 178 564 q 126 334 126 391 q 139 233 126 278 q 174 155 152 189 q 290 61 216 92 q 222 338 222 155 q 300 611 222 520 m 645 135 q 661 155 645 135 q 693 228 677 176 q 710 324 710 280 q 703 402 710 368 q 681 468 695 436 q 646 528 667 500 q 601 576 626 555 q 481 621 546 621 q 309 466 349 621 q 294 360 294 409 q 297 278 294 312 q 307 212 300 245 q 325 149 313 179 q 355 95 336 118 q 457 45 395 45 q 567 70 520 45 q 645 135 613 94 m 781 332 q 751 186 781 254 q 673 69 722 118 q 418 -33 568 -33 q 154 67 253 -33 q 56 335 56 167 q 160 600 56 494 q 418 704 263 704 q 680 594 575 704 q 781 332 781 488 z "},"p":{"ha":939,"x_min":14,"x_max":884,"o":"m 256 -281 l 300 -282 l 301 606 q 212 602 257 602 l 201 602 l 201 -282 l 256 -281 m 787 218 q 793 237 787 218 q 805 293 800 255 q 811 371 811 330 q 797 457 810 411 q 757 538 783 503 q 607 619 699 619 q 481 562 540 619 q 380 362 406 487 q 372 296 372 326 l 372 158 q 448 65 387 100 q 556 36 500 36 q 647 51 612 36 q 710 91 683 66 q 756 149 737 116 q 787 218 775 182 m 131 604 l 45 612 q 22 625 31 614 q 14 650 14 635 q 26 674 14 665 q 50 684 39 684 l 54 684 q 68 682 55 684 q 104 678 82 680 q 201 672 157 672 q 306 678 281 672 q 342 684 332 684 q 362 672 352 684 q 372 647 372 661 l 372 536 q 473 649 413 608 q 603 690 533 690 q 724 661 673 690 q 810 585 775 632 q 884 364 879 493 q 803 91 884 208 q 662 -20 749 12 q 567 -36 618 -36 q 372 32 451 -36 l 372 -288 q 429 -294 408 -291 q 467 -329 467 -298 q 454 -356 467 -347 q 431 -366 442 -366 l 427 -366 q 244 -353 332 -353 q 66 -371 157 -353 l 61 -371 q 35 -360 45 -371 q 25 -336 25 -350 q 54 -301 25 -307 q 131 -289 95 -293 l 131 604 z "},"q":{"ha":945,"x_min":57,"x_max":933,"o":"m 568 497 q 563 510 567 500 q 551 533 559 520 q 530 561 543 546 q 496 587 516 575 q 394 618 450 616 q 302 606 338 619 q 237 571 266 593 q 188 517 209 548 q 154 452 168 487 q 127 316 127 382 q 140 202 127 250 q 179 118 153 155 q 332 36 235 36 q 458 94 400 36 q 539 225 507 142 q 568 363 567 296 l 568 497 m 639 -302 q 737 -294 701 -296 l 737 602 l 728 602 q 639 606 682 602 l 639 -302 m 896 612 l 810 604 l 810 -293 q 856 -295 833 -294 q 898 -299 880 -296 q 933 -336 933 -304 q 922 -360 933 -350 q 897 -371 910 -371 l 892 -371 q 802 -364 844 -364 q 731 -366 760 -364 q 678 -370 702 -368 q 637 -375 654 -372 q 615 -378 620 -377 q 604 -379 610 -379 l 603 -379 q 568 -335 568 -376 l 568 119 q 475 9 536 54 q 338 -36 410 -36 q 215 -8 267 -36 q 127 67 163 20 q 57 301 57 162 q 141 575 57 467 q 386 690 232 690 q 568 623 499 684 l 568 647 q 579 673 568 663 q 599 684 589 684 q 623 680 608 684 q 726 672 656 672 q 885 684 806 672 l 890 684 q 916 672 906 684 q 926 648 926 661 q 918 625 926 635 q 896 612 909 614 z "},"r":{"ha":823,"x_min":33,"x_max":796,"o":"m 338 589 q 244 585 312 585 l 239 585 l 239 86 q 264 87 252 87 q 338 87 264 87 l 338 589 m 717 438 q 721 463 721 447 q 706 493 721 478 q 671 507 692 507 q 635 493 650 507 q 621 463 621 478 q 625 438 621 447 q 635 422 629 429 q 671 407 650 407 q 717 438 703 407 m 410 582 q 589 676 477 676 q 738 620 681 673 q 796 479 796 566 q 762 380 796 422 q 671 336 727 336 q 585 372 621 336 q 550 457 550 407 q 585 543 550 507 q 671 579 621 579 q 677 578 674 579 q 684 578 680 578 q 599 606 648 606 q 522 590 550 606 q 473 550 493 574 q 441 497 453 526 q 422 445 429 469 q 410 382 410 404 l 408 81 q 456 75 432 79 q 499 66 480 71 q 534 31 534 60 q 523 6 534 16 q 498 -4 511 -4 l 492 -4 q 289 17 378 17 q 87 -4 201 17 l 81 -4 q 56 6 65 -4 q 46 30 46 17 q 74 66 46 59 q 121 75 98 71 q 168 81 145 79 l 168 586 q 64 596 79 590 q 42 607 50 597 q 33 632 33 617 q 45 657 33 648 q 69 667 57 667 l 74 667 q 146 659 79 662 q 245 656 214 656 q 345 661 321 656 q 379 667 368 667 q 399 655 389 667 q 410 631 410 644 l 410 582 z "},"s":{"ha":794,"x_min":69,"x_max":742,"o":"m 661 150 q 671 198 671 175 q 660 242 671 221 q 630 278 648 263 q 588 304 612 294 q 539 322 564 315 q 490 335 514 330 q 442 345 465 340 q 389 357 418 351 q 330 371 359 363 q 273 390 300 378 q 223 418 245 401 q 163 509 174 452 q 146 436 146 472 q 158 376 146 400 q 192 333 171 351 q 239 302 212 315 q 294 281 265 290 q 381 262 344 267 q 444 255 419 258 q 496 245 469 251 q 550 230 523 239 q 600 210 577 222 q 661 150 651 184 m 583 549 q 359 618 496 618 q 243 573 277 618 q 231 534 231 557 q 244 496 231 512 q 279 468 258 480 q 326 447 300 456 q 377 432 352 438 q 425 422 403 426 q 477 412 447 418 q 557 390 507 406 q 648 350 607 375 q 742 193 742 292 q 639 19 742 85 q 440 -40 547 -40 q 140 64 262 -40 l 140 41 q 142 20 140 30 l 142 17 q 133 -7 142 3 q 109 -18 123 -18 q 83 -9 94 -18 q 71 14 72 0 q 69 41 69 27 l 69 69 q 73 165 69 123 q 77 214 76 207 q 88 231 78 222 q 113 240 98 240 q 138 229 128 240 q 147 205 147 218 l 147 201 q 143 158 145 183 q 440 32 261 32 q 570 58 520 32 q 603 103 603 76 q 420 186 603 160 q 369 193 402 189 q 278 213 335 197 q 176 259 222 230 q 75 432 75 324 q 164 621 75 547 q 359 689 245 689 q 610 618 507 689 q 654 690 635 682 q 674 694 663 694 q 696 684 686 694 q 707 661 707 673 q 691 623 707 649 q 635 453 646 546 q 623 431 633 440 q 598 422 612 422 q 574 434 584 422 q 564 458 564 445 l 564 464 q 583 549 571 506 z "},"t":{"ha":633,"x_min":-4,"x_max":599,"o":"m 367 39 q 321 139 321 79 l 321 917 l 224 889 l 224 220 q 315 46 224 72 q 367 39 340 39 m 392 685 q 561 694 476 688 l 564 694 q 589 684 578 694 q 599 660 599 673 q 590 636 599 646 q 567 624 581 625 q 392 614 463 616 l 392 139 q 433 81 392 98 q 460 77 445 77 q 487 86 475 77 q 507 111 499 96 q 525 157 518 131 q 564 199 535 199 q 589 187 579 199 q 599 163 599 175 l 599 155 q 522 16 579 65 q 379 -33 464 -33 q 172 92 226 -33 q 151 220 151 141 l 151 615 q 90 619 121 617 q 37 624 59 621 q -4 660 -4 628 q 8 685 -4 675 q 32 694 20 694 l 35 694 l 151 686 l 151 917 q 159 938 151 928 q 178 951 166 948 l 347 997 q 361 999 350 999 q 382 987 372 999 q 392 962 392 976 l 392 685 z "},"u":{"ha":957,"x_min":17,"x_max":932,"o":"m 723 616 l 696 616 q 644 619 675 616 l 627 49 q 726 60 677 57 l 737 618 q 723 616 730 616 m 614 694 q 735 689 650 689 q 896 708 820 689 q 922 697 911 708 q 932 673 932 686 q 924 650 932 660 q 898 636 916 640 q 855 629 879 632 q 808 623 831 626 l 798 61 q 883 58 857 61 q 926 21 926 52 q 915 -6 926 4 q 892 -16 904 -16 l 888 -16 q 597 -29 738 3 l 590 -29 q 565 -19 576 -29 q 554 5 554 -8 l 554 7 l 558 131 q 332 -29 471 -29 q 152 79 212 -29 q 104 285 104 166 q 174 621 104 469 l 52 624 q 27 635 37 625 q 17 659 17 645 q 27 684 17 673 q 53 694 37 694 l 232 690 q 257 679 247 688 q 267 659 267 669 q 261 636 267 647 q 186 397 216 591 q 175 284 175 327 q 182 198 175 241 q 207 121 189 155 q 330 41 247 41 q 476 134 414 41 q 566 389 538 226 l 574 661 q 585 685 574 676 q 610 694 597 694 l 614 694 z "},"v":{"ha":864,"x_min":-7,"x_max":875,"o":"m 425 47 q 473 122 431 56 q 249 624 302 359 l 204 623 q 179 623 191 623 q 155 624 167 624 q 425 47 220 278 m 728 694 q 839 708 758 694 q 864 697 854 708 q 875 673 875 686 q 849 638 875 645 q 764 624 811 629 q 559 129 714 401 q 483 4 511 45 q 447 -41 454 -37 q 431 -46 440 -46 q 404 -35 416 -46 q 141 401 235 140 q 82 629 104 504 q 53 633 67 631 q 24 637 38 634 q -7 672 -7 643 q 5 699 -7 690 q 29 708 18 708 q 105 698 48 703 q 204 693 162 693 q 367 707 278 693 l 372 708 q 398 697 388 708 q 408 673 408 687 q 400 650 408 660 q 319 629 387 634 q 484 235 360 427 q 513 191 500 209 q 690 624 639 418 q 617 634 642 629 q 576 672 576 643 q 588 698 576 688 q 612 708 600 708 q 728 694 680 694 z "},"w":{"ha":1117,"x_min":-4,"x_max":1126,"o":"m 372 64 q 421 153 412 134 q 296 429 345 271 q 250 624 263 530 q 210 623 231 623 l 160 623 q 274 239 182 441 q 372 64 313 153 m 746 54 q 794 142 785 125 q 616 472 688 300 q 576 339 602 408 q 746 54 627 213 m 838 704 q 946 694 876 694 q 1090 708 1016 694 q 1116 697 1105 708 q 1126 673 1126 686 q 1118 650 1126 660 q 994 625 1101 629 q 865 125 943 291 q 779 -28 835 62 q 750 -45 767 -45 q 721 -31 734 -45 q 542 245 606 113 q 404 -20 465 77 q 374 -36 393 -36 q 345 -21 355 -36 q 114 478 180 206 q 87 624 93 564 q 57 626 72 625 q 28 628 43 627 q 5 640 14 630 q -4 665 -4 650 q 8 689 -4 680 q 32 699 20 699 l 35 699 q 199 693 119 693 q 387 707 279 693 l 393 708 q 418 697 409 708 q 428 672 428 686 q 419 649 428 659 q 395 636 411 639 q 360 632 380 634 q 321 628 340 630 q 457 231 361 400 q 570 614 555 446 q 582 637 571 629 q 605 646 593 646 q 639 621 631 646 q 828 220 709 406 q 889 436 867 321 q 924 625 911 552 q 848 630 878 625 q 810 645 819 635 q 802 669 802 654 q 813 693 802 683 q 838 704 824 704 z "},"x":{"ha":943,"x_min":14,"x_max":926,"o":"m 216 632 q 618 86 416 318 q 732 90 675 90 q 318 635 562 285 q 216 632 268 632 m 586 386 q 829 89 738 189 q 916 77 905 89 q 926 50 926 64 q 916 25 926 35 q 892 16 906 16 l 889 16 q 755 20 824 20 q 555 10 625 20 q 476 0 485 0 q 456 11 467 0 q 446 35 446 22 q 454 59 446 49 q 476 71 463 68 q 532 78 499 75 q 419 220 456 169 q 265 85 329 135 q 292 82 279 83 q 319 79 306 81 q 342 67 333 77 q 351 42 351 56 q 340 18 351 28 q 315 7 329 7 q 182 17 285 17 q 54 8 122 17 l 50 7 q 24 18 35 7 q 14 43 14 29 q 22 67 14 56 q 45 79 31 77 q 155 87 100 85 q 187 113 165 96 q 237 154 208 130 q 376 277 308 213 q 132 632 239 458 q 99 634 115 633 q 67 636 82 635 q 43 647 52 637 q 33 672 33 657 q 44 696 33 686 q 69 707 56 707 l 72 707 q 233 703 131 703 q 449 720 334 703 l 453 720 q 479 709 469 720 q 489 684 489 698 q 458 648 489 654 q 400 642 429 644 q 460 557 424 608 q 543 444 497 505 q 692 639 628 540 q 597 657 608 644 q 586 685 586 671 q 598 709 586 699 q 617 720 610 720 l 625 720 q 656 714 627 720 q 751 708 686 708 q 879 720 816 708 l 885 720 q 911 709 901 720 q 921 684 921 698 q 891 648 921 654 q 774 637 851 641 q 586 386 693 502 z "},"y":{"ha":839,"x_min":-71,"x_max":843,"o":"m 111 -155 q 97 -120 111 -134 q 61 -106 82 -106 q 25 -120 40 -106 q 11 -155 11 -134 q 25 -191 11 -176 q 61 -205 40 -205 q 97 -191 82 -205 q 111 -155 111 -176 m 686 640 q 659 639 673 639 l 586 639 q 470 189 521 356 q 404 -21 420 22 q 243 -314 330 -225 q 458 -109 374 -267 q 513 18 495 -38 q 545 117 532 74 q 571 208 557 159 q 599 307 585 256 q 626 406 612 357 q 650 499 639 455 q 671 579 661 543 q 686 640 680 616 m 465 720 q 633 710 538 710 q 803 720 728 710 l 807 720 q 833 708 823 720 q 843 684 843 697 q 834 660 843 670 q 811 648 825 650 q 786 645 798 646 q 760 643 773 644 q 746 590 755 624 q 726 511 738 555 q 702 416 715 467 q 674 311 688 364 q 645 204 660 257 q 616 104 630 151 q 563 -54 586 3 q 501 -175 539 -111 q 412 -288 463 -238 q 165 -397 302 -397 q 1 -347 66 -397 q -71 -201 -71 -292 q -37 -87 -71 -134 q 61 -35 1 -35 q 146 -70 111 -35 q 182 -155 182 -105 q 146 -241 182 -205 q 61 -277 112 -277 q 20 -269 41 -277 q 92 -313 54 -313 q 157 -295 130 -313 q 208 -248 184 -277 q 252 -184 232 -220 q 289 -114 273 -149 q 340 9 327 -34 q 359 71 353 52 q 171 420 231 245 q 127 627 132 532 q 1 643 16 627 q -8 667 -8 653 q 3 692 -8 682 q 28 703 14 703 l 32 703 q 120 697 70 697 q 254 704 213 697 q 305 711 296 711 q 325 700 314 711 q 335 675 335 688 q 327 652 335 663 q 297 639 318 642 q 199 628 248 632 q 290 319 202 501 q 386 157 326 244 q 514 643 451 378 q 486 645 500 644 q 457 648 471 646 q 434 660 444 650 q 425 685 425 670 q 437 710 425 700 q 461 720 448 720 l 465 720 z "},"z":{"ha":810,"x_min":35,"x_max":761,"o":"m 646 650 q 586 648 615 648 q 528 646 557 647 l 140 72 q 199 76 170 75 q 258 78 228 77 l 646 650 m 414 82 l 526 82 q 668 79 606 82 q 690 258 671 169 q 720 286 698 286 q 752 274 743 286 q 761 256 761 262 l 761 247 q 755 221 761 245 q 739 56 739 157 l 739 43 q 728 17 738 27 q 704 7 719 7 l 703 7 q 425 11 593 11 q 72 -3 257 11 l 69 -3 q 45 8 55 -3 q 35 28 35 20 q 40 53 35 44 l 441 644 l 414 644 q 167 652 301 644 q 126 494 153 571 q 97 471 118 471 q 66 482 76 471 q 57 500 57 493 q 66 536 57 511 q 100 692 87 593 q 112 714 101 705 q 135 724 122 724 l 138 724 q 417 717 251 717 q 713 724 583 717 l 715 724 q 741 712 731 724 q 750 692 750 701 q 745 668 750 675 l 346 81 q 414 82 379 82 z "},"{":{"ha":496,"x_min":17,"x_max":465,"o":"m 168 457 q 229 283 229 388 q 217 169 229 237 q 193 -26 193 37 q 211 -140 193 -90 q 257 -220 229 -191 q 243 -133 243 -182 q 255 -35 243 -83 q 282 62 268 14 q 310 159 297 111 q 322 258 322 208 q 168 457 322 415 m 257 1219 q 193 1007 193 1152 q 205 892 193 961 q 229 715 229 760 q 168 542 229 611 q 322 742 322 588 q 310 843 322 793 q 282 940 297 892 q 255 1035 268 987 q 243 1132 243 1083 q 257 1219 243 1181 m 257 500 q 395 258 395 425 q 354 57 395 184 q 327 -39 339 9 q 314 -124 314 -86 q 322 -185 314 -161 q 346 -227 330 -209 q 429 -265 379 -265 q 455 -277 445 -267 q 465 -301 465 -287 q 437 -336 465 -329 l 386 -340 q 182 -236 252 -340 q 122 -7 122 -146 q 134 107 122 39 q 158 275 158 239 q 153 336 158 311 q 133 385 147 361 q 36 468 105 431 q 17 492 17 476 q 36 530 17 522 q 153 663 136 583 q 158 722 158 689 q 152 791 158 755 q 140 864 146 828 q 122 1019 122 964 q 137 1133 122 1073 q 184 1239 153 1193 q 386 1340 256 1340 q 437 1335 429 1340 q 465 1300 465 1331 q 453 1274 465 1283 q 426 1265 441 1265 q 391 1255 411 1265 q 353 1229 370 1246 q 314 1137 314 1188 q 327 1038 314 1085 q 354 943 339 991 q 395 759 395 816 q 386 666 395 703 q 361 599 378 630 q 257 500 323 532 z "},"|":{"ha":452,"x_min":109,"x_max":343,"o":"m 271 -211 l 271 1236 l 179 1236 l 179 -211 l 271 -211 m 343 -248 q 332 -273 343 -262 q 307 -283 321 -283 l 144 -283 q 119 -273 129 -283 q 109 -248 109 -262 l 109 1272 q 119 1297 109 1287 q 144 1307 129 1307 l 307 1307 q 332 1297 321 1307 q 343 1272 343 1287 l 343 -248 z "},"}":{"ha":496,"x_min":31,"x_max":479,"o":"m 237 -220 q 301 -7 301 -156 q 289 111 301 45 q 267 283 267 236 q 328 457 267 388 q 172 258 172 414 q 185 157 172 205 q 213 60 197 108 q 240 -36 228 12 q 253 -133 253 -84 q 237 -220 253 -181 m 328 542 q 267 717 267 611 q 278 834 267 769 q 301 1024 301 960 q 237 1219 301 1154 q 253 1131 253 1181 q 240 1033 253 1082 q 213 936 228 984 q 172 756 172 810 q 183 669 172 702 q 214 612 194 637 q 328 542 254 563 m 110 -340 l 58 -336 q 31 -307 31 -329 q 42 -275 31 -285 q 73 -265 53 -265 q 115 -254 93 -265 q 151 -225 136 -243 q 182 -140 182 -188 q 169 -46 182 -93 q 142 50 157 1 q 102 261 102 184 q 136 401 102 338 q 239 500 170 465 q 102 742 102 567 q 142 947 102 818 q 169 1041 157 994 q 182 1123 182 1087 q 174 1184 182 1160 q 151 1226 165 1208 q 65 1265 117 1265 q 40 1276 50 1265 q 31 1299 31 1286 q 58 1335 31 1331 q 124 1340 66 1340 q 232 1311 182 1340 q 313 1234 282 1282 q 374 1007 374 1145 q 361 892 374 960 q 338 725 338 761 q 343 664 338 689 q 363 614 349 638 q 460 530 392 566 q 479 505 479 521 q 460 468 479 477 q 343 336 361 416 q 338 278 338 311 q 343 209 338 245 q 355 136 349 172 q 374 -19 374 36 q 358 -134 374 -73 q 311 -240 343 -194 q 110 -340 240 -340 z "},"~":{"ha":806,"x_min":64,"x_max":746,"o":"m 157 608 q 209 619 178 619 q 262 607 239 619 q 305 576 286 595 q 356 504 332 549 q 397 429 380 458 q 434 376 414 399 q 534 323 479 323 q 650 396 610 323 q 667 439 661 416 q 591 410 629 410 q 534 420 553 410 q 500 449 515 431 q 460 516 479 473 q 427 586 441 559 q 392 633 413 612 q 268 677 347 677 q 157 608 193 677 m 733 616 q 736 602 733 616 q 743 559 740 588 q 746 492 746 530 q 731 409 746 454 q 688 328 716 363 q 533 252 627 252 q 340 385 421 252 q 296 464 317 424 q 264 517 275 504 q 214 549 239 549 q 176 538 189 549 q 155 513 163 528 q 140 450 140 486 q 182 315 140 385 q 189 294 189 307 q 178 271 189 281 q 155 260 166 260 q 123 277 134 260 q 98 326 115 281 q 64 509 64 418 q 121 682 64 614 q 268 750 178 750 q 488 621 420 750 q 522 553 506 588 q 550 500 537 519 q 582 482 563 482 q 616 491 602 482 q 641 515 631 500 q 660 576 660 544 q 629 681 660 639 q 623 704 623 690 q 633 728 623 718 q 654 737 644 737 q 690 719 676 737 q 715 672 703 700 q 733 616 726 645 z "},"":{"ha":416,"x_min":0,"x_max":0,"o":""},"":{"ha":371,"x_min":68,"x_max":306,"o":"m 187 682 q 164 672 174 682 q 154 649 154 662 q 164 626 154 636 q 187 616 174 616 q 210 626 201 616 q 220 649 220 636 q 210 672 220 662 q 187 682 201 682 m 187 252 q 140 -149 140 -26 q 154 -182 140 -168 q 187 -196 168 -196 q 220 -182 206 -196 q 235 -140 235 -168 q 231 -66 235 -113 q 220 32 227 -20 q 187 252 210 111 m 83 648 q 114 722 83 691 q 187 753 143 753 q 260 722 230 753 q 292 648 292 691 q 260 576 292 606 q 197 546 229 546 q 146 554 165 546 q 114 576 127 562 q 83 648 83 605 m 68 -151 q 68 -128 68 -151 q 73 -50 68 -105 q 86 68 78 5 q 106 197 95 130 q 125 318 117 264 q 151 482 138 391 q 163 504 153 496 q 187 513 174 513 q 210 504 200 513 q 224 471 220 496 q 234 406 228 446 q 250 313 241 367 q 269 193 258 258 q 288 65 279 127 q 306 -123 306 -73 q 297 -194 306 -173 q 271 -232 288 -216 q 187 -267 237 -267 q 103 -232 138 -267 q 68 -151 68 -197 z "},"":{"ha":808,"x_min":56,"x_max":757,"o":"m 450 104 q 463 -29 458 -9 q 452 -54 463 -44 q 427 -64 441 -64 q 403 -55 413 -64 q 391 -24 393 -47 q 382 104 387 16 q 146 212 237 114 q 56 461 56 311 q 140 716 56 623 q 380 818 223 810 q 393 1011 385 922 q 405 1033 395 1025 q 428 1042 414 1042 q 453 1031 442 1042 q 464 1006 464 1021 q 446 817 454 978 q 664 696 588 804 l 686 835 q 698 856 688 847 q 723 864 708 864 q 747 852 738 864 q 757 829 757 841 l 757 823 l 714 561 q 702 539 712 547 q 677 530 691 530 q 654 540 664 530 q 644 571 644 549 q 628 623 643 593 q 591 677 614 653 q 492 730 541 730 q 441 724 465 730 q 439 536 439 615 l 439 457 q 444 189 435 352 q 488 186 463 186 q 543 202 513 186 q 597 242 573 218 q 663 355 646 292 q 697 385 670 385 q 723 373 712 385 q 733 353 733 362 q 729 327 733 345 q 705 271 726 310 q 650 197 685 233 q 450 104 569 115 m 318 187 q 228 453 228 283 q 300 700 228 609 q 342 741 320 726 q 178 650 229 713 q 126 471 126 584 q 176 287 126 358 q 318 187 225 215 m 376 225 q 371 419 371 352 q 372 518 371 486 q 373 591 372 549 q 375 685 374 632 q 298 452 298 608 q 342 270 298 347 q 376 225 356 244 z "},"":{"ha":999,"x_min":47,"x_max":950,"o":"m 283 68 q 380 71 330 71 l 380 646 q 464 930 380 847 q 303 789 346 907 q 283 668 283 735 l 283 68 m 503 72 q 829 64 710 72 l 879 347 q 891 369 881 361 q 915 378 901 378 q 939 367 928 378 q 950 347 950 355 q 949 335 950 338 l 893 20 q 881 -2 891 6 q 859 -9 871 -9 l 854 -9 q 503 1 743 1 q 157 -9 262 1 l 153 -9 q 129 -1 139 -9 q 118 22 119 7 q 126 48 117 37 q 149 61 135 59 q 178 63 162 62 q 212 65 193 64 l 212 419 q 79 428 135 422 q 57 440 66 429 q 47 465 47 450 q 59 489 47 479 q 83 498 71 498 l 86 498 q 212 490 208 490 l 212 668 q 311 929 212 837 q 524 1007 392 1007 q 715 931 640 1007 q 790 757 785 860 q 780 731 789 742 q 755 721 770 721 q 730 731 740 721 q 720 760 720 742 q 711 805 720 778 q 686 856 703 831 q 593 913 648 913 q 500 863 535 913 q 452 646 452 795 l 452 489 q 612 498 575 495 l 615 498 q 640 488 630 498 q 650 464 650 477 q 641 440 650 450 q 604 427 631 429 q 452 418 525 420 l 452 72 l 503 72 z "},"":{"ha":521,"x_min":33,"x_max":488,"o":"m 265 445 q 269 451 265 445 q 277 473 273 458 q 281 502 281 488 q 276 530 281 516 q 262 556 271 545 q 219 581 241 581 q 186 572 197 581 q 169 551 176 564 q 157 505 157 528 q 160 468 157 483 q 171 442 163 454 q 209 416 186 416 q 244 425 232 416 q 265 445 257 433 m 314 604 q 351 501 351 559 q 314 392 351 435 q 388 452 368 403 q 396 495 396 470 q 389 539 396 521 q 371 570 382 557 q 314 604 349 595 m 167 646 q 270 679 218 679 q 364 661 323 679 q 422 746 379 682 q 435 758 431 754 q 452 762 439 762 q 476 753 464 762 q 488 730 488 743 q 477 701 488 717 q 451 663 466 685 q 421 621 437 642 q 467 495 467 572 q 418 370 467 418 l 475 321 q 477 317 475 320 q 481 311 479 315 q 488 291 488 301 q 476 269 488 280 q 451 258 465 258 q 424 270 437 258 q 357 330 383 306 q 268 317 317 317 q 175 342 218 317 q 133 303 154 323 q 98 271 113 284 q 70 258 83 258 q 45 269 56 258 q 33 289 33 280 q 35 303 33 298 q 40 311 37 307 q 44 317 42 315 q 46 321 46 320 l 122 387 q 86 494 86 433 q 117 599 86 555 q 33 726 33 708 q 45 753 33 743 q 69 762 57 762 q 86 758 81 762 q 98 746 90 754 q 167 646 139 684 z "},"":{"ha":1203,"x_min":33,"x_max":1157,"o":"m 608 61 q 700 64 654 64 l 700 416 q 358 890 528 574 q 332 889 346 889 q 283 889 305 889 q 248 890 262 889 q 520 469 378 637 q 597 390 557 426 q 608 364 608 379 l 608 61 m 960 965 q 1116 978 1034 965 l 1121 978 q 1146 967 1135 978 q 1157 942 1157 956 q 1148 919 1157 929 q 1126 907 1139 909 q 993 895 1059 897 q 867 568 941 711 q 774 422 819 477 q 953 404 874 415 q 975 392 966 402 q 983 368 983 382 q 973 344 983 355 q 949 334 963 334 l 943 334 q 771 351 881 342 l 771 275 q 953 257 869 268 q 975 245 966 255 q 983 221 983 235 q 973 197 983 208 q 949 186 963 186 l 943 186 q 771 204 885 195 l 771 62 q 889 54 829 60 q 912 42 903 52 q 921 17 921 32 q 909 -8 921 1 q 885 -17 897 -17 l 880 -17 q 689 -7 803 -7 q 436 -35 575 -7 l 429 -35 q 404 -24 414 -35 q 393 0 393 -14 q 422 36 393 28 q 538 54 490 49 l 538 203 q 375 186 481 200 l 371 186 q 345 197 355 186 q 335 221 335 208 q 343 245 335 235 q 366 257 352 255 q 538 273 451 269 l 538 349 l 534 350 q 375 334 471 347 l 371 334 q 345 344 355 334 q 335 368 335 355 q 343 392 335 382 q 366 404 352 402 l 472 416 q 186 852 326 583 q 164 896 172 880 q 74 905 97 901 q 33 942 33 911 q 45 969 33 960 q 69 978 58 978 l 74 978 q 307 960 189 960 q 534 978 426 960 l 539 978 q 565 967 555 978 q 575 943 575 956 q 567 919 575 929 q 538 906 558 909 q 437 895 494 899 q 636 591 526 731 q 732 485 682 534 q 867 743 799 574 q 920 896 895 811 q 806 904 834 899 q 761 942 761 911 q 773 968 761 958 q 796 978 785 978 l 802 978 q 960 965 886 965 z "},"":{"ha":452,"x_min":109,"x_max":343,"o":"m 271 -211 l 271 403 l 179 403 l 179 -211 l 271 -211 m 343 -248 q 332 -273 343 -262 q 307 -283 321 -283 l 144 -283 q 119 -273 129 -283 q 109 -248 109 -262 l 109 439 q 119 464 109 454 q 144 473 129 473 l 307 473 q 332 464 321 473 q 343 439 343 454 l 343 -248 m 271 623 l 271 1236 l 179 1236 l 179 623 l 271 623 m 343 586 q 332 561 343 572 q 307 550 321 550 l 144 550 q 119 561 129 550 q 109 586 109 572 l 109 1272 q 119 1297 109 1287 q 144 1307 129 1307 l 307 1307 q 332 1297 321 1307 q 343 1272 343 1287 l 343 586 z "},"":{"ha":1015,"x_min":104,"x_max":947,"o":"m 184 595 q 175 538 175 564 q 179 493 175 512 q 196 453 183 474 q 232 411 208 433 q 295 368 256 389 q 528 296 383 321 q 713 248 664 269 q 791 209 763 227 q 867 109 850 168 q 875 164 875 133 q 859 224 875 195 q 818 274 844 253 q 759 311 792 296 q 691 336 726 326 q 623 353 656 347 q 558 367 590 360 q 486 381 527 373 q 405 400 445 389 q 327 428 364 412 q 259 467 290 444 q 184 595 195 515 m 781 380 q 542 481 723 449 q 268 564 361 514 q 498 449 317 481 q 781 380 713 412 m 865 371 q 875 424 875 391 q 859 485 875 456 q 818 535 844 514 q 759 572 792 557 q 691 597 726 587 q 623 614 656 608 q 558 628 590 621 q 486 642 527 634 q 405 662 445 650 q 327 689 364 673 q 259 727 290 705 q 184 856 195 776 q 175 790 175 825 q 391 590 175 662 q 528 557 448 571 q 865 371 829 503 m 901 289 q 947 167 947 222 q 930 73 947 111 q 884 5 913 35 q 818 -48 855 -26 q 739 -85 780 -71 q 575 -115 656 -115 q 178 33 341 -115 l 176 21 q 179 -50 176 -15 l 179 -53 q 169 -77 179 -67 q 144 -87 158 -87 q 120 -78 131 -87 q 109 -56 110 -69 q 132 250 100 113 q 144 270 134 262 q 169 278 154 278 q 193 266 184 278 q 201 243 201 254 l 201 235 q 183 129 191 191 q 576 -45 345 -45 q 789 27 745 -45 q 800 71 800 45 q 741 153 800 116 q 515 227 666 200 q 123 441 196 281 q 104 545 104 481 q 140 669 104 609 q 104 784 104 724 q 120 887 104 845 q 164 961 136 929 q 228 1017 191 994 q 306 1055 264 1040 q 476 1083 385 1083 q 802 983 673 1083 q 846 1074 820 1027 q 875 1092 858 1092 q 902 1080 892 1092 q 913 1058 913 1068 q 908 1038 913 1047 q 818 786 838 919 q 807 764 817 772 q 782 755 797 755 q 757 767 766 755 q 747 786 747 779 q 750 810 747 794 q 775 914 760 864 q 471 1013 657 1013 q 276 941 330 1013 q 256 878 256 915 q 274 816 256 840 q 321 773 292 791 q 387 742 351 755 q 458 721 422 730 q 526 706 494 712 q 587 694 557 701 q 658 679 616 688 q 741 654 700 669 q 819 618 782 639 q 884 570 857 598 q 946 430 946 509 q 901 289 946 352 z "},"":{"ha":504,"x_min":0,"x_max":504,"o":"m 136 971 q 127 995 136 985 q 104 1004 118 1004 q 81 995 91 1004 q 71 971 71 985 q 81 948 71 958 q 104 939 91 939 q 127 948 118 939 q 136 971 136 958 m 433 971 q 424 995 433 985 q 400 1004 414 1004 q 377 995 387 1004 q 368 971 368 985 q 377 948 368 958 q 400 939 387 939 q 424 948 414 939 q 433 971 433 958 m 208 971 q 200 930 208 949 q 178 897 192 911 q 115 867 147 867 q 64 875 83 867 q 31 897 45 883 q 0 971 0 928 q 31 1044 0 1014 q 104 1075 61 1075 q 178 1044 147 1075 q 208 971 208 1014 m 400 867 q 327 897 357 867 q 297 971 297 928 q 327 1044 297 1013 q 400 1075 357 1075 q 473 1044 444 1075 q 504 981 504 1013 q 474 898 504 928 q 400 867 444 867 z "},"":{"ha":1121,"x_min":69,"x_max":1051,"o":"m 545 631 q 468 464 468 585 q 532 329 468 372 q 503 446 503 385 q 545 631 503 559 m 777 667 l 785 721 q 797 743 787 734 q 821 751 807 751 q 845 740 835 751 q 856 715 856 728 l 856 710 l 829 541 q 817 518 827 527 q 793 510 806 510 q 769 520 779 510 q 758 544 760 530 q 749 575 755 558 q 734 606 743 592 q 683 640 711 640 q 640 631 656 640 q 612 606 624 621 q 593 571 601 591 q 582 532 586 551 q 574 466 574 496 q 579 410 574 436 q 595 361 584 384 q 669 309 622 309 q 738 339 704 309 q 771 401 770 368 q 783 422 773 414 q 807 431 793 431 q 831 419 821 431 q 840 395 840 408 l 840 387 q 763 271 826 315 q 642 229 705 229 q 536 248 579 229 q 463 298 493 266 q 397 464 397 365 q 460 648 397 574 q 623 724 524 724 q 777 667 721 724 m 374 822 q 157 593 210 749 q 140 491 140 543 q 154 393 140 439 q 194 307 168 347 q 335 174 246 224 q 237 496 237 290 q 367 815 237 703 q 370 819 368 817 q 374 822 372 820 m 981 488 q 967 574 981 531 q 931 657 954 618 q 876 732 907 697 q 807 791 844 766 q 648 846 728 846 q 506 819 569 846 q 399 746 444 793 q 309 497 309 650 q 385 231 309 329 q 625 123 467 123 q 806 180 720 123 q 932 319 884 233 q 981 488 981 403 m 980 716 q 996 692 980 716 q 1032 609 1013 667 q 1051 486 1051 551 q 1031 361 1051 420 q 976 253 1010 302 q 893 165 941 204 q 791 100 845 127 q 559 45 677 45 q 213 175 359 45 q 87 370 122 256 q 69 503 69 427 q 108 661 69 580 q 213 802 146 741 q 369 897 280 862 q 541 932 458 932 q 683 917 623 932 q 799 873 744 901 q 900 806 853 846 q 980 716 946 766 z "},"":{"ha":755,"x_min":94,"x_max":681,"o":"m 596 599 l 595 549 l 650 549 q 672 538 663 547 q 681 516 681 530 q 671 492 681 502 q 648 482 661 482 l 612 482 q 446 460 528 482 l 437 458 q 414 469 422 458 q 406 492 406 480 l 406 501 q 411 543 408 508 q 221 450 321 450 q 104 512 138 450 q 94 563 94 532 q 110 623 94 594 q 152 672 126 651 q 211 707 178 693 q 278 730 243 722 q 401 746 342 746 l 404 746 q 366 840 401 802 q 275 882 328 882 q 199 840 235 882 q 164 755 164 799 q 154 734 164 743 q 130 725 143 725 q 107 735 117 725 q 97 770 97 746 q 116 834 97 794 q 168 906 134 873 q 358 982 246 982 q 560 851 509 982 q 593 708 590 777 q 596 599 596 640 m 176 528 q 183 524 176 528 q 200 517 190 519 q 231 515 210 515 q 280 528 252 515 q 332 560 309 540 q 411 654 379 599 q 410 667 410 661 l 410 681 l 401 681 q 254 654 328 681 q 161 557 161 620 q 176 528 161 536 m 526 543 q 528 566 528 553 l 528 599 q 514 785 528 739 q 486 854 501 831 q 389 911 453 905 q 478 692 473 846 q 479 618 479 650 q 476 534 479 572 l 526 543 m 640 411 l 646 412 q 671 402 661 412 q 681 377 681 391 q 672 353 681 363 q 638 340 663 343 q 586 334 613 336 q 534 331 559 332 q 482 330 509 330 q 400 330 455 330 q 125 351 279 330 q 103 362 111 353 q 94 387 94 372 q 105 412 94 401 q 131 422 115 422 q 254 407 150 416 q 406 397 359 397 l 477 397 q 640 411 537 397 z "},"":{"ha":819,"x_min":43,"x_max":750,"o":"m 553 392 q 472 317 500 339 q 513 284 493 301 q 553 252 533 268 l 553 392 m 743 611 q 625 468 700 553 l 625 184 q 742 61 662 149 q 750 37 750 51 q 739 12 750 23 q 713 1 728 1 q 681 21 698 1 q 632 75 665 40 q 561 148 600 111 q 393 283 467 238 q 376 309 376 297 q 390 342 376 333 q 686 654 523 444 q 713 669 697 669 q 739 658 728 669 q 750 635 750 647 q 743 611 750 623 m 220 392 q 139 317 167 339 q 180 284 160 301 q 220 252 200 268 l 220 392 m 410 611 q 292 468 357 542 l 292 184 q 357 117 328 150 q 401 68 387 85 q 416 37 416 51 q 405 12 416 23 q 384 1 394 1 q 348 21 365 1 q 298 75 331 40 q 227 148 266 111 q 60 283 133 238 q 43 309 43 297 q 57 342 43 332 q 353 654 189 442 q 379 669 363 669 q 406 658 395 669 q 416 635 416 647 q 410 611 416 623 z "},"":{"ha":787,"x_min":53,"x_max":688,"o":"m 521 496 q 514 351 514 435 q 519 211 514 267 l 612 211 q 607 375 607 307 q 612 503 607 444 q 521 496 565 498 m 375 562 q 647 579 506 562 l 652 579 q 677 568 666 579 q 688 549 688 557 q 685 518 688 542 q 679 382 679 452 q 683 219 679 260 q 688 169 688 178 q 676 150 688 159 q 652 140 664 140 l 488 140 q 464 150 474 140 q 452 172 454 159 q 441 341 441 268 q 449 493 441 414 q 412 492 430 492 l 375 492 q 85 509 226 492 q 62 520 71 510 q 53 545 53 530 q 64 570 53 560 q 89 579 76 579 l 92 579 q 375 562 245 562 z "},"":{"ha":603,"x_min":93,"x_max":510,"o":"m 205 532 q 298 524 251 525 q 377 525 346 522 q 475 545 408 528 q 500 534 490 545 q 510 509 510 523 q 486 476 510 484 q 439 464 461 468 q 395 457 418 460 q 302 452 350 452 q 123 473 210 452 q 93 509 93 481 q 103 534 93 523 q 129 545 113 545 l 205 532 z "},"":{"ha":1121,"x_min":69,"x_max":1051,"o":"m 586 629 q 553 628 586 629 l 553 350 l 586 350 l 586 629 m 804 547 q 821 564 821 547 q 804 581 821 581 q 787 564 787 581 q 804 547 787 547 m 657 676 q 753 713 699 713 l 754 713 q 884 631 853 706 q 895 582 895 607 q 888 538 895 557 q 869 506 882 520 q 804 476 844 476 q 723 529 747 476 q 715 564 715 545 q 761 640 715 618 q 757 642 759 642 l 753 642 q 692 611 718 642 q 659 529 667 582 q 657 517 657 519 l 657 345 q 704 338 690 340 q 733 307 733 331 q 721 275 733 283 q 699 267 709 267 l 692 267 q 570 279 628 279 q 447 267 511 279 l 441 267 q 416 277 426 267 q 406 301 406 288 q 413 324 406 314 q 434 337 421 334 q 458 341 446 340 q 481 345 469 342 l 481 631 l 429 635 q 407 647 416 637 q 399 672 399 657 q 410 696 399 686 q 433 705 422 705 l 439 705 q 535 700 479 700 q 614 705 591 700 l 621 705 q 657 676 650 705 m 374 822 q 157 593 210 749 q 140 491 140 543 q 154 393 140 439 q 194 307 168 347 q 335 174 246 224 q 237 496 237 290 q 367 815 237 703 q 370 819 368 817 q 374 822 372 820 m 981 488 q 967 574 981 531 q 930 657 954 618 q 874 732 907 697 q 806 791 842 766 q 647 846 726 846 q 506 819 569 846 q 399 746 444 793 q 309 497 309 650 q 385 231 309 329 q 625 123 467 123 q 806 180 720 123 q 932 319 884 233 q 981 488 981 403 m 979 718 q 996 693 979 718 q 1032 610 1013 668 q 1051 486 1051 552 q 1031 361 1051 420 q 976 253 1010 302 q 893 165 941 204 q 791 100 845 127 q 559 45 677 45 q 213 175 359 45 q 87 370 122 256 q 69 503 69 427 q 108 661 69 580 q 213 802 146 741 q 369 897 280 862 q 540 932 458 932 q 683 917 622 932 q 798 874 743 902 q 899 807 852 846 q 979 718 945 767 z "},"":{"ha":476,"x_min":0,"x_max":476,"o":"m 406 942 l 406 1002 l 71 1002 l 71 942 l 406 942 m 476 905 q 466 880 476 891 q 441 869 456 869 l 35 869 q 10 880 20 869 q 0 905 0 891 l 0 1036 q 10 1062 0 1052 q 35 1072 20 1072 l 441 1072 q 466 1062 456 1072 q 476 1036 476 1052 l 476 905 z "},"":{"ha":486,"x_min":52,"x_max":432,"o":"m 230 769 q 234 776 230 769 q 242 797 238 782 q 245 826 245 812 q 240 854 245 840 q 227 879 235 868 q 184 904 206 904 q 152 896 162 904 q 134 874 141 887 q 122 829 122 851 q 125 792 122 806 q 136 766 129 777 q 175 741 152 741 q 210 749 197 741 q 230 769 222 757 m 279 928 q 317 838 317 883 q 279 715 317 760 q 353 774 332 726 q 361 819 361 793 q 354 863 361 845 q 336 894 347 881 q 279 928 315 919 m 432 821 q 418 747 432 780 q 380 690 404 713 q 241 640 328 640 q 106 691 161 640 q 52 821 52 743 q 109 952 52 900 q 241 1003 165 1003 q 379 952 326 1003 q 432 821 432 901 z "},"":{"ha":787,"x_min":69,"x_max":718,"o":"m 440 254 l 440 741 l 349 741 l 349 254 l 440 254 m 511 526 q 684 545 629 532 q 708 533 698 545 q 718 509 718 522 q 710 485 718 495 q 671 471 701 475 q 511 456 602 460 l 511 218 q 501 193 511 203 q 475 182 490 182 l 313 182 q 287 193 298 182 q 277 218 277 203 l 277 456 q 100 473 183 460 q 69 514 69 477 q 82 535 71 526 q 106 545 92 545 q 277 526 140 533 l 277 775 q 287 800 277 789 q 313 811 298 811 l 475 811 q 501 800 490 811 q 511 775 511 789 l 511 526 m 677 85 l 684 86 q 708 75 698 86 q 718 51 718 64 q 710 27 718 37 q 688 16 701 17 q 393 -5 543 -5 q 100 16 244 -5 q 78 27 86 17 q 69 51 69 37 q 80 75 69 64 q 106 86 90 86 q 229 71 125 80 q 421 61 334 61 q 677 85 509 61 z "},"":{"ha":589,"x_min":61,"x_max":519,"o":"m 397 681 q 447 796 447 734 q 397 888 447 854 q 366 904 382 899 q 415 781 415 856 q 397 681 415 728 m 165 758 q 187 729 187 749 q 176 699 187 708 q 157 689 165 689 q 90 731 121 689 q 61 816 61 768 q 83 896 61 865 q 138 949 104 928 q 285 990 203 990 q 446 939 378 990 q 519 798 519 882 q 377 576 519 667 q 296 529 334 549 q 244 500 257 509 l 254 500 q 325 492 292 500 q 381 485 358 485 q 416 488 405 485 q 437 495 428 491 q 457 507 450 500 q 479 514 464 514 q 503 503 494 514 q 513 477 513 492 q 506 456 513 463 q 491 444 499 450 q 469 431 484 438 q 402 414 432 414 q 354 416 372 414 q 320 422 337 418 q 252 429 277 429 q 143 408 196 429 q 137 407 140 407 l 131 407 q 105 417 115 407 q 94 438 94 428 q 100 463 94 449 q 119 492 106 476 q 146 522 132 508 q 176 548 161 536 q 212 574 192 559 q 256 609 232 589 q 300 652 281 628 q 343 781 343 707 q 307 860 343 830 q 222 886 273 886 q 140 852 162 886 q 132 822 132 840 q 137 791 132 804 q 149 772 142 779 q 165 758 160 758 z "},"":{"ha":600,"x_min":56,"x_max":550,"o":"m 431 507 q 479 616 479 548 q 359 762 479 719 q 290 778 326 774 l 283 772 q 433 654 397 744 q 446 595 446 625 q 431 507 446 544 m 196 711 l 184 711 q 159 723 169 711 q 150 745 150 734 q 164 777 150 765 l 342 903 l 118 903 q 93 913 103 903 q 82 938 82 923 q 93 963 82 952 q 118 974 103 974 l 453 974 q 479 963 469 974 q 489 936 489 952 q 473 908 489 920 l 368 833 q 534 699 492 795 q 550 610 550 663 q 526 513 550 557 q 461 441 501 469 q 267 385 382 385 q 123 429 183 385 q 56 554 56 477 q 60 591 56 572 q 94 625 66 625 q 121 614 111 625 q 131 589 131 602 l 131 582 q 126 549 126 568 q 136 514 126 530 q 161 486 146 497 q 228 464 192 464 q 290 472 264 464 q 335 497 316 481 q 375 578 375 532 q 358 648 375 625 q 314 686 340 672 q 196 711 266 711 z "},"":{"ha":431,"x_min":0,"x_max":431,"o":"m 301 1097 l 229 1097 l 163 972 l 301 1097 m 395 1168 q 420 1157 410 1168 q 431 1131 431 1147 q 418 1105 431 1116 l 60 785 q 35 777 50 777 q 10 787 20 777 q 0 809 0 798 q 4 828 0 821 l 176 1150 q 208 1168 187 1168 l 395 1168 z "},"":{"ha":1018,"x_min":58,"x_max":974,"o":"m 656 694 q 777 689 692 689 q 937 708 861 689 q 963 697 953 708 q 974 673 974 686 q 966 650 974 660 q 940 636 958 640 q 897 629 921 632 q 850 623 873 626 l 839 61 q 924 58 898 61 q 968 21 968 52 q 957 -6 968 4 q 933 -16 946 -16 l 929 -16 q 803 -9 880 -9 q 639 -29 726 -9 l 632 -29 q 607 -19 617 -29 q 596 5 596 -8 l 596 7 l 600 131 q 374 -29 513 -29 q 201 57 257 -29 l 201 -1 q 212 -306 201 -166 l 212 -309 q 203 -333 212 -322 q 179 -345 194 -345 q 154 -335 165 -345 q 142 -311 143 -326 q 131 -61 131 -184 q 133 123 131 62 q 140 239 136 184 q 163 452 150 394 q 183 536 176 510 q 215 621 199 591 l 93 624 q 68 635 79 625 q 58 659 58 645 q 68 684 58 673 q 94 694 79 694 l 273 690 q 298 679 288 688 q 309 659 309 669 q 305 641 309 646 q 295 621 302 635 q 279 581 288 606 q 258 522 269 555 q 238 449 248 488 q 216 283 216 359 q 372 41 216 41 q 518 134 456 41 q 607 389 581 227 l 615 661 q 627 685 615 676 q 652 694 639 694 l 656 694 m 765 616 l 738 616 q 686 619 718 616 l 668 49 q 768 60 719 57 l 779 618 q 765 616 772 616 z "},"":{"ha":1006,"x_min":49,"x_max":954,"o":"m 568 353 l 566 925 l 519 925 q 119 627 119 909 q 308 370 119 442 q 454 342 382 342 q 568 353 526 342 m 733 918 q 636 925 689 922 l 642 69 l 732 69 l 733 918 m 570 281 q 472 271 526 271 q 366 281 418 271 q 267 312 314 292 q 180 363 220 333 q 111 434 140 394 q 49 628 49 519 q 136 859 49 770 q 579 997 272 997 q 906 958 782 997 q 935 948 929 951 q 948 937 941 946 q 954 915 954 927 q 943 891 954 902 q 922 880 932 880 q 903 884 913 880 q 880 891 893 888 q 804 908 840 902 l 803 66 q 853 62 828 64 q 898 58 879 60 q 927 46 918 56 q 936 22 936 36 q 925 -2 936 7 q 900 -12 913 -12 l 896 -12 q 685 -1 791 -1 q 469 -12 579 -1 l 465 -12 q 440 -2 450 -12 q 431 22 431 9 q 439 46 431 36 q 469 58 448 56 q 571 66 496 61 l 570 281 z "},"":{"ha":355,"x_min":74,"x_max":282,"o":"m 178 443 q 201 453 191 443 q 211 476 211 463 q 201 499 211 489 q 178 509 191 509 q 155 499 164 509 q 146 476 146 489 q 155 453 146 463 q 178 443 164 443 m 282 476 q 274 435 282 454 q 252 403 266 416 q 178 372 220 372 q 104 403 136 372 q 74 476 74 432 q 104 549 74 519 q 178 579 136 579 q 252 549 220 579 q 282 476 282 519 z "},"":{"ha":379,"x_min":0,"x_max":379,"o":"m 252 -236 q 204 -345 252 -307 q 281 -316 253 -340 q 309 -251 309 -291 q 288 -188 309 -212 q 231 -157 267 -163 q 252 -236 252 -193 m 122 -161 l 106 -163 q 80 -151 90 -163 q 71 -130 71 -140 q 74 -113 71 -119 l 132 26 q 161 49 141 49 q 191 38 181 49 q 201 18 201 26 q 199 0 201 7 l 163 -82 l 189 -82 q 324 -127 270 -82 q 379 -250 379 -174 q 324 -374 379 -330 q 195 -416 273 -416 q 12 -349 90 -416 q 0 -322 0 -338 q 12 -297 0 -307 q 31 -286 24 -286 q 50 -289 42 -286 q 116 -301 82 -301 q 165 -286 151 -301 q 180 -246 180 -270 q 176 -209 180 -222 q 165 -185 172 -196 q 122 -161 149 -161 z "},"":{"ha":460,"x_min":64,"x_max":410,"o":"m 261 872 q 222 840 240 854 l 222 493 l 261 493 l 261 872 m 368 411 q 240 422 295 422 q 113 411 186 422 l 107 411 q 82 421 92 411 q 72 446 72 432 q 80 469 72 459 q 102 481 89 479 q 151 488 125 485 l 151 785 q 117 761 124 766 q 97 755 109 755 q 74 767 84 755 q 64 794 64 778 q 79 821 64 810 q 167 886 90 821 q 272 979 244 951 q 299 989 285 989 q 322 978 313 989 q 332 953 332 966 l 332 488 q 376 481 359 484 q 410 446 410 476 q 385 413 410 420 q 374 411 379 411 l 368 411 z "},"":{"ha":692,"x_min":86,"x_max":610,"o":"m 610 726 q 589 620 610 669 q 532 536 568 572 q 349 463 456 463 q 157 535 228 463 q 86 728 86 607 q 162 920 86 842 q 349 996 237 996 q 537 916 462 996 q 610 726 610 839 m 269 733 q 378 533 274 533 q 500 594 454 533 q 545 728 545 650 q 502 858 545 799 q 392 921 457 921 q 294 856 326 921 q 269 733 269 806 m 236 557 q 203 733 203 626 q 237 899 203 838 q 153 728 153 846 q 236 557 153 602 m 568 411 l 574 412 q 598 402 588 412 q 608 377 608 391 q 600 353 608 363 q 566 340 591 343 q 514 334 541 336 q 462 331 487 332 q 410 330 437 330 q 346 330 382 330 q 209 338 265 330 q 128 349 153 346 q 86 386 86 355 q 96 412 86 401 q 122 422 106 422 q 203 410 133 419 q 337 397 293 397 l 404 397 q 568 411 465 397 z "},"":{"ha":819,"x_min":69,"x_max":777,"o":"m 347 317 q 265 392 312 345 l 265 252 q 347 317 315 292 m 681 317 q 599 392 646 345 l 599 252 q 681 317 648 292 m 428 342 q 443 316 443 334 q 427 283 443 298 q 132 14 289 199 q 105 1 121 1 q 79 13 90 1 q 69 38 69 25 q 84 68 69 52 q 195 184 150 141 l 195 468 q 104 575 136 533 q 71 622 72 616 q 69 638 69 627 q 80 659 69 648 q 106 669 91 669 q 139 647 122 669 q 190 584 157 625 q 261 500 222 544 q 428 342 352 400 m 761 342 q 777 315 777 333 q 760 283 777 297 q 465 14 622 199 q 438 1 454 1 q 413 13 422 1 q 403 38 403 25 q 418 68 403 51 q 528 184 465 123 l 528 468 q 437 575 469 533 q 404 622 406 616 q 403 638 403 627 q 413 659 403 648 q 440 669 424 669 q 473 647 456 669 q 523 584 490 625 q 594 500 555 544 q 761 342 685 400 z "},"":{"ha":1117,"x_min":61,"x_max":1071,"o":"m 258 872 q 220 840 237 854 l 220 493 l 258 493 l 258 872 m 366 411 q 238 422 292 422 q 110 411 183 422 l 104 411 q 79 421 89 411 q 69 446 69 432 q 78 469 69 459 q 99 481 86 479 q 149 488 123 485 l 149 785 q 114 761 121 766 q 94 755 106 755 q 71 767 81 755 q 61 794 61 778 q 77 821 61 810 q 164 886 87 821 q 269 979 241 951 q 296 989 282 989 q 319 978 310 989 q 329 953 329 966 l 329 488 q 373 481 356 484 q 407 446 407 476 q 382 413 407 420 q 371 411 376 411 l 366 411 m 774 1018 q 800 1007 789 1018 q 810 984 810 996 q 784 919 810 972 q 719 784 758 865 q 641 629 679 703 q 564 485 602 555 q 480 338 525 414 q 264 -14 410 219 q 236 -28 251 -28 q 210 -17 220 -28 q 200 7 200 -5 q 205 28 200 19 q 736 996 538 545 q 770 1018 747 1018 l 774 1018 m 918 469 q 879 457 898 462 l 879 68 l 918 68 l 918 469 m 1051 201 q 990 160 1051 160 l 990 64 q 1061 46 1052 57 q 1071 20 1071 35 q 1059 -4 1071 5 q 1035 -14 1046 -14 l 1029 -14 q 771 -14 901 9 l 765 -14 q 739 -3 749 -14 q 729 21 729 7 q 738 45 729 35 q 759 57 746 55 q 785 60 772 59 q 808 64 797 62 l 808 153 l 799 153 q 576 163 684 153 q 554 175 563 164 q 545 199 545 186 q 564 234 545 212 q 602 288 584 256 q 631 349 621 319 q 648 431 648 399 q 644 492 648 473 q 640 513 640 511 l 640 518 q 651 544 640 533 q 681 554 661 554 q 710 529 700 554 q 715 505 710 527 q 721 447 721 484 q 648 229 721 334 q 799 224 709 224 l 808 224 l 808 489 q 839 521 808 516 q 936 557 892 531 q 957 561 945 561 q 980 550 970 561 q 990 525 990 538 l 990 232 l 995 232 q 1013 233 1002 232 l 1017 233 q 1041 225 1030 233 q 1051 201 1051 216 z "},"":{"ha":1104,"x_min":54,"x_max":1054,"o":"m 252 872 q 212 840 238 861 l 212 493 l 252 493 l 252 872 m 358 411 q 231 422 285 422 q 103 411 176 422 l 97 411 q 72 421 81 411 q 62 446 62 432 q 71 469 62 459 q 92 481 79 479 q 142 488 119 485 l 142 785 q 107 761 115 766 q 87 755 100 755 q 64 767 75 755 q 54 794 54 778 q 69 821 54 810 q 157 886 80 821 q 262 979 235 951 q 289 989 274 989 q 313 978 303 989 q 322 953 322 966 l 322 488 q 366 481 349 484 q 400 446 400 476 q 376 413 400 420 q 364 411 370 411 l 358 411 m 766 1018 q 792 1007 782 1018 q 803 984 803 996 q 777 919 803 972 q 712 784 751 865 q 634 629 672 703 q 557 485 595 555 q 473 338 518 414 q 257 -14 404 219 q 229 -28 244 -28 q 203 -17 214 -28 q 193 7 193 -5 q 199 28 193 19 q 729 996 532 545 q 762 1018 741 1018 l 766 1018 m 932 260 q 982 375 982 314 q 932 467 982 434 q 900 484 917 477 q 950 359 950 435 q 932 260 950 304 m 700 338 q 722 308 722 328 q 711 278 722 288 q 692 268 700 268 q 625 311 657 268 q 596 396 596 347 q 618 476 596 444 q 673 528 640 507 q 819 570 737 570 q 981 518 911 570 q 1054 376 1054 463 q 911 156 1054 247 q 845 117 872 131 q 779 79 801 93 l 789 79 q 846 74 816 79 q 921 64 903 64 q 951 67 939 64 q 971 73 963 70 q 991 86 983 79 q 1014 93 999 93 q 1038 82 1028 93 q 1047 56 1047 71 q 1041 35 1047 41 q 1026 23 1034 28 q 1004 11 1018 17 q 889 -4 952 -13 q 854 1 871 -2 q 785 8 808 8 q 677 -12 730 8 q 671 -14 674 -14 l 665 -14 q 640 -3 650 -14 q 629 18 629 7 q 635 41 629 28 q 654 71 642 55 q 681 100 667 87 q 732 143 698 117 q 791 188 767 168 q 834 232 815 208 q 878 359 878 286 q 841 439 878 410 q 757 465 808 465 q 674 431 696 465 q 667 401 667 419 q 672 370 667 382 q 683 351 677 358 q 700 338 694 338 z "},"":{"ha":1208,"x_min":56,"x_max":1162,"o":"m 431 507 q 479 616 479 548 q 359 762 479 719 q 290 778 326 774 l 283 772 q 433 654 397 744 q 446 595 446 625 q 431 507 446 544 m 196 711 l 184 711 q 159 723 169 711 q 150 745 150 734 q 164 777 150 765 l 342 903 l 118 903 q 93 913 103 903 q 82 938 82 923 q 93 963 82 952 q 118 974 103 974 l 453 974 q 479 963 469 974 q 489 936 489 952 q 473 908 489 920 l 368 833 q 534 699 492 795 q 550 610 550 663 q 526 513 550 557 q 461 441 501 469 q 267 385 382 385 q 123 429 183 385 q 56 554 56 477 q 60 591 56 572 q 94 625 66 625 q 121 614 111 625 q 131 589 131 602 l 131 582 q 126 549 126 568 q 136 514 126 530 q 161 486 146 497 q 228 464 192 464 q 290 472 264 464 q 335 497 316 481 q 375 578 375 532 q 358 648 375 625 q 314 686 340 672 q 196 711 266 711 m 865 1018 q 891 1007 881 1018 q 901 984 901 996 q 876 919 901 972 q 810 784 850 865 q 732 629 770 703 q 655 485 694 555 q 572 338 616 414 q 355 -14 502 219 q 327 -28 342 -28 q 302 -17 312 -28 q 292 7 292 -5 q 297 28 292 19 q 828 996 628 542 q 861 1018 839 1018 l 865 1018 m 1010 469 q 971 457 989 462 l 971 68 l 1010 68 l 1010 469 m 1143 201 q 1082 160 1143 160 l 1082 64 q 1126 58 1107 61 q 1154 45 1145 55 q 1162 20 1162 35 q 1150 -4 1162 5 q 1126 -14 1138 -14 l 1121 -14 q 863 -14 992 9 l 857 -14 q 831 -3 842 -14 q 821 21 821 7 q 829 45 821 35 q 851 57 838 55 q 876 60 864 59 q 900 64 888 62 l 900 153 l 890 153 q 668 163 774 153 q 645 175 654 164 q 636 199 636 186 q 656 234 636 212 q 694 288 675 256 q 723 349 713 319 q 741 431 741 399 q 736 490 741 470 q 732 513 732 511 l 732 518 q 742 544 732 533 q 773 554 753 554 q 802 529 793 554 q 807 505 802 527 q 812 447 812 484 q 741 229 812 332 q 890 224 800 224 l 900 224 l 900 489 q 930 521 900 515 q 1028 557 985 531 q 1049 561 1036 561 q 1072 550 1061 561 q 1082 525 1082 538 l 1082 232 l 1086 232 q 1104 233 1093 232 l 1108 233 q 1133 225 1122 233 q 1143 201 1143 216 z "},"":{"ha":765,"x_min":46,"x_max":724,"o":"m 437 707 q 415 697 424 707 q 406 674 406 687 q 415 651 406 661 q 437 642 424 642 q 461 651 451 642 q 471 674 471 661 q 461 697 471 687 q 437 707 451 707 m 257 243 q 117 24 117 159 q 217 -146 117 -85 q 289 -178 249 -165 q 205 32 205 -101 q 257 243 205 161 m 334 673 q 364 747 334 717 q 437 778 395 778 q 511 747 480 778 q 542 673 542 716 q 511 601 542 631 q 448 571 479 571 q 397 579 416 571 q 364 601 378 587 q 334 673 334 630 m 489 505 l 490 482 q 390 289 490 380 q 348 246 368 268 q 311 195 327 224 q 277 32 277 131 q 339 -125 277 -64 q 490 -184 400 -184 q 602 -136 551 -184 q 653 -29 653 -87 q 640 31 653 12 q 622 55 627 50 q 610 63 616 59 q 593 91 593 75 q 603 118 593 108 q 626 129 613 129 q 645 125 640 129 q 662 113 650 121 q 688 87 673 105 q 724 -23 724 41 q 695 -133 724 -88 q 623 -208 667 -178 q 419 -267 534 -267 q 151 -186 255 -267 q 46 24 46 -104 q 141 243 46 157 q 241 316 193 291 q 316 355 289 341 q 363 380 344 368 q 395 405 383 391 q 418 484 418 430 l 418 501 q 427 526 418 515 q 451 537 437 536 q 477 528 466 538 q 489 505 488 519 z "},"":{"ha":1140,"x_min":-32,"x_max":1178,"o":"m 278 357 q 465 343 399 343 q 679 357 566 343 q 479 770 604 585 q 278 357 354 557 m 838 75 l 895 77 l 916 77 q 936 75 926 77 q 572 918 816 587 l 519 836 q 745 386 659 645 q 838 75 824 138 m 357 -16 q 180 5 287 5 q 4 -16 74 5 q -22 -5 -12 -16 q -32 20 -32 6 q -3 56 -32 48 q 121 74 44 68 q 541 999 210 509 q 565 1014 551 1014 q 597 1002 588 1014 q 1010 72 880 642 q 1147 56 1079 66 q 1170 43 1161 54 q 1178 20 1178 33 q 1166 -5 1178 6 q 1147 -16 1154 -16 q 1106 -9 1138 -16 q 779 0 975 14 q 692 -9 721 -4 q 661 -15 663 -15 q 652 -16 660 -16 q 633 -4 644 -16 q 623 20 623 7 q 631 43 623 33 q 660 57 640 54 q 708 64 680 61 q 765 71 736 67 q 701 289 735 184 q 481 272 581 272 q 253 289 382 272 q 195 77 217 182 q 366 56 281 74 q 386 43 378 54 q 393 19 393 33 q 381 -5 393 5 q 357 -16 370 -16 m 403 1249 l 336 1374 l 264 1374 l 403 1249 m 147 1382 q 135 1408 135 1392 q 145 1434 135 1423 q 171 1444 155 1444 l 357 1444 q 389 1427 378 1444 l 562 1105 q 566 1086 566 1097 q 555 1064 566 1074 q 531 1053 545 1053 q 506 1061 516 1053 l 147 1382 z "},"":{"ha":1140,"x_min":-32,"x_max":1178,"o":"m 278 357 q 465 343 399 343 q 679 357 566 343 q 479 770 604 585 q 278 357 354 557 m 838 75 l 895 77 l 916 77 q 936 75 926 77 q 572 918 816 587 l 519 836 q 745 386 659 645 q 838 75 824 138 m 357 -16 q 180 5 287 5 q 4 -16 74 5 q -22 -5 -12 -16 q -32 20 -32 6 q -3 56 -32 48 q 121 74 44 68 q 541 999 210 509 q 565 1014 551 1014 q 597 1002 588 1014 q 1010 72 880 642 q 1147 56 1079 66 q 1170 43 1161 54 q 1178 20 1178 33 q 1166 -5 1178 6 q 1147 -16 1154 -16 q 1106 -9 1138 -16 q 779 0 975 14 q 692 -9 721 -4 q 661 -15 663 -15 q 652 -16 660 -16 q 633 -4 644 -16 q 623 20 623 7 q 631 43 623 33 q 660 57 640 54 q 708 64 680 61 q 765 71 736 67 q 701 289 735 184 q 481 272 581 272 q 253 289 382 272 q 195 77 217 182 q 366 56 281 74 q 386 43 378 54 q 393 19 393 33 q 381 -5 393 5 q 357 -16 370 -16 m 863 1369 l 791 1369 l 725 1244 l 863 1369 m 957 1440 q 983 1429 972 1440 q 993 1403 993 1419 q 980 1377 993 1388 l 622 1057 q 597 1048 612 1048 q 572 1059 583 1048 q 562 1081 562 1069 q 566 1100 562 1093 l 739 1422 q 770 1440 749 1440 l 957 1440 z "},"":{"ha":1140,"x_min":-32,"x_max":1178,"o":"m 278 357 q 465 343 399 343 q 679 357 566 343 q 479 770 604 585 q 278 357 354 557 m 838 75 l 895 77 l 916 77 q 936 75 926 77 q 572 918 816 587 l 519 836 q 745 386 659 645 q 838 75 824 138 m 357 -16 q 180 5 287 5 q 4 -16 74 5 q -22 -5 -12 -16 q -32 20 -32 6 q -3 56 -32 48 q 121 74 44 68 q 541 999 210 509 q 565 1014 551 1014 q 597 1002 588 1014 q 1010 72 880 642 q 1147 56 1079 66 q 1170 43 1161 54 q 1178 20 1178 33 q 1166 -5 1178 6 q 1147 -16 1154 -16 q 1106 -9 1138 -16 q 779 0 975 14 q 692 -9 721 -4 q 661 -15 663 -15 q 652 -16 660 -16 q 633 -4 644 -16 q 623 20 623 7 q 631 43 623 33 q 660 57 640 54 q 708 64 680 61 q 765 71 736 67 q 701 289 735 184 q 481 272 581 272 q 253 289 382 272 q 195 77 217 182 q 366 56 281 74 q 386 43 378 54 q 393 19 393 33 q 381 -5 393 5 q 357 -16 370 -16 m 743 1095 l 568 1305 l 530 1250 l 665 1095 l 743 1095 m 648 1023 q 622 1036 633 1023 l 489 1190 l 386 1039 q 358 1023 375 1023 q 331 1035 341 1023 q 321 1059 321 1046 q 326 1079 321 1072 l 536 1385 q 564 1400 545 1400 q 593 1388 583 1400 l 846 1082 q 854 1058 854 1072 q 842 1034 854 1044 q 818 1023 831 1023 l 648 1023 z "},"":{"ha":1141,"x_min":-32,"x_max":1178,"o":"m 278 357 q 465 343 399 343 q 679 357 566 343 q 479 770 604 585 q 278 357 354 557 m 838 75 l 895 77 l 916 77 q 936 75 926 77 q 572 918 816 587 l 519 836 q 745 386 659 645 q 838 75 824 138 m 357 -16 q 180 5 287 5 q 4 -16 74 5 q -22 -5 -12 -16 q -32 20 -32 6 q -3 56 -32 48 q 121 74 44 68 q 541 999 210 509 q 565 1014 551 1014 q 597 1002 588 1014 q 1010 72 880 642 q 1147 56 1079 66 q 1170 43 1161 54 q 1178 20 1178 33 q 1166 -5 1178 6 q 1147 -16 1154 -16 q 1106 -9 1138 -16 q 779 0 975 14 q 692 -9 721 -4 q 661 -15 663 -15 q 652 -16 660 -16 q 633 -4 644 -16 q 623 20 623 7 q 631 43 623 33 q 660 57 640 54 q 708 64 680 61 q 765 71 736 67 q 701 289 735 184 q 481 272 581 272 q 253 289 382 272 q 195 77 217 182 q 366 56 281 74 q 386 43 378 54 q 393 19 393 33 q 381 -5 393 5 q 357 -16 370 -16 m 751 1144 q 706 1135 730 1135 q 666 1143 682 1135 q 638 1166 650 1152 q 607 1216 623 1183 q 581 1269 591 1250 q 557 1303 571 1289 q 480 1335 526 1335 q 410 1307 433 1335 q 417 1308 413 1308 l 427 1308 q 528 1242 488 1308 q 562 1184 542 1221 q 596 1129 582 1147 q 665 1088 629 1088 q 751 1144 722 1088 m 791 1383 q 836 1214 836 1311 q 789 1075 836 1133 q 669 1015 739 1015 q 520 1118 584 1015 q 480 1185 489 1166 q 465 1214 471 1204 q 428 1238 448 1238 q 399 1228 408 1238 q 387 1202 390 1218 q 387 1168 385 1187 q 393 1131 389 1149 q 410 1082 404 1093 q 421 1055 421 1067 q 410 1033 421 1043 q 384 1022 399 1022 q 355 1040 368 1022 q 333 1082 342 1058 q 318 1130 323 1105 q 310 1214 310 1170 q 322 1293 310 1258 q 355 1353 334 1328 q 471 1406 400 1406 q 642 1306 591 1406 q 667 1256 655 1280 q 704 1206 690 1206 q 728 1212 719 1206 q 744 1229 738 1219 q 754 1270 754 1247 q 734 1340 754 1312 q 725 1362 725 1348 q 736 1387 725 1377 q 759 1397 748 1397 q 791 1383 776 1397 z "},"":{"ha":1141,"x_min":-32,"x_max":1178,"o":"m 278 357 q 465 343 399 343 q 679 357 566 343 q 479 770 604 585 q 278 357 354 557 m 838 75 l 895 77 l 916 77 q 936 75 926 77 q 572 918 816 587 l 519 836 q 745 386 659 645 q 838 75 824 138 m 357 -16 q 180 5 287 5 q 4 -16 74 5 q -22 -5 -12 -16 q -32 20 -32 6 q -3 56 -32 48 q 121 74 44 68 q 541 999 210 509 q 565 1014 551 1014 q 597 1002 588 1014 q 1010 72 880 642 q 1147 56 1079 66 q 1170 43 1161 54 q 1178 20 1178 33 q 1166 -5 1178 6 q 1147 -16 1154 -16 q 1106 -9 1138 -16 q 779 0 975 14 q 692 -9 721 -4 q 661 -15 663 -15 q 652 -16 660 -16 q 633 -4 644 -16 q 623 20 623 7 q 631 43 623 33 q 660 57 640 54 q 708 64 680 61 q 765 71 736 67 q 701 289 735 184 q 481 272 581 272 q 253 289 382 272 q 195 77 217 182 q 366 56 281 74 q 386 43 378 54 q 393 19 393 33 q 381 -5 393 5 q 357 -16 370 -16 m 457 1095 q 448 1118 457 1108 q 425 1128 439 1128 q 401 1118 412 1128 q 391 1095 391 1108 q 401 1072 391 1081 q 425 1062 412 1062 q 448 1072 439 1062 q 457 1095 457 1081 m 754 1095 q 744 1118 754 1108 q 721 1128 734 1128 q 698 1118 707 1128 q 689 1095 689 1108 q 698 1072 689 1081 q 721 1062 707 1062 q 744 1072 734 1062 q 754 1095 754 1081 m 529 1095 q 521 1054 529 1073 q 498 1021 513 1035 q 436 990 468 990 q 385 998 404 990 q 351 1021 366 1006 q 321 1095 321 1051 q 351 1168 321 1137 q 425 1198 382 1198 q 498 1168 468 1198 q 529 1095 529 1137 m 721 990 q 648 1021 677 990 q 618 1095 618 1052 q 648 1168 618 1137 q 721 1198 677 1198 q 794 1168 765 1198 q 825 1105 825 1137 q 795 1021 825 1052 q 721 990 765 990 z "},"":{"ha":1143,"x_min":-31,"x_max":1179,"o":"m 279 357 q 466 343 400 343 q 681 357 566 343 q 481 770 606 583 q 279 357 355 557 m 839 75 l 896 77 l 917 77 q 937 75 927 77 q 574 918 817 587 l 521 836 q 746 386 661 645 q 839 75 825 138 m 450 1176 q 443 1158 450 1176 q 435 1112 435 1140 q 438 1065 435 1084 q 450 1031 442 1046 q 504 994 469 994 q 564 1034 542 994 q 582 1094 582 1065 q 559 1178 582 1145 q 501 1211 536 1211 q 450 1176 466 1211 m 597 1243 q 653 1105 653 1189 q 597 961 653 1013 q 683 1004 652 968 q 713 1101 713 1040 q 682 1198 713 1161 q 597 1243 650 1236 m 358 -16 q 182 5 288 5 q 5 -16 75 5 q -20 -5 -10 -16 q -31 20 -31 6 q -1 56 -31 48 q 122 74 45 68 q 482 907 205 477 q 372 1040 398 947 q 364 1108 364 1069 q 380 1186 364 1147 q 425 1254 397 1225 q 574 1315 486 1315 q 725 1256 666 1315 q 785 1101 785 1196 q 754 980 785 1031 q 668 905 723 929 q 1011 72 896 572 q 1132 58 1101 63 q 1179 21 1179 51 q 1167 -5 1179 6 q 1147 -16 1156 -16 q 1107 -9 1139 -16 q 780 0 977 14 q 693 -9 722 -4 q 663 -15 664 -15 q 653 -16 661 -16 q 634 -4 645 -16 q 624 20 624 7 q 632 43 624 33 q 661 57 641 54 q 709 64 682 61 q 766 71 737 67 q 703 289 736 184 q 483 272 583 272 q 254 289 383 272 q 196 77 218 182 q 367 56 282 74 q 387 43 379 54 q 395 19 395 33 q 383 -5 395 5 q 358 -16 371 -16 z "},"":{"ha":1418,"x_min":-28,"x_max":1368,"o":"m 357 -16 q 180 5 287 5 q 4 -16 74 5 q -20 -5 -12 -16 q -28 20 -29 6 q 5 56 -25 48 q 131 74 52 67 q 453 722 234 400 q 627 957 530 833 q 657 972 640 972 q 1270 1000 1063 972 l 1275 1000 q 1298 991 1289 1000 q 1310 970 1308 982 l 1339 741 l 1339 736 q 1328 711 1339 720 q 1303 701 1316 701 q 1280 710 1290 701 q 1268 732 1270 718 l 1243 925 q 1086 913 1164 914 q 926 907 1008 911 l 926 450 q 1154 472 1071 456 l 1161 472 q 1186 461 1176 472 q 1197 437 1197 451 q 1168 401 1197 409 q 926 379 1088 386 l 926 71 l 946 71 q 1272 61 1127 71 l 1297 243 q 1309 265 1299 256 q 1334 273 1319 273 q 1358 262 1349 273 q 1368 239 1368 250 l 1368 233 l 1339 18 q 1326 -4 1337 5 q 1303 -12 1316 -12 l 1301 -12 q 945 0 1120 0 q 606 -12 770 0 l 603 -12 q 577 -1 587 -11 q 567 23 567 8 q 576 47 567 37 q 604 59 585 57 q 644 61 622 60 q 688 64 666 62 l 688 286 q 492 272 571 272 q 285 289 412 272 q 204 77 243 192 q 374 56 292 74 q 392 43 385 54 q 397 19 399 33 q 382 -5 395 5 q 357 -16 370 -16 m 688 900 l 669 903 q 357 434 525 743 q 317 357 333 391 q 504 343 425 343 q 688 354 583 343 l 688 900 m 856 904 q 758 901 807 901 l 758 68 l 856 71 l 856 904 z "},"":{"ha":1026,"x_min":68,"x_max":993,"o":"m 564 -29 l 526 -28 l 503 -82 l 529 -82 q 665 -127 610 -82 q 720 -250 720 -174 q 665 -374 720 -330 q 534 -416 614 -416 q 353 -349 430 -416 q 340 -322 340 -338 q 352 -297 340 -307 q 372 -286 363 -286 q 390 -289 382 -286 q 456 -301 422 -301 q 506 -286 491 -301 q 521 -246 521 -270 q 517 -209 521 -222 q 505 -185 513 -196 q 463 -161 489 -161 l 446 -163 q 420 -151 430 -163 q 411 -132 411 -140 q 414 -113 411 -119 l 453 -18 q 170 141 271 14 q 68 464 68 269 q 237 892 68 751 q 586 1011 380 1011 q 886 879 775 1011 l 924 986 q 952 1011 932 1011 q 982 1000 972 1011 q 993 979 993 989 q 990 964 993 969 l 882 648 q 854 625 875 625 q 823 637 833 625 q 812 657 812 648 q 815 671 812 665 l 859 798 q 705 924 801 890 q 626 935 673 935 q 530 916 578 935 q 445 864 481 897 q 383 788 409 831 q 342 694 357 744 q 311 489 311 601 q 363 199 311 324 q 564 41 429 41 q 773 107 682 41 q 901 281 865 172 q 930 309 909 309 q 961 297 951 309 q 971 272 971 286 l 971 264 q 967 250 970 262 q 955 218 963 238 q 746 9 890 73 q 564 -29 659 -29 m 372 892 q 139 464 139 777 q 260 147 139 255 q 355 82 300 111 q 240 489 240 222 q 372 892 240 754 m 591 -236 q 545 -345 591 -307 q 621 -316 593 -340 q 648 -251 648 -291 q 627 -188 648 -212 q 571 -157 606 -163 q 591 -236 591 -193 z "},"":{"ha":916,"x_min":57,"x_max":865,"o":"m 353 895 q 256 892 305 892 l 256 68 q 304 69 279 69 q 353 71 329 69 l 353 895 m 443 71 q 770 61 625 71 l 794 243 q 807 265 797 256 q 831 273 817 273 q 856 262 846 273 q 865 239 865 250 l 865 233 l 836 18 q 824 -4 834 5 q 800 -12 814 -12 l 799 -12 q 441 0 616 0 q 103 -12 267 0 l 100 -12 q 74 -1 84 -11 q 64 23 64 8 q 73 47 64 37 q 101 59 83 57 q 141 61 119 60 q 184 64 163 62 l 184 890 q 141 892 163 892 l 98 892 q 74 903 84 893 q 64 928 64 913 q 75 953 64 943 q 105 963 85 964 q 149 962 125 962 l 197 962 q 766 1000 484 962 l 772 1000 q 795 991 786 1000 q 807 970 805 982 l 836 741 l 836 736 q 825 711 836 720 q 801 701 814 701 q 778 710 787 701 q 765 732 768 718 l 741 925 q 424 897 606 907 l 424 450 q 652 472 570 456 l 659 472 q 684 461 673 472 q 694 437 694 451 q 665 401 694 409 q 424 379 585 386 l 424 71 l 443 71 m 325 1199 l 258 1324 l 186 1324 l 325 1199 m 69 1332 q 57 1358 57 1342 q 67 1384 57 1373 q 93 1394 77 1394 l 279 1394 q 311 1377 300 1394 l 484 1055 q 488 1036 488 1047 q 477 1014 488 1024 q 453 1003 467 1003 q 428 1011 438 1003 l 69 1332 z "},"":{"ha":916,"x_min":64,"x_max":865,"o":"m 353 895 q 256 892 305 892 l 256 68 q 304 69 279 69 q 353 71 329 69 l 353 895 m 443 71 q 770 61 625 71 l 794 243 q 807 265 797 256 q 831 273 817 273 q 856 262 846 273 q 865 239 865 250 l 865 233 l 836 18 q 824 -4 834 5 q 800 -12 814 -12 l 799 -12 q 441 0 616 0 q 103 -12 267 0 l 100 -12 q 74 -1 84 -11 q 64 23 64 8 q 73 47 64 37 q 101 59 83 57 q 141 61 119 60 q 184 64 163 62 l 184 890 q 141 892 163 892 l 98 892 q 74 903 84 893 q 64 928 64 913 q 75 953 64 943 q 105 963 85 964 q 149 962 125 962 l 197 962 q 766 1000 484 962 l 772 1000 q 795 991 786 1000 q 807 970 805 982 l 836 741 l 836 736 q 825 711 836 720 q 801 701 814 701 q 778 710 787 701 q 765 732 768 718 l 741 925 q 424 897 606 907 l 424 450 q 652 472 570 456 l 659 472 q 684 461 673 472 q 694 437 694 451 q 665 401 694 409 q 424 379 585 386 l 424 71 l 443 71 m 707 1317 l 635 1317 l 568 1192 l 707 1317 m 800 1388 q 826 1377 816 1388 q 836 1351 836 1367 q 823 1325 836 1335 l 465 1004 q 440 996 455 996 q 416 1007 426 996 q 406 1029 406 1017 q 410 1048 406 1040 l 582 1370 q 614 1388 593 1388 l 800 1388 z "},"":{"ha":916,"x_min":64,"x_max":865,"o":"m 353 895 q 256 892 305 892 l 256 68 q 304 69 279 69 q 353 71 329 69 l 353 895 m 443 71 q 770 61 625 71 l 794 243 q 807 265 797 256 q 831 273 817 273 q 856 262 846 273 q 865 239 865 250 l 865 233 l 836 18 q 824 -4 834 5 q 800 -12 814 -12 l 799 -12 q 441 0 616 0 q 103 -12 267 0 l 100 -12 q 74 -1 84 -11 q 64 23 64 8 q 73 47 64 37 q 101 59 83 57 q 141 61 119 60 q 184 64 163 62 l 184 890 q 141 892 163 892 l 98 892 q 74 903 84 893 q 64 928 64 913 q 75 953 64 943 q 105 963 85 964 q 149 962 125 962 l 197 962 q 766 1000 484 962 l 772 1000 q 795 991 786 1000 q 807 970 805 982 l 836 741 l 836 736 q 825 711 836 720 q 801 701 814 701 q 778 710 787 701 q 765 732 768 718 l 741 925 q 424 897 606 907 l 424 450 q 652 472 570 456 l 659 472 q 684 461 673 472 q 694 437 694 451 q 665 401 694 409 q 424 379 585 386 l 424 71 l 443 71 m 620 1088 l 445 1299 l 407 1243 l 542 1088 l 620 1088 m 525 1017 q 498 1029 509 1017 l 366 1183 l 262 1032 q 235 1017 252 1017 q 208 1028 218 1017 q 197 1052 197 1040 q 203 1072 197 1065 l 412 1378 q 440 1393 422 1393 q 469 1381 459 1393 l 722 1075 q 730 1051 730 1065 q 719 1027 730 1038 q 694 1017 707 1017 l 525 1017 z "},"":{"ha":916,"x_min":64,"x_max":865,"o":"m 353 895 q 256 892 305 892 l 256 68 q 304 69 279 69 q 353 71 329 69 l 353 895 m 443 71 q 770 61 625 71 l 794 243 q 807 265 797 256 q 831 273 817 273 q 856 262 846 273 q 865 239 865 250 l 865 233 l 836 18 q 824 -4 834 5 q 800 -12 814 -12 l 799 -12 q 441 0 616 0 q 103 -12 267 0 l 100 -12 q 74 -1 84 -11 q 64 23 64 8 q 73 47 64 37 q 101 59 83 57 q 141 61 119 60 q 184 64 163 62 l 184 890 q 141 892 163 892 l 98 892 q 74 903 84 893 q 64 928 64 913 q 75 953 64 943 q 105 963 85 964 q 149 962 125 962 l 197 962 q 766 1000 484 962 l 772 1000 q 795 991 786 1000 q 807 970 805 982 l 836 741 l 836 736 q 825 711 836 720 q 801 701 814 701 q 778 710 787 701 q 765 732 768 718 l 741 925 q 424 897 606 907 l 424 450 q 652 472 570 456 l 659 472 q 684 461 673 472 q 694 437 694 451 q 665 401 694 409 q 424 379 585 386 l 424 71 l 443 71 m 349 1134 q 339 1157 349 1147 q 317 1167 330 1167 q 293 1157 303 1167 q 283 1134 283 1147 q 293 1111 283 1120 q 317 1101 303 1101 q 339 1111 330 1101 q 349 1134 349 1120 m 646 1134 q 636 1157 646 1147 q 612 1167 626 1167 q 590 1157 599 1167 q 581 1134 581 1147 q 590 1111 581 1120 q 612 1101 599 1101 q 636 1111 626 1101 q 646 1134 646 1120 m 420 1134 q 412 1093 420 1112 q 390 1060 404 1074 q 327 1029 359 1029 q 276 1038 295 1029 q 243 1060 257 1046 q 212 1134 212 1090 q 243 1207 212 1177 q 317 1238 273 1238 q 390 1207 359 1238 q 420 1134 420 1177 m 612 1029 q 539 1060 569 1029 q 509 1134 509 1091 q 539 1207 509 1176 q 612 1238 569 1238 q 686 1207 656 1238 q 716 1144 716 1176 q 686 1060 716 1091 q 612 1029 656 1029 z "},"":{"ha":628,"x_min":-88,"x_max":578,"o":"m 372 905 q 323 905 372 905 q 273 907 299 905 l 258 72 l 349 72 l 372 905 m 94 996 q 350 977 229 977 q 539 983 471 977 l 542 983 q 568 972 557 983 q 578 948 578 962 q 568 924 578 934 q 539 912 559 914 q 443 905 504 909 l 421 69 q 528 61 460 66 q 559 22 559 54 q 548 -1 558 7 q 524 -9 537 -9 l 521 -9 q 93 -9 304 12 l 90 -9 q 64 1 75 -9 q 54 25 54 12 q 63 49 54 39 q 92 61 73 59 q 137 65 111 63 q 187 69 162 67 l 203 913 q 85 925 144 917 q 63 937 71 927 q 54 962 54 947 q 66 986 54 977 q 90 996 79 996 l 94 996 m 180 1208 l 113 1333 l 41 1333 l 180 1208 m -76 1341 q -88 1367 -88 1352 q -78 1393 -88 1383 q -52 1404 -68 1404 l 134 1404 q 166 1386 155 1404 l 338 1064 q 342 1045 342 1057 q 332 1023 342 1034 q 308 1013 322 1013 q 283 1021 293 1013 l -76 1341 z "},"":{"ha":628,"x_min":54,"x_max":730,"o":"m 372 905 q 323 905 372 905 q 273 907 299 905 l 258 72 l 349 72 l 372 905 m 94 996 q 350 977 229 977 q 539 983 471 977 l 542 983 q 568 972 557 983 q 578 948 578 962 q 568 924 578 934 q 539 912 559 914 q 443 905 504 909 l 421 69 q 528 61 460 66 q 559 22 559 54 q 548 -1 558 7 q 524 -9 537 -9 l 521 -9 q 93 -9 304 12 l 90 -9 q 64 1 75 -9 q 54 25 54 12 q 63 49 54 39 q 92 61 73 59 q 137 65 111 63 q 187 69 162 67 l 203 913 q 85 925 144 917 q 63 937 71 927 q 54 962 54 947 q 66 986 54 977 q 90 996 79 996 l 94 996 m 601 1335 l 529 1335 l 463 1210 l 601 1335 m 694 1405 q 720 1395 710 1405 q 730 1369 730 1384 q 718 1343 730 1353 l 359 1022 q 335 1014 349 1014 q 310 1024 320 1014 q 300 1046 300 1035 q 304 1065 300 1058 l 476 1388 q 508 1405 487 1405 l 694 1405 z "},"":{"ha":628,"x_min":50,"x_max":583,"o":"m 372 905 q 323 905 372 905 q 273 907 299 905 l 258 72 l 349 72 l 372 905 m 94 996 q 350 977 229 977 q 539 983 471 977 l 542 983 q 568 972 557 983 q 578 948 578 962 q 568 924 578 934 q 539 912 559 914 q 443 905 504 909 l 421 69 q 528 61 460 66 q 559 22 559 54 q 548 -1 558 7 q 524 -9 537 -9 l 521 -9 q 93 -9 304 12 l 90 -9 q 64 1 75 -9 q 54 25 54 12 q 63 49 54 39 q 92 61 73 59 q 137 65 111 63 q 187 69 162 67 l 203 913 q 85 925 144 917 q 63 937 71 927 q 54 962 54 947 q 66 986 54 977 q 90 996 79 996 l 94 996 m 473 1113 l 298 1324 l 260 1268 l 395 1113 l 473 1113 m 378 1042 q 351 1055 362 1042 l 218 1208 l 115 1057 q 87 1042 104 1042 q 60 1053 71 1042 q 50 1077 50 1065 q 56 1097 50 1090 l 265 1403 q 293 1418 275 1418 q 322 1406 312 1418 l 575 1100 q 583 1076 583 1090 q 572 1052 583 1063 q 547 1042 560 1042 l 378 1042 z "},"":{"ha":628,"x_min":54,"x_max":578,"o":"m 372 905 q 323 905 372 905 q 273 907 299 905 l 258 72 l 349 72 l 372 905 m 94 996 q 350 977 229 977 q 539 983 471 977 l 542 983 q 568 972 557 983 q 578 948 578 962 q 568 924 578 934 q 539 912 559 914 q 443 905 504 909 l 421 69 q 528 61 460 66 q 559 22 559 54 q 548 -1 558 7 q 524 -9 537 -9 l 521 -9 q 93 -9 304 12 l 90 -9 q 64 1 75 -9 q 54 25 54 12 q 63 49 54 39 q 92 61 73 59 q 137 65 111 63 q 187 69 162 67 l 203 913 q 85 925 144 917 q 63 937 71 927 q 54 962 54 947 q 66 986 54 977 q 90 996 79 996 l 94 996 m 200 1138 q 191 1161 200 1152 q 168 1171 182 1171 q 144 1161 155 1171 q 134 1138 134 1152 q 144 1115 134 1124 q 168 1105 155 1105 q 191 1115 182 1105 q 200 1138 200 1124 m 497 1138 q 487 1161 497 1152 q 464 1171 477 1171 q 441 1161 450 1171 q 432 1138 432 1152 q 441 1115 432 1124 q 464 1105 450 1105 q 487 1115 477 1105 q 497 1138 497 1124 m 272 1138 q 264 1097 272 1116 q 241 1064 256 1078 q 179 1034 211 1034 q 127 1042 146 1034 q 94 1064 109 1050 q 64 1138 64 1095 q 94 1211 64 1181 q 168 1242 125 1242 q 241 1211 211 1242 q 272 1138 272 1181 m 464 1034 q 391 1064 420 1034 q 361 1138 361 1095 q 391 1211 361 1180 q 464 1242 420 1242 q 537 1211 508 1242 q 568 1148 568 1180 q 538 1064 568 1095 q 464 1034 508 1034 z "},"":{"ha":1048,"x_min":50,"x_max":979,"o":"m 262 50 q 358 43 321 45 l 358 916 q 262 904 313 912 l 262 50 m 431 476 q 562 496 466 479 q 588 485 578 496 q 597 460 597 473 q 570 425 597 433 q 431 406 500 409 l 431 43 q 671 96 558 39 q 891 359 838 181 q 908 504 908 418 q 872 674 908 590 q 772 814 836 758 q 431 917 639 929 l 431 476 m 192 892 l 98 868 q 84 865 92 865 q 66 872 76 865 q 53 888 57 879 q 51 904 50 897 q 56 917 52 911 q 75 935 64 932 q 106 944 78 935 q 180 962 134 952 q 422 987 300 987 q 645 956 543 987 q 821 861 747 924 q 979 482 979 726 q 802 100 979 239 q 387 -29 636 -29 q 113 8 227 -29 q 84 17 90 15 q 71 29 77 20 q 65 52 65 38 q 76 75 65 65 q 97 85 87 85 q 113 82 106 85 q 192 61 113 82 l 192 410 l 81 425 q 60 437 68 427 q 52 458 52 447 q 55 475 52 469 q 64 487 59 482 q 87 496 76 496 l 93 494 l 192 482 l 192 892 z "},"":{"ha":1140,"x_min":54,"x_max":1082,"o":"m 372 916 q 323 916 372 916 q 273 917 299 916 l 258 69 l 349 69 l 372 916 m 783 999 q 861 994 817 994 q 1038 1018 949 994 q 1051 1019 1040 1019 q 1072 1009 1062 1019 q 1082 986 1082 998 q 1058 951 1082 958 q 964 930 1006 937 q 996 562 996 736 q 960 18 996 307 q 926 -12 951 -12 q 892 9 901 -12 q 736 326 838 139 q 590 591 633 513 q 441 852 515 724 l 421 66 q 528 58 460 64 q 550 46 541 56 q 559 21 559 36 q 548 -3 559 7 q 524 -12 536 -12 l 521 -12 q 93 -12 304 9 l 90 -12 q 65 -2 75 -12 q 54 22 54 9 q 63 46 54 36 q 92 58 73 56 q 137 62 111 60 q 187 66 162 64 l 203 922 q 85 935 144 926 q 63 947 71 937 q 54 972 54 958 q 66 997 54 987 q 90 1006 79 1006 l 94 1006 q 375 986 245 986 l 425 986 q 452 976 445 986 q 473 939 458 965 q 512 872 488 913 q 567 777 536 831 q 632 661 597 722 q 704 532 667 599 q 776 400 741 466 q 904 154 861 243 q 925 522 925 366 q 893 925 925 726 q 876 924 884 924 l 859 924 q 755 937 766 924 q 743 964 743 950 q 754 989 743 979 q 779 999 766 999 l 783 999 m 746 1140 q 701 1131 725 1131 q 661 1139 677 1131 q 633 1162 644 1148 q 602 1212 618 1179 q 576 1265 586 1246 q 551 1299 566 1284 q 474 1331 521 1331 q 404 1303 428 1331 q 412 1304 408 1304 l 421 1304 q 523 1238 482 1304 q 556 1180 536 1217 q 591 1125 576 1143 q 659 1084 624 1084 q 746 1140 716 1084 m 785 1379 q 831 1210 831 1307 q 783 1071 831 1128 q 664 1011 734 1011 q 515 1114 578 1011 q 475 1181 484 1162 q 459 1210 466 1200 q 422 1234 442 1234 q 394 1224 403 1234 q 382 1198 385 1214 q 381 1164 379 1183 q 388 1127 383 1145 q 405 1078 398 1089 q 416 1051 416 1063 q 405 1028 416 1039 q 378 1018 393 1018 q 350 1036 363 1018 q 327 1078 336 1054 q 313 1126 318 1101 q 304 1210 304 1166 q 316 1289 304 1254 q 349 1349 328 1324 q 466 1402 395 1402 q 637 1302 585 1402 q 661 1252 650 1276 q 699 1202 684 1202 q 723 1208 713 1202 q 739 1225 732 1215 q 749 1265 749 1243 q 728 1336 749 1308 q 720 1358 720 1343 q 731 1383 720 1373 q 753 1393 743 1393 q 785 1379 770 1393 z "},"":{"ha":1108,"x_min":64,"x_max":1046,"o":"m 346 90 q 232 493 232 223 q 387 893 232 758 q 397 901 391 897 q 208 736 279 849 q 135 482 135 621 q 260 161 135 294 q 346 90 298 119 m 975 480 q 963 579 975 528 q 929 678 951 629 q 876 770 907 726 q 808 846 845 814 q 643 918 728 918 q 384 781 476 918 q 302 493 302 660 q 324 299 302 371 q 370 183 346 227 q 429 107 394 140 q 619 39 505 39 q 798 109 711 39 q 926 278 876 173 q 975 480 975 381 m 1046 480 q 1028 345 1046 411 q 978 220 1010 279 q 900 114 945 162 q 800 31 854 66 q 554 -41 686 -41 q 208 113 353 -41 q 81 343 117 209 q 64 482 64 410 q 131 746 64 624 q 307 935 195 863 q 554 1006 420 1006 q 808 929 692 1006 q 982 736 918 857 q 1046 480 1046 614 m 414 1246 l 347 1371 l 275 1371 l 414 1246 m 158 1379 q 146 1404 146 1389 q 156 1431 146 1420 q 182 1441 166 1441 l 368 1441 q 400 1423 389 1441 l 572 1101 q 576 1082 576 1094 q 566 1060 576 1071 q 542 1050 556 1050 q 517 1058 527 1050 l 158 1379 z "},"":{"ha":1108,"x_min":64,"x_max":1046,"o":"m 346 90 q 232 493 232 223 q 387 893 232 758 q 397 901 391 897 q 208 736 279 849 q 135 482 135 621 q 260 161 135 294 q 346 90 298 119 m 975 480 q 963 579 975 528 q 929 678 951 629 q 876 770 907 726 q 808 846 845 814 q 643 918 728 918 q 384 781 476 918 q 302 493 302 660 q 324 299 302 371 q 370 183 346 227 q 429 107 394 140 q 619 39 505 39 q 798 109 711 39 q 926 278 876 173 q 975 480 975 381 m 1046 480 q 1028 345 1046 411 q 978 220 1010 279 q 900 114 945 162 q 800 31 854 66 q 554 -41 686 -41 q 208 113 353 -41 q 81 343 117 209 q 64 482 64 410 q 131 746 64 624 q 307 935 195 863 q 554 1006 420 1006 q 808 929 692 1006 q 982 736 918 857 q 1046 480 1046 614 m 871 1373 l 799 1373 l 732 1248 l 871 1373 m 964 1443 q 990 1433 980 1443 q 1000 1407 1000 1422 q 987 1381 1000 1391 l 629 1060 q 605 1052 619 1052 q 580 1062 590 1052 q 570 1084 570 1073 q 574 1103 570 1096 l 746 1426 q 778 1443 757 1443 l 964 1443 z "},"":{"ha":1108,"x_min":64,"x_max":1046,"o":"m 346 90 q 232 493 232 223 q 387 893 232 758 q 397 901 391 897 q 208 736 279 849 q 135 482 135 621 q 260 161 135 294 q 346 90 298 119 m 975 480 q 963 579 975 528 q 929 678 951 629 q 876 770 907 726 q 808 846 845 814 q 643 918 728 918 q 384 781 476 918 q 302 493 302 660 q 324 299 302 371 q 370 183 346 227 q 429 107 394 140 q 619 39 505 39 q 798 109 711 39 q 926 278 876 173 q 975 480 975 381 m 1046 480 q 1028 345 1046 411 q 978 220 1010 279 q 900 114 945 162 q 800 31 854 66 q 554 -41 686 -41 q 208 113 353 -41 q 81 343 117 209 q 64 482 64 410 q 131 746 64 624 q 307 935 195 863 q 554 1006 420 1006 q 808 929 692 1006 q 982 736 918 857 q 1046 480 1046 614 m 710 1116 l 535 1326 l 497 1271 l 632 1116 l 710 1116 m 615 1044 q 589 1057 600 1044 l 456 1211 l 353 1060 q 325 1044 342 1044 q 298 1056 308 1044 q 288 1080 288 1067 q 293 1100 288 1093 l 503 1406 q 531 1421 512 1421 q 559 1409 549 1421 l 812 1103 q 821 1079 821 1093 q 809 1055 821 1065 q 785 1044 798 1044 l 615 1044 z "},"":{"ha":1108,"x_min":64,"x_max":1046,"o":"m 346 90 q 232 493 232 223 q 387 893 232 758 q 397 901 391 897 q 208 736 279 849 q 135 482 135 621 q 260 161 135 294 q 346 90 298 119 m 975 480 q 963 579 975 528 q 929 678 951 629 q 876 770 907 726 q 808 846 845 814 q 643 918 728 918 q 384 781 476 918 q 302 493 302 660 q 324 299 302 371 q 370 183 346 227 q 429 107 394 140 q 619 39 505 39 q 798 109 711 39 q 926 278 876 173 q 975 480 975 381 m 1046 480 q 1028 345 1046 411 q 978 220 1010 279 q 900 114 945 162 q 800 31 854 66 q 554 -41 686 -41 q 208 113 353 -41 q 81 343 117 209 q 64 482 64 410 q 131 746 64 624 q 307 935 195 863 q 554 1006 420 1006 q 808 929 692 1006 q 982 736 918 857 q 1046 480 1046 614 m 733 1160 q 688 1150 712 1150 q 648 1159 664 1150 q 620 1182 631 1168 q 589 1232 605 1198 q 563 1285 573 1265 q 538 1319 553 1304 q 461 1350 508 1350 q 391 1322 415 1350 q 399 1324 395 1324 l 408 1324 q 510 1258 469 1324 q 544 1200 524 1237 q 578 1145 564 1162 q 646 1103 611 1103 q 733 1160 703 1103 m 772 1399 q 818 1230 818 1326 q 770 1090 818 1148 q 651 1031 721 1031 q 502 1133 566 1031 q 462 1201 471 1182 q 446 1230 453 1219 q 410 1253 429 1253 q 381 1243 390 1253 q 369 1218 372 1234 q 368 1184 366 1202 q 375 1147 370 1165 q 392 1098 385 1109 q 403 1071 403 1083 q 392 1048 403 1059 q 365 1038 380 1038 q 337 1056 350 1038 q 314 1097 323 1074 q 300 1145 305 1121 q 292 1230 292 1185 q 303 1309 292 1274 q 336 1369 315 1343 q 453 1421 382 1421 q 624 1322 572 1421 q 648 1272 637 1296 q 686 1221 671 1221 q 710 1228 701 1221 q 726 1244 720 1234 q 736 1285 736 1263 q 715 1356 736 1327 q 707 1378 707 1363 q 718 1402 707 1392 q 741 1413 730 1413 q 772 1399 758 1413 z "},"":{"ha":1108,"x_min":64,"x_max":1046,"o":"m 346 90 q 232 493 232 223 q 387 893 232 758 q 397 901 391 897 q 208 736 279 849 q 135 482 135 621 q 260 161 135 294 q 346 90 298 119 m 975 480 q 963 579 975 528 q 929 678 951 629 q 876 770 907 726 q 808 846 845 814 q 643 918 728 918 q 384 781 476 918 q 302 493 302 660 q 324 299 302 371 q 370 183 346 227 q 429 107 394 140 q 619 39 505 39 q 798 109 711 39 q 926 278 876 173 q 975 480 975 381 m 1046 480 q 1028 345 1046 411 q 978 220 1010 279 q 900 114 945 162 q 800 31 854 66 q 554 -41 686 -41 q 208 113 353 -41 q 81 343 117 209 q 64 482 64 410 q 131 746 64 624 q 307 935 195 863 q 554 1006 420 1006 q 808 929 692 1006 q 982 736 918 857 q 1046 480 1046 614 m 439 1142 q 430 1165 439 1156 q 407 1175 420 1175 q 383 1165 393 1175 q 373 1142 373 1156 q 383 1119 373 1128 q 407 1109 393 1109 q 430 1119 420 1109 q 439 1142 439 1128 m 736 1142 q 726 1165 736 1156 q 703 1175 716 1175 q 680 1165 689 1175 q 671 1142 671 1156 q 680 1119 671 1128 q 703 1109 689 1109 q 726 1119 716 1109 q 736 1142 736 1128 m 511 1142 q 503 1101 511 1120 q 480 1068 494 1082 q 417 1038 450 1038 q 366 1046 385 1038 q 333 1068 347 1054 q 302 1142 302 1099 q 333 1215 302 1185 q 407 1246 363 1246 q 480 1215 450 1246 q 511 1142 511 1185 m 703 1038 q 629 1068 659 1038 q 600 1142 600 1099 q 629 1215 600 1184 q 703 1246 659 1246 q 776 1215 747 1246 q 806 1152 806 1184 q 777 1068 806 1099 q 703 1038 747 1038 z "},"":{"ha":749,"x_min":72,"x_max":684,"o":"m 585 281 l 256 725 l 172 713 l 501 268 l 585 281 m 490 195 l 485 195 q 457 208 466 195 l 319 395 l 134 205 q 109 195 124 195 q 82 206 93 195 q 72 227 72 217 q 82 256 72 245 l 277 452 l 79 718 q 72 742 72 730 q 81 764 72 754 q 103 775 90 774 l 265 799 l 271 799 q 300 785 290 799 l 428 611 l 604 789 q 630 799 614 799 q 655 788 645 799 q 665 763 665 777 q 656 739 665 749 l 471 553 l 676 275 q 684 253 684 267 q 674 230 684 239 q 653 218 665 220 l 490 195 z "},"":{"ha":1108,"x_min":64,"x_max":1046,"o":"m 346 90 q 232 493 232 223 q 387 893 232 758 q 397 901 391 897 q 208 736 279 849 q 135 482 135 621 q 260 161 135 294 q 346 90 298 119 m 353 4 q 309 -93 322 -56 q 298 -111 309 -104 q 275 -117 287 -117 q 252 -107 264 -117 q 240 -82 240 -98 q 293 39 240 -65 q 80 347 131 149 q 64 483 64 412 q 81 621 64 554 q 131 746 99 688 q 208 852 163 804 q 307 935 253 900 q 561 1006 420 1006 q 812 937 701 1006 q 864 1015 840 982 q 890 1031 871 1031 q 918 1019 909 1031 q 928 994 928 1008 l 922 975 l 869 895 q 1035 599 999 781 q 1046 476 1046 541 q 1028 345 1046 411 q 978 220 1010 279 q 900 114 945 162 q 800 31 854 66 q 567 -41 686 -41 q 353 4 449 -41 m 414 123 q 619 39 491 39 q 798 109 711 39 q 926 278 876 173 q 975 482 975 381 q 891 768 975 644 q 833 836 865 806 q 414 123 559 396 m 777 880 q 646 918 708 918 q 535 901 583 918 q 449 853 487 883 q 384 781 412 823 q 338 693 356 740 q 302 505 302 600 q 370 184 302 304 q 777 880 557 528 z "},"":{"ha":1048,"x_min":52,"x_max":1014,"o":"m 240 895 q 211 519 211 720 q 288 140 211 257 q 429 35 340 60 q 314 387 324 159 q 311 509 311 449 q 338 895 311 704 l 240 895 m 773 160 q 817 296 802 218 q 831 514 831 374 q 800 904 831 654 l 686 895 l 682 895 q 657 906 667 895 q 647 930 647 917 q 656 954 647 944 q 679 966 665 964 l 977 990 l 979 990 q 1004 980 994 990 q 1014 955 1014 969 q 1005 931 1014 941 q 982 920 996 921 l 871 911 q 903 463 901 647 q 742 23 893 139 q 511 -46 652 -46 q 271 50 362 -46 q 139 522 139 190 q 168 895 139 724 l 87 895 q 62 905 72 895 q 52 930 52 916 q 62 956 52 945 q 87 966 72 966 l 513 966 q 538 956 527 966 q 549 930 549 945 q 538 905 549 916 q 513 895 527 895 l 410 895 q 382 505 382 717 q 589 36 382 36 q 773 160 709 36 m 458 1200 l 392 1325 l 319 1325 l 458 1200 m 203 1333 q 191 1359 191 1343 q 201 1385 191 1375 q 227 1396 211 1396 l 413 1396 q 445 1378 434 1396 l 617 1056 q 621 1037 621 1048 q 611 1015 621 1025 q 586 1004 601 1004 q 562 1013 572 1004 l 203 1333 z "},"":{"ha":1048,"x_min":52,"x_max":1014,"o":"m 240 895 q 211 519 211 720 q 288 140 211 257 q 429 35 340 60 q 314 387 324 159 q 311 509 311 449 q 338 895 311 704 l 240 895 m 773 160 q 817 296 802 218 q 831 514 831 374 q 800 904 831 654 l 686 895 l 682 895 q 657 906 667 895 q 647 930 647 917 q 656 954 647 944 q 679 966 665 964 l 977 990 l 979 990 q 1004 980 994 990 q 1014 955 1014 969 q 1005 931 1014 941 q 982 920 996 921 l 871 911 q 903 463 901 647 q 742 23 893 139 q 511 -46 652 -46 q 271 50 362 -46 q 139 522 139 190 q 168 895 139 724 l 87 895 q 62 905 72 895 q 52 930 52 916 q 62 956 52 945 q 87 966 72 966 l 513 966 q 538 956 527 966 q 549 930 549 945 q 538 905 549 916 q 513 895 527 895 l 410 895 q 382 505 382 717 q 589 36 382 36 q 773 160 709 36 m 869 1325 l 798 1325 l 731 1200 l 869 1325 m 963 1396 q 989 1385 979 1396 q 999 1359 999 1375 q 986 1333 999 1343 l 628 1013 q 603 1004 618 1004 q 578 1015 589 1004 q 568 1037 568 1025 q 572 1056 568 1048 l 745 1378 q 777 1396 755 1396 l 963 1396 z "},"":{"ha":1048,"x_min":52,"x_max":1014,"o":"m 240 895 q 211 519 211 720 q 288 140 211 257 q 429 35 340 60 q 314 387 324 159 q 311 509 311 449 q 338 895 311 704 l 240 895 m 773 160 q 817 296 802 218 q 831 514 831 374 q 800 904 831 654 l 686 895 l 682 895 q 657 906 667 895 q 647 930 647 917 q 656 954 647 944 q 679 966 665 964 l 977 990 l 979 990 q 1004 980 994 990 q 1014 955 1014 969 q 1005 931 1014 941 q 982 920 996 921 l 871 911 q 903 463 901 647 q 742 23 893 139 q 511 -46 652 -46 q 271 50 362 -46 q 139 522 139 190 q 168 895 139 724 l 87 895 q 62 905 72 895 q 52 930 52 916 q 62 956 52 945 q 87 966 72 966 l 513 966 q 538 956 527 966 q 549 930 549 945 q 538 905 549 916 q 513 895 527 895 l 410 895 q 382 505 382 717 q 589 36 382 36 q 773 160 709 36 m 710 1086 l 535 1297 l 497 1242 l 632 1086 l 710 1086 m 615 1015 q 589 1028 600 1015 l 456 1182 l 353 1031 q 325 1015 342 1015 q 298 1027 308 1015 q 288 1051 288 1038 q 293 1071 288 1063 l 503 1377 q 531 1392 512 1392 q 559 1379 549 1392 l 812 1074 q 821 1050 821 1063 q 809 1026 821 1036 q 785 1015 798 1015 l 615 1015 z "},"":{"ha":1048,"x_min":52,"x_max":1014,"o":"m 240 895 q 211 519 211 720 q 288 140 211 257 q 429 35 340 60 q 314 387 324 159 q 311 509 311 449 q 338 895 311 704 l 240 895 m 773 160 q 817 296 802 218 q 831 514 831 374 q 800 904 831 654 l 686 895 l 682 895 q 657 906 667 895 q 647 930 647 917 q 656 954 647 944 q 679 966 665 964 l 977 990 l 979 990 q 1004 980 994 990 q 1014 955 1014 969 q 1005 931 1014 941 q 982 920 996 921 l 871 911 q 903 463 901 647 q 742 23 893 139 q 511 -46 652 -46 q 271 50 362 -46 q 139 522 139 190 q 168 895 139 724 l 87 895 q 62 905 72 895 q 52 930 52 916 q 62 956 52 945 q 87 966 72 966 l 513 966 q 538 956 527 966 q 549 930 549 945 q 538 905 549 916 q 513 895 527 895 l 410 895 q 382 505 382 717 q 589 36 382 36 q 773 160 709 36 m 417 1109 q 408 1132 417 1122 q 385 1142 399 1142 q 361 1132 372 1142 q 351 1109 351 1122 q 361 1086 351 1095 q 385 1076 372 1076 q 408 1086 399 1076 q 417 1109 417 1095 m 714 1109 q 704 1132 714 1122 q 681 1142 694 1142 q 658 1132 667 1142 q 649 1109 649 1122 q 658 1086 649 1095 q 681 1076 667 1076 q 704 1086 694 1076 q 714 1109 714 1095 m 489 1109 q 481 1068 489 1087 q 458 1035 473 1049 q 396 1004 428 1004 q 345 1013 363 1004 q 311 1035 326 1021 q 281 1109 281 1065 q 311 1182 281 1152 q 385 1213 342 1213 q 458 1182 428 1213 q 489 1109 489 1152 m 681 1004 q 608 1035 637 1004 q 578 1109 578 1066 q 608 1182 578 1151 q 681 1213 637 1213 q 754 1182 725 1213 q 785 1119 785 1151 q 755 1035 785 1066 q 681 1004 725 1004 z "},"":{"ha":1067,"x_min":-53,"x_max":1071,"o":"m 522 61 q 614 64 568 64 l 614 416 q 272 890 442 574 q 247 889 260 889 q 197 889 218 889 q 161 890 176 889 q 434 469 292 637 q 511 390 471 426 q 522 364 522 379 l 522 61 m 873 965 q 1029 978 948 965 l 1035 978 q 1060 967 1049 978 q 1071 942 1071 956 q 1062 919 1071 929 q 1040 907 1053 909 q 907 895 973 897 q 777 563 855 710 q 685 419 732 477 l 685 62 q 803 54 743 60 q 826 42 817 52 q 835 17 835 32 q 823 -8 835 1 q 799 -17 810 -17 l 794 -17 q 603 -7 717 -7 q 350 -35 489 -7 l 343 -35 q 318 -24 328 -35 q 307 0 307 -14 q 336 36 307 28 q 452 54 404 49 l 452 349 q 78 896 262 527 q -12 905 11 901 q -53 942 -53 911 q -41 969 -53 960 q -17 978 -28 978 l -12 978 q 221 960 103 960 q 449 978 339 960 l 453 978 q 479 967 469 978 q 489 943 489 956 q 480 919 489 929 q 452 906 472 909 q 351 895 408 899 q 550 591 439 731 q 646 485 595 534 q 781 743 713 574 q 833 896 808 811 q 720 904 748 899 q 675 942 675 911 q 687 968 675 958 q 710 978 699 978 l 715 978 q 873 965 800 965 m 830 1243 l 758 1243 l 692 1118 l 830 1243 m 924 1314 q 949 1303 939 1314 q 960 1277 960 1293 q 947 1251 960 1261 l 589 930 q 564 922 578 922 q 539 933 549 922 q 529 955 529 943 q 533 974 529 966 l 705 1296 q 737 1314 716 1314 l 924 1314 z "},"":{"ha":1008,"x_min":81,"x_max":975,"o":"m 399 916 q 364 914 381 914 q 300 914 332 914 l 285 69 l 375 69 l 399 916 m 452 248 q 544 244 496 244 q 656 256 591 244 q 772 293 720 268 q 904 497 904 357 q 675 737 904 680 q 467 760 586 760 l 465 760 l 452 248 m 119 996 q 331 985 225 985 q 547 996 437 985 l 550 996 q 576 985 566 994 q 586 961 586 975 q 577 936 586 946 q 551 925 568 926 q 469 918 514 921 l 467 831 q 689 807 609 829 q 817 759 769 784 q 901 697 865 734 q 975 498 975 620 q 969 430 975 470 q 940 351 963 389 q 884 282 918 312 q 808 232 850 253 q 719 199 766 212 q 559 174 629 174 q 450 176 490 174 l 447 66 q 554 58 500 62 q 586 20 586 52 q 574 -4 585 5 q 550 -12 564 -12 l 547 -12 q 331 -1 437 -1 q 119 -12 225 -1 l 117 -12 q 91 -2 102 -12 q 81 22 81 9 q 90 46 81 36 q 118 58 99 56 q 163 62 138 60 q 214 66 189 64 l 216 220 q 87 277 98 259 q 81 298 81 286 q 92 321 81 311 q 111 332 103 332 q 138 325 121 332 q 176 310 155 319 q 218 294 197 302 l 227 736 q 143 712 164 722 q 112 703 123 703 q 91 714 101 703 q 81 737 81 726 q 100 771 81 762 q 228 808 137 790 l 229 917 q 113 925 170 919 q 90 937 99 926 q 81 962 81 947 q 92 986 81 977 q 117 996 104 996 l 119 996 z "},"":{"ha":1196,"x_min":29,"x_max":1174,"o":"m 252 90 q 347 93 310 93 l 347 679 q 432 962 347 878 q 294 864 342 941 q 252 700 252 797 l 252 90 m 600 519 q 578 450 578 490 q 590 386 578 410 q 623 343 603 361 q 670 312 644 325 q 726 290 697 299 q 852 267 769 277 q 1088 171 1036 246 q 1091 164 1090 168 q 1095 158 1093 161 q 1103 204 1103 179 q 1092 251 1103 229 q 1062 288 1080 272 q 1020 314 1044 303 q 971 333 996 326 q 885 353 932 345 q 795 371 838 362 q 713 397 752 380 q 603 505 624 434 q 600 519 600 512 m 357 22 q 82 -3 208 22 q 56 8 66 -3 q 46 33 46 20 q 75 68 46 64 q 180 83 129 79 l 180 604 q 86 606 123 604 q 39 618 49 608 q 29 643 29 629 q 40 668 29 658 q 65 679 51 679 l 66 679 l 180 675 l 180 700 q 263 944 180 852 q 492 1039 348 1039 q 682 963 604 1039 q 758 790 758 890 q 688 606 758 680 q 668 551 668 578 q 680 507 668 525 q 712 477 692 490 q 756 455 732 464 q 806 441 781 447 q 854 431 831 435 q 900 422 877 427 q 956 409 924 417 q 1020 388 989 400 q 1079 359 1051 376 q 1128 320 1107 342 q 1174 209 1174 271 q 1147 104 1174 147 q 1077 31 1120 61 q 872 -31 988 -31 q 631 28 740 -31 q 572 72 595 47 q 575 29 572 48 l 575 26 q 564 1 574 11 q 539 -9 553 -9 q 515 0 526 -9 q 503 22 504 9 q 501 50 501 36 l 501 78 q 504 159 501 129 q 509 222 509 214 q 520 241 510 231 q 544 250 530 250 q 569 239 559 250 q 579 214 579 227 l 579 211 q 576 168 579 206 q 696 81 592 123 q 872 40 795 40 q 965 54 928 40 q 1035 111 1035 80 q 898 189 1035 162 q 856 195 875 193 q 802 201 836 197 q 711 221 768 205 q 608 267 654 238 q 507 441 507 332 q 603 625 507 539 q 660 684 647 664 q 686 789 686 726 q 652 894 686 847 q 561 945 615 945 q 428 787 456 945 q 419 679 419 738 l 419 57 q 408 32 419 41 q 383 22 397 22 l 357 22 z "},"":{"ha":850,"x_min":4,"x_max":875,"o":"m 515 237 q 513 286 513 260 l 488 286 q 269 245 376 286 q 132 98 132 194 q 164 43 132 63 q 233 28 191 28 q 319 46 276 28 q 399 95 362 65 q 515 237 464 149 m 679 69 q 681 151 681 90 q 679 267 681 212 q 668 374 676 322 q 644 471 660 425 q 600 549 627 516 q 428 623 538 623 q 425 622 426 623 q 421 621 423 621 l 424 621 q 566 425 533 562 q 586 282 584 349 q 587 176 587 214 q 582 53 587 115 q 679 69 631 63 m 793 77 l 842 75 q 866 64 857 74 q 875 39 875 54 q 865 14 875 24 q 840 3 855 3 l 838 3 q 814 4 826 4 l 790 4 q 550 -29 666 4 l 541 -31 q 515 -19 525 -31 q 505 5 505 -7 l 505 11 q 509 38 505 12 q 515 111 512 64 q 229 -43 378 -43 q 113 -5 161 -43 q 61 92 61 35 q 83 188 61 149 q 141 255 105 227 q 223 303 177 284 q 316 335 269 323 q 488 357 404 357 l 504 357 q 449 507 504 443 q 307 575 391 575 q 191 511 245 575 q 138 382 138 450 q 126 359 138 368 q 101 350 115 350 q 76 361 87 350 q 65 395 65 372 q 77 454 65 418 q 110 524 88 490 q 164 589 132 558 q 236 643 195 619 q 413 693 323 693 q 556 669 503 693 q 647 605 610 646 q 704 511 683 564 q 736 397 725 457 q 753 158 753 304 l 751 75 l 793 77 m 272 924 l 205 1049 l 133 1049 l 272 924 m 16 1057 q 4 1083 4 1067 q 14 1109 4 1099 q 40 1120 24 1120 l 227 1120 q 258 1102 248 1120 l 431 780 q 435 761 435 772 q 425 739 435 749 q 400 728 414 728 q 375 736 385 728 l 16 1057 z "},"":{"ha":850,"x_min":61,"x_max":875,"o":"m 515 237 q 513 286 513 260 l 488 286 q 269 245 376 286 q 132 98 132 194 q 164 43 132 63 q 233 28 191 28 q 319 46 276 28 q 399 95 362 65 q 515 237 464 149 m 679 69 q 681 151 681 90 q 679 267 681 212 q 668 374 676 322 q 644 471 660 425 q 600 549 627 516 q 428 623 538 623 q 425 622 426 623 q 421 621 423 621 l 424 621 q 566 425 533 562 q 586 282 584 349 q 587 176 587 214 q 582 53 587 115 q 679 69 631 63 m 793 77 l 842 75 q 866 64 857 74 q 875 39 875 54 q 865 14 875 24 q 840 3 855 3 l 838 3 q 814 4 826 4 l 790 4 q 550 -29 666 4 l 541 -31 q 515 -19 525 -31 q 505 5 505 -7 l 505 11 q 509 38 505 12 q 515 111 512 64 q 229 -43 378 -43 q 113 -5 161 -43 q 61 92 61 35 q 83 188 61 149 q 141 255 105 227 q 223 303 177 284 q 316 335 269 323 q 488 357 404 357 l 504 357 q 449 507 504 443 q 307 575 391 575 q 191 511 245 575 q 138 382 138 450 q 126 359 138 368 q 101 350 115 350 q 76 361 87 350 q 65 395 65 372 q 77 454 65 418 q 110 524 88 490 q 164 589 132 558 q 236 643 195 619 q 413 693 323 693 q 556 669 503 693 q 647 605 610 646 q 704 511 683 564 q 736 397 725 457 q 753 158 753 304 l 751 75 l 793 77 m 554 1031 l 482 1031 l 416 907 l 554 1031 m 648 1102 q 673 1092 663 1102 q 684 1065 684 1081 q 671 1040 684 1050 l 313 719 q 288 711 302 711 q 263 721 273 711 q 253 743 253 732 q 257 762 253 755 l 429 1084 q 461 1102 440 1102 l 648 1102 z "},"":{"ha":850,"x_min":61,"x_max":875,"o":"m 515 237 q 513 286 513 260 l 488 286 q 269 245 376 286 q 132 98 132 194 q 164 43 132 63 q 233 28 191 28 q 319 46 276 28 q 399 95 362 65 q 515 237 464 149 m 679 69 q 681 151 681 90 q 679 267 681 212 q 668 374 676 322 q 644 471 660 425 q 600 549 627 516 q 428 623 538 623 q 425 622 426 623 q 421 621 423 621 l 424 621 q 566 425 533 562 q 586 282 584 349 q 587 176 587 214 q 582 53 587 115 q 679 69 631 63 m 793 77 l 842 75 q 866 64 857 74 q 875 39 875 54 q 865 14 875 24 q 840 3 855 3 l 838 3 q 814 4 826 4 l 790 4 q 550 -29 666 4 l 541 -31 q 515 -19 525 -31 q 505 5 505 -7 l 505 11 q 509 38 505 12 q 515 111 512 64 q 229 -43 378 -43 q 113 -5 161 -43 q 61 92 61 35 q 83 188 61 149 q 141 255 105 227 q 223 303 177 284 q 316 335 269 323 q 488 357 404 357 l 504 357 q 449 507 504 443 q 307 575 391 575 q 191 511 245 575 q 138 382 138 450 q 126 359 138 368 q 101 350 115 350 q 76 361 87 350 q 65 395 65 372 q 77 454 65 418 q 110 524 88 490 q 164 589 132 558 q 236 643 195 619 q 413 693 323 693 q 556 669 503 693 q 647 605 610 646 q 704 511 683 564 q 736 397 725 457 q 753 158 753 304 l 751 75 l 793 77 m 567 805 l 392 1016 l 354 960 l 489 805 l 567 805 m 472 734 q 446 747 456 734 l 313 901 l 210 749 q 182 734 199 734 q 155 745 165 734 q 144 769 144 757 q 150 789 144 782 l 359 1095 q 388 1110 369 1110 q 416 1098 406 1110 l 669 792 q 677 768 677 782 q 666 744 677 755 q 642 734 654 734 l 472 734 z "},"":{"ha":850,"x_min":61,"x_max":875,"o":"m 515 237 q 513 286 513 260 l 488 286 q 269 245 376 286 q 132 98 132 194 q 164 43 132 63 q 233 28 191 28 q 319 46 276 28 q 399 95 362 65 q 515 237 464 149 m 679 69 q 681 151 681 90 q 679 267 681 212 q 668 374 676 322 q 644 471 660 425 q 600 549 627 516 q 428 623 538 623 q 425 622 426 623 q 421 621 423 621 l 424 621 q 566 425 533 562 q 586 282 584 349 q 587 176 587 214 q 582 53 587 115 q 679 69 631 63 m 793 77 l 842 75 q 866 64 857 74 q 875 39 875 54 q 865 14 875 24 q 840 3 855 3 l 838 3 q 814 4 826 4 l 790 4 q 550 -29 666 4 l 541 -31 q 515 -19 525 -31 q 505 5 505 -7 l 505 11 q 509 38 505 12 q 515 111 512 64 q 229 -43 378 -43 q 113 -5 161 -43 q 61 92 61 35 q 83 188 61 149 q 141 255 105 227 q 223 303 177 284 q 316 335 269 323 q 488 357 404 357 l 504 357 q 449 507 504 443 q 307 575 391 575 q 191 511 245 575 q 138 382 138 450 q 126 359 138 368 q 101 350 115 350 q 76 361 87 350 q 65 395 65 372 q 77 454 65 418 q 110 524 88 490 q 164 589 132 558 q 236 643 195 619 q 413 693 323 693 q 556 669 503 693 q 647 605 610 646 q 704 511 683 564 q 736 397 725 457 q 753 158 753 304 l 751 75 l 793 77 m 549 854 q 504 845 528 845 q 463 854 479 845 q 435 877 447 863 q 405 927 420 893 q 378 980 389 960 q 354 1014 368 999 q 277 1045 323 1045 q 207 1017 231 1045 q 214 1019 210 1019 l 224 1019 q 326 953 285 1019 q 359 895 339 932 q 393 840 379 857 q 462 798 427 798 q 549 854 519 798 m 588 1094 q 633 924 633 1021 q 586 785 633 843 q 467 726 536 726 q 317 828 381 726 q 277 896 286 877 q 262 924 269 914 q 225 948 245 948 q 196 938 205 948 q 184 913 187 928 q 184 879 182 897 q 191 842 186 860 q 208 793 201 804 q 218 766 218 778 q 207 743 218 753 q 181 732 196 732 q 152 750 165 732 q 130 792 139 768 q 115 840 121 816 q 107 924 107 880 q 119 1003 107 968 q 152 1063 131 1038 q 269 1116 197 1116 q 439 1017 388 1116 q 464 966 452 991 q 502 916 487 916 q 526 923 516 916 q 541 939 535 929 q 551 980 551 958 q 531 1050 551 1022 q 522 1073 522 1058 q 534 1097 522 1087 q 556 1107 545 1107 q 588 1094 573 1107 z "},"":{"ha":850,"x_min":61,"x_max":875,"o":"m 515 237 q 513 286 513 260 l 488 286 q 269 245 376 286 q 132 98 132 194 q 164 43 132 63 q 233 28 191 28 q 319 46 276 28 q 399 95 362 65 q 515 237 464 149 m 679 69 q 681 151 681 90 q 679 267 681 212 q 668 374 676 322 q 644 471 660 425 q 600 549 627 516 q 428 623 538 623 q 425 622 426 623 q 421 621 423 621 l 424 621 q 566 425 533 562 q 586 282 584 349 q 587 176 587 214 q 582 53 587 115 q 679 69 631 63 m 793 77 l 842 75 q 866 64 857 74 q 875 39 875 54 q 865 14 875 24 q 840 3 855 3 l 838 3 q 814 4 826 4 l 790 4 q 550 -29 666 4 l 541 -31 q 515 -19 525 -31 q 505 5 505 -7 l 505 11 q 509 38 505 12 q 515 111 512 64 q 229 -43 378 -43 q 113 -5 161 -43 q 61 92 61 35 q 83 188 61 149 q 141 255 105 227 q 223 303 177 284 q 316 335 269 323 q 488 357 404 357 l 504 357 q 449 507 504 443 q 307 575 391 575 q 191 511 245 575 q 138 382 138 450 q 126 359 138 368 q 101 350 115 350 q 76 361 87 350 q 65 395 65 372 q 77 454 65 418 q 110 524 88 490 q 164 589 132 558 q 236 643 195 619 q 413 693 323 693 q 556 669 503 693 q 647 605 610 646 q 704 511 683 564 q 736 397 725 457 q 753 158 753 304 l 751 75 l 793 77 m 261 837 q 252 860 261 850 q 229 870 243 870 q 205 860 216 870 q 195 837 195 850 q 205 814 195 823 q 229 804 216 804 q 252 814 243 804 q 261 837 261 823 m 558 837 q 548 860 558 850 q 525 870 538 870 q 502 860 511 870 q 493 837 493 850 q 502 814 493 823 q 525 804 511 804 q 548 814 538 804 q 558 837 558 823 m 333 837 q 325 796 333 815 q 302 763 317 777 q 240 732 272 732 q 189 741 208 732 q 155 763 170 749 q 125 837 125 793 q 155 910 125 880 q 229 941 186 941 q 302 910 272 941 q 333 837 333 880 m 525 732 q 452 763 481 732 q 422 837 422 794 q 452 910 422 879 q 525 941 481 941 q 598 910 569 941 q 629 847 629 879 q 599 763 629 794 q 525 732 569 732 z "},"":{"ha":850,"x_min":61,"x_max":875,"o":"m 515 237 q 513 286 513 260 l 488 286 q 269 245 376 286 q 132 98 132 194 q 164 43 132 63 q 233 28 191 28 q 319 46 276 28 q 399 95 362 65 q 515 237 464 149 m 679 69 q 681 151 681 90 q 679 267 681 212 q 668 374 676 322 q 644 471 660 425 q 600 549 627 516 q 428 623 538 623 q 425 622 426 623 q 421 621 423 621 l 424 621 q 566 425 533 562 q 586 282 584 349 q 587 176 587 214 q 582 53 587 115 q 679 69 631 63 m 793 77 l 842 75 q 866 64 857 74 q 875 39 875 54 q 865 14 875 24 q 840 3 855 3 l 838 3 q 814 4 826 4 l 790 4 q 550 -29 666 4 l 541 -31 q 515 -19 525 -31 q 505 5 505 -7 l 505 11 q 509 38 505 12 q 515 111 512 64 q 229 -43 378 -43 q 113 -5 161 -43 q 61 92 61 35 q 83 188 61 149 q 141 255 105 227 q 223 303 177 284 q 316 335 269 323 q 488 357 404 357 l 504 357 q 449 507 504 443 q 307 575 391 575 q 191 511 245 575 q 138 382 138 450 q 126 359 138 368 q 101 350 115 350 q 76 361 87 350 q 65 395 65 372 q 77 454 65 418 q 110 524 88 490 q 164 589 132 558 q 236 643 195 619 q 413 693 323 693 q 556 669 503 693 q 647 605 610 646 q 704 511 683 564 q 736 397 725 457 q 753 158 753 304 l 751 75 l 793 77 m 357 1022 q 345 1039 357 1022 q 307 1056 334 1056 q 266 1044 279 1056 q 245 1016 253 1033 q 232 957 232 985 q 236 910 232 929 q 248 876 239 892 q 302 840 266 840 q 362 879 340 840 q 380 939 380 910 q 357 1022 380 989 m 395 1088 q 450 951 450 1033 q 395 806 450 858 q 480 849 450 812 q 510 946 510 886 q 479 1044 510 1006 q 395 1088 448 1081 m 583 947 q 567 859 583 899 q 524 792 552 820 q 371 732 466 732 q 220 796 280 732 q 161 947 161 859 q 222 1099 161 1038 q 371 1160 283 1160 q 523 1101 464 1160 q 583 947 583 1042 z "},"":{"ha":1211,"x_min":61,"x_max":1162,"o":"m 726 340 q 901 317 802 317 q 1092 358 999 317 l 1092 370 q 987 596 1092 534 q 899 625 950 618 q 741 457 777 612 q 726 340 730 411 m 504 216 q 488 286 496 257 q 269 245 376 286 q 132 98 132 194 q 164 43 132 63 q 233 28 191 28 q 317 43 276 28 q 393 85 359 59 q 504 216 454 131 m 728 265 q 831 57 740 113 q 895 37 863 37 q 948 42 926 37 q 991 54 970 46 q 1057 102 1038 74 q 1084 115 1069 115 q 1110 104 1099 115 q 1121 79 1121 93 q 1112 57 1121 65 q 1004 -15 1083 12 q 675 17 836 -70 q 532 143 581 68 q 401 11 483 62 q 229 -43 315 -43 q 113 -5 161 -43 q 61 92 61 35 q 83 188 61 149 q 141 255 105 227 q 223 303 177 284 q 316 335 269 323 q 488 357 404 357 l 489 357 q 439 509 488 446 q 307 575 387 575 q 191 511 245 575 q 138 382 138 450 q 126 359 138 368 q 101 350 115 350 q 76 361 87 350 q 65 395 65 372 q 77 454 65 418 q 110 524 88 490 q 164 589 132 558 q 236 643 195 619 q 427 693 323 693 q 608 611 553 693 q 856 699 706 699 q 1162 371 1162 686 l 1161 332 q 982 252 1154 275 q 866 244 927 244 q 728 265 804 244 m 737 607 q 606 507 650 574 q 547 581 575 559 q 428 623 492 623 q 426 622 427 623 q 424 621 425 621 q 553 426 532 559 q 559 339 559 384 q 570 254 559 294 q 601 181 581 215 q 713 74 643 110 q 654 311 654 161 q 670 470 654 418 q 737 607 694 551 z "},"":{"ha":800,"x_min":57,"x_max":758,"o":"m 340 -161 l 323 -163 q 298 -151 308 -163 q 289 -132 289 -140 q 292 -113 289 -119 l 328 -26 q 132 92 205 -2 q 57 322 57 187 q 149 608 57 498 q 412 722 245 722 q 556 691 490 722 q 665 599 623 661 l 688 737 q 700 758 690 750 q 724 766 709 766 q 749 755 739 766 q 758 732 758 743 l 758 726 l 715 450 q 703 428 713 437 q 679 419 692 419 q 655 429 665 419 q 645 460 646 438 q 632 514 644 482 q 599 572 620 546 q 493 633 550 633 q 375 575 423 633 q 304 375 317 505 q 300 303 300 340 q 310 218 300 265 q 342 133 321 170 q 479 47 391 47 q 598 103 544 47 q 664 216 648 154 q 699 245 671 245 q 724 234 713 245 q 734 214 734 223 q 731 193 734 205 q 717 154 728 180 q 687 101 705 127 q 642 50 668 75 q 581 6 615 25 q 415 -36 506 -36 l 400 -36 l 380 -82 l 407 -82 q 543 -127 488 -82 q 597 -250 597 -174 q 543 -374 597 -330 q 412 -416 492 -416 q 231 -349 308 -416 q 218 -322 218 -338 q 230 -297 218 -307 q 250 -286 241 -286 q 268 -289 260 -286 q 334 -301 300 -301 q 384 -286 368 -301 q 399 -246 399 -270 q 395 -209 399 -222 q 383 -185 391 -196 q 340 -161 367 -161 m 319 49 q 229 314 229 143 q 264 519 229 421 q 343 643 299 614 q 127 322 127 590 q 237 87 127 164 q 319 49 273 62 m 469 -236 q 422 -345 469 -307 q 499 -316 471 -340 q 526 -251 526 -291 q 505 -188 526 -212 q 449 -157 484 -163 q 469 -236 469 -193 z "},"":{"ha":778,"x_min":53,"x_max":729,"o":"m 304 607 q 126 336 126 543 q 216 119 126 207 q 279 74 243 92 q 221 311 221 161 q 237 470 221 418 q 304 607 261 553 m 293 340 q 467 317 369 317 q 659 358 566 317 l 659 370 q 553 596 659 534 q 465 625 517 618 q 293 340 300 606 m 729 371 l 728 332 q 549 252 721 275 q 432 244 494 244 q 294 265 371 244 q 397 57 309 111 q 461 37 430 37 q 515 42 493 37 q 557 54 536 46 q 624 102 605 74 q 651 115 635 115 q 677 104 666 115 q 688 79 688 93 q 679 57 688 65 q 570 -15 650 12 q 288 -7 423 -63 q 85 190 145 52 q 56 340 56 258 q 81 490 56 422 q 155 604 107 557 q 422 699 252 699 q 729 371 729 686 m 321 933 l 254 1058 l 182 1058 l 321 933 m 65 1066 q 53 1092 53 1076 q 63 1118 53 1107 q 89 1128 73 1128 l 275 1128 q 307 1111 296 1128 l 479 789 q 484 770 484 781 q 473 748 484 758 q 449 737 463 737 q 424 745 434 737 l 65 1066 z "},"":{"ha":778,"x_min":56,"x_max":770,"o":"m 304 607 q 126 336 126 543 q 216 119 126 207 q 279 74 243 92 q 221 311 221 161 q 237 470 221 418 q 304 607 261 553 m 293 340 q 467 317 369 317 q 659 358 566 317 l 659 370 q 553 596 659 534 q 465 625 517 618 q 293 340 300 606 m 729 371 l 728 332 q 549 252 721 275 q 432 244 494 244 q 294 265 371 244 q 397 57 309 111 q 461 37 430 37 q 515 42 493 37 q 557 54 536 46 q 624 102 605 74 q 651 115 635 115 q 677 104 666 115 q 688 79 688 93 q 679 57 688 65 q 570 -15 650 12 q 288 -7 423 -63 q 85 190 145 52 q 56 340 56 258 q 81 490 56 422 q 155 604 107 557 q 422 699 252 699 q 729 371 729 686 m 640 1058 l 568 1058 l 502 933 l 640 1058 m 734 1128 q 760 1118 749 1128 q 770 1092 770 1107 q 757 1066 770 1076 l 399 745 q 374 737 389 737 q 349 748 359 737 q 339 770 339 758 q 343 789 339 781 l 515 1111 q 547 1128 526 1128 l 734 1128 z "},"":{"ha":778,"x_min":56,"x_max":729,"o":"m 304 607 q 126 336 126 543 q 216 119 126 207 q 279 74 243 92 q 221 311 221 161 q 237 470 221 418 q 304 607 261 553 m 293 340 q 467 317 369 317 q 659 358 566 317 l 659 370 q 553 596 659 534 q 465 625 517 618 q 293 340 300 606 m 729 371 l 728 332 q 549 252 721 275 q 432 244 494 244 q 294 265 371 244 q 397 57 309 111 q 461 37 430 37 q 515 42 493 37 q 557 54 536 46 q 624 102 605 74 q 651 115 635 115 q 677 104 666 115 q 688 79 688 93 q 679 57 688 65 q 570 -15 650 12 q 288 -7 423 -63 q 85 190 145 52 q 56 340 56 258 q 81 490 56 422 q 155 604 107 557 q 422 699 252 699 q 729 371 729 686 m 563 808 l 388 1019 l 350 963 l 485 808 l 563 808 m 468 736 q 441 749 452 736 l 309 903 l 205 752 q 178 736 195 736 q 151 748 161 736 q 140 772 140 760 q 146 792 140 785 l 355 1098 q 384 1113 365 1113 q 412 1101 402 1113 l 665 795 q 673 771 673 785 q 662 747 673 758 q 637 736 650 736 l 468 736 z "},"":{"ha":778,"x_min":56,"x_max":729,"o":"m 304 607 q 126 336 126 543 q 216 119 126 207 q 279 74 243 92 q 221 311 221 161 q 237 470 221 418 q 304 607 261 553 m 293 340 q 467 317 369 317 q 659 358 566 317 l 659 370 q 553 596 659 534 q 465 625 517 618 q 293 340 300 606 m 729 371 l 728 332 q 549 252 721 275 q 432 244 494 244 q 294 265 371 244 q 397 57 309 111 q 461 37 430 37 q 515 42 493 37 q 557 54 536 46 q 624 102 605 74 q 651 115 635 115 q 677 104 666 115 q 688 79 688 93 q 679 57 688 65 q 570 -15 650 12 q 288 -7 423 -63 q 85 190 145 52 q 56 340 56 258 q 81 490 56 422 q 155 604 107 557 q 422 699 252 699 q 729 371 729 686 m 277 834 q 268 858 277 848 q 245 867 258 867 q 221 858 231 867 q 211 834 211 848 q 221 811 211 821 q 245 802 231 802 q 268 811 258 802 q 277 834 277 821 m 574 834 q 564 858 574 848 q 541 867 554 867 q 518 858 527 867 q 509 834 509 848 q 518 811 509 821 q 541 802 527 802 q 564 811 554 802 q 574 834 574 821 m 349 834 q 340 793 349 812 q 318 760 332 774 q 255 730 288 730 q 204 738 223 730 q 171 760 185 746 q 140 834 140 791 q 171 907 140 877 q 245 938 201 938 q 318 907 288 938 q 349 834 349 877 m 541 730 q 467 760 497 730 q 437 834 437 791 q 467 907 437 876 q 541 938 497 938 q 614 907 585 938 q 644 844 644 876 q 614 761 644 791 q 541 730 585 730 z "},"":{"ha":538,"x_min":-125,"x_max":528,"o":"m 330 591 q 237 586 296 586 l 232 586 l 232 75 q 257 77 245 77 q 300 77 281 77 q 330 75 318 77 l 330 591 m 492 -17 q 283 5 380 5 q 74 -17 186 5 q 48 -5 58 -17 q 39 19 39 6 q 46 42 39 32 q 72 56 54 52 q 114 63 90 60 q 161 69 138 66 l 161 589 l 57 597 q 35 610 43 600 q 26 635 26 620 q 39 659 26 650 q 62 668 51 668 l 66 668 q 82 666 67 668 q 121 663 97 665 q 239 657 185 657 q 359 668 313 657 l 367 668 q 393 657 382 668 q 403 633 403 647 l 401 69 q 449 63 425 66 q 492 56 473 60 q 528 20 528 49 q 516 -6 528 4 q 492 -17 505 -17 m 142 892 l 76 1017 l 3 1017 l 142 892 m -113 1025 q -125 1051 -125 1036 q -115 1077 -125 1067 q -90 1088 -105 1088 l 97 1088 q 129 1070 118 1088 l 301 748 q 305 729 305 741 q 295 707 305 718 q 270 696 285 696 q 245 705 256 696 l -113 1025 z "},"":{"ha":538,"x_min":26,"x_max":684,"o":"m 330 591 q 237 586 296 586 l 232 586 l 232 75 q 257 77 245 77 q 300 77 281 77 q 330 75 318 77 l 330 591 m 492 -17 q 283 5 380 5 q 74 -17 186 5 q 48 -5 58 -17 q 39 19 39 6 q 46 42 39 32 q 72 56 54 52 q 114 63 90 60 q 161 69 138 66 l 161 589 l 57 597 q 35 610 43 600 q 26 635 26 620 q 39 659 26 650 q 62 668 51 668 l 66 668 q 82 666 67 668 q 121 663 97 665 q 239 657 185 657 q 359 668 313 657 l 367 668 q 393 657 382 668 q 403 633 403 647 l 401 69 q 449 63 425 66 q 492 56 473 60 q 528 20 528 49 q 516 -6 528 4 q 492 -17 505 -17 m 554 1019 l 482 1019 l 416 894 l 554 1019 m 648 1089 q 673 1079 663 1089 q 684 1053 684 1068 q 671 1027 684 1037 l 313 706 q 288 698 302 698 q 263 708 273 698 q 253 730 253 719 q 257 749 253 742 l 429 1072 q 461 1089 440 1089 l 648 1089 z "},"":{"ha":550,"x_min":11,"x_max":544,"o":"m 330 591 q 237 586 296 586 l 232 586 l 232 75 q 257 77 245 77 q 300 77 281 77 q 330 75 318 77 l 330 591 m 492 -17 q 283 5 380 5 q 74 -17 186 5 q 48 -5 58 -17 q 39 19 39 6 q 46 42 39 32 q 72 56 54 52 q 114 63 90 60 q 161 69 138 66 l 161 589 l 57 597 q 35 610 43 600 q 26 635 26 620 q 39 659 26 650 q 62 668 51 668 l 66 668 q 82 666 67 668 q 121 663 97 665 q 239 657 185 657 q 359 668 313 657 l 367 668 q 393 657 382 668 q 403 633 403 647 l 401 69 q 449 63 425 66 q 492 56 473 60 q 528 20 528 49 q 516 -6 528 4 q 492 -17 505 -17 m 433 788 l 258 999 l 220 943 l 355 788 l 433 788 m 338 717 q 312 730 323 717 l 179 884 l 76 732 q 48 717 65 717 q 21 728 31 717 q 11 752 11 740 q 16 772 11 765 l 226 1078 q 254 1093 235 1093 q 283 1081 273 1093 l 536 775 q 544 751 544 765 q 532 727 544 738 q 508 717 521 717 l 338 717 z "},"":{"ha":538,"x_min":25,"x_max":529,"o":"m 330 591 q 237 586 296 586 l 232 586 l 232 75 q 257 77 245 77 q 300 77 281 77 q 330 75 318 77 l 330 591 m 492 -17 q 283 5 380 5 q 74 -17 186 5 q 48 -5 58 -17 q 39 19 39 6 q 46 42 39 32 q 72 56 54 52 q 114 63 90 60 q 161 69 138 66 l 161 589 l 57 597 q 35 610 43 600 q 26 635 26 620 q 39 659 26 650 q 62 668 51 668 l 66 668 q 82 666 67 668 q 121 663 97 665 q 239 657 185 657 q 359 668 313 657 l 367 668 q 393 657 382 668 q 403 633 403 647 l 401 69 q 449 63 425 66 q 492 56 473 60 q 528 20 528 49 q 516 -6 528 4 q 492 -17 505 -17 m 161 829 q 152 852 161 842 q 130 862 143 862 q 106 852 116 862 q 96 829 96 842 q 106 806 96 815 q 130 796 116 796 q 152 806 143 796 q 161 829 161 815 m 458 829 q 449 852 458 842 q 425 862 439 862 q 402 852 412 862 q 393 829 393 842 q 402 806 393 815 q 425 796 412 796 q 449 806 439 796 q 458 829 458 815 m 233 829 q 225 788 233 807 q 203 755 217 769 q 140 724 172 724 q 89 732 108 724 q 56 755 70 741 q 25 829 25 785 q 56 902 25 871 q 130 932 86 932 q 203 902 172 932 q 233 829 233 871 m 425 724 q 352 755 382 724 q 322 829 322 786 q 352 902 322 871 q 425 932 382 932 q 498 902 469 932 q 529 839 529 871 q 499 755 529 786 q 425 724 469 724 z "},"":{"ha":840,"x_min":57,"x_max":793,"o":"m 547 363 q 546 437 547 410 q 541 488 544 464 q 522 583 534 532 q 419 599 473 599 q 313 586 365 599 q 220 541 260 572 q 127 329 127 470 q 190 134 127 212 q 340 58 251 58 q 498 159 441 58 q 547 363 547 245 m 710 345 l 710 346 q 518 850 710 683 q 471 886 488 876 q 564 711 536 793 q 618 376 618 553 q 505 60 618 170 q 692 254 646 112 q 710 345 706 297 m 669 779 q 782 376 782 591 q 682 95 782 211 q 419 -25 578 -25 q 155 68 253 -25 q 57 329 57 163 q 164 575 57 478 q 419 671 269 671 q 500 663 460 671 q 453 777 484 712 q 318 786 360 780 q 269 794 276 792 q 253 805 262 795 q 244 829 244 815 q 256 853 244 842 q 275 864 268 864 l 283 864 q 293 863 285 864 q 319 859 301 861 q 408 850 359 853 q 326 943 368 909 q 318 950 318 949 q 302 979 302 961 q 314 1005 302 996 q 338 1014 325 1014 l 342 1014 q 485 961 389 1014 q 623 844 558 921 q 728 859 703 853 q 754 864 752 864 l 757 864 q 782 853 772 864 q 793 829 793 842 q 764 793 793 800 q 669 779 708 783 z "},"":{"ha":918,"x_min":18,"x_max":914,"o":"m 322 585 q 229 579 288 579 l 224 579 l 224 69 q 282 69 258 69 q 322 68 307 69 l 322 585 m 231 652 q 358 663 304 652 q 384 651 374 663 q 395 627 395 640 l 395 557 q 612 673 474 673 q 793 503 751 673 q 808 389 808 444 q 805 294 808 334 q 796 214 802 254 q 772 77 787 134 q 826 74 798 75 q 875 71 853 73 q 914 31 914 66 q 902 8 913 17 q 878 -1 891 -1 l 875 -1 q 733 5 810 5 q 589 -9 656 5 q 564 2 574 -9 q 553 26 553 13 q 561 49 553 39 q 590 62 570 59 q 699 75 621 68 q 729 244 721 153 q 737 368 737 335 q 612 603 737 603 q 457 521 523 603 q 395 361 395 444 l 395 359 l 393 61 q 417 59 406 60 q 441 56 429 58 q 463 44 454 54 q 472 20 472 35 q 461 -5 472 6 q 441 -16 450 -16 q 432 -14 433 -16 q 264 -1 310 -1 q 121 -11 174 -1 q 59 -21 69 -21 q 40 -9 50 -21 q 31 15 31 2 q 38 38 31 28 q 64 52 45 48 q 153 64 102 59 l 153 582 q 49 591 62 586 q 27 603 35 593 q 18 628 18 613 q 30 653 18 643 q 49 663 41 663 q 58 662 57 663 q 74 660 59 661 q 113 656 89 659 q 231 652 169 652 m 644 852 q 599 842 623 842 q 559 851 575 842 q 531 874 543 860 q 500 924 516 890 q 474 977 484 958 q 450 1011 464 996 q 373 1042 419 1042 q 302 1015 326 1042 q 310 1016 306 1016 l 319 1016 q 421 950 380 1016 q 455 892 435 929 q 489 837 475 854 q 557 795 522 795 q 644 852 614 795 m 684 1091 q 729 922 729 1019 q 682 783 729 840 q 562 723 632 723 q 413 825 477 723 q 373 893 382 874 q 357 922 364 911 q 321 945 340 945 q 292 936 301 945 q 280 910 283 926 q 279 876 277 895 q 286 839 281 857 q 303 790 296 801 q 314 763 314 775 q 303 740 314 751 q 276 730 292 730 q 248 748 261 730 q 225 789 235 766 q 211 838 216 813 q 203 922 203 878 q 215 1001 203 966 q 248 1061 227 1036 q 364 1114 293 1114 q 535 1014 484 1114 q 559 964 548 988 q 597 913 583 913 q 621 920 612 913 q 637 937 631 926 q 647 977 647 955 q 627 1048 647 1019 q 618 1070 618 1055 q 629 1095 618 1084 q 652 1105 641 1105 q 684 1091 669 1105 z "},"":{"ha":835,"x_min":56,"x_max":781,"o":"m 300 611 q 140 435 178 564 q 126 334 126 391 q 139 233 126 278 q 174 155 152 189 q 290 61 216 92 q 222 338 222 155 q 300 611 222 520 m 645 135 q 661 155 645 135 q 693 228 677 176 q 710 324 710 280 q 703 402 710 368 q 681 468 695 436 q 646 528 667 500 q 601 576 626 555 q 481 621 546 621 q 309 466 349 621 q 294 360 294 409 q 297 278 294 312 q 307 212 300 245 q 325 149 313 179 q 355 95 336 118 q 457 45 395 45 q 567 70 520 45 q 645 135 613 94 m 781 332 q 751 186 781 254 q 673 69 722 118 q 418 -33 568 -33 q 154 67 253 -33 q 56 335 56 167 q 160 600 56 494 q 418 704 263 704 q 680 594 575 704 q 781 332 781 488 m 342 943 l 275 1067 l 203 1067 l 342 943 m 86 1076 q 74 1101 74 1086 q 84 1127 74 1117 q 110 1138 94 1138 l 296 1138 q 328 1120 317 1138 l 500 798 q 505 779 505 791 q 494 757 505 768 q 470 747 484 747 q 445 755 455 747 l 86 1076 z "},"":{"ha":835,"x_min":56,"x_max":781,"o":"m 300 611 q 140 435 178 564 q 126 334 126 391 q 139 233 126 278 q 174 155 152 189 q 290 61 216 92 q 222 338 222 155 q 300 611 222 520 m 645 135 q 661 155 645 135 q 693 228 677 176 q 710 324 710 280 q 703 402 710 368 q 681 468 695 436 q 646 528 667 500 q 601 576 626 555 q 481 621 546 621 q 309 466 349 621 q 294 360 294 409 q 297 278 294 312 q 307 212 300 245 q 325 149 313 179 q 355 95 336 118 q 457 45 395 45 q 567 70 520 45 q 645 135 613 94 m 781 332 q 751 186 781 254 q 673 69 722 118 q 418 -33 568 -33 q 154 67 253 -33 q 56 335 56 167 q 160 600 56 494 q 418 704 263 704 q 680 594 575 704 q 781 332 781 488 m 644 1058 l 572 1058 l 506 933 l 644 1058 m 738 1128 q 764 1118 753 1128 q 774 1092 774 1107 q 761 1066 774 1076 l 403 745 q 378 737 393 737 q 353 748 363 737 q 343 770 343 758 q 347 789 343 781 l 519 1111 q 551 1128 530 1128 l 738 1128 z "},"":{"ha":835,"x_min":56,"x_max":781,"o":"m 300 611 q 140 435 178 564 q 126 334 126 391 q 139 233 126 278 q 174 155 152 189 q 290 61 216 92 q 222 338 222 155 q 300 611 222 520 m 645 135 q 661 155 645 135 q 693 228 677 176 q 710 324 710 280 q 703 402 710 368 q 681 468 695 436 q 646 528 667 500 q 601 576 626 555 q 481 621 546 621 q 309 466 349 621 q 294 360 294 409 q 297 278 294 312 q 307 212 300 245 q 325 149 313 179 q 355 95 336 118 q 457 45 395 45 q 567 70 520 45 q 645 135 613 94 m 781 332 q 751 186 781 254 q 673 69 722 118 q 418 -33 568 -33 q 154 67 253 -33 q 56 335 56 167 q 160 600 56 494 q 418 704 263 704 q 680 594 575 704 q 781 332 781 488 m 574 813 l 399 1024 l 361 968 l 496 813 l 574 813 m 479 742 q 452 755 463 742 l 319 909 l 216 758 q 189 742 205 742 q 161 753 172 742 q 151 778 151 765 q 157 798 151 790 l 366 1103 q 394 1118 376 1118 q 423 1106 413 1118 l 676 800 q 684 777 684 790 q 673 752 684 763 q 648 742 661 742 l 479 742 z "},"":{"ha":835,"x_min":56,"x_max":781,"o":"m 300 611 q 140 435 178 564 q 126 334 126 391 q 139 233 126 278 q 174 155 152 189 q 290 61 216 92 q 222 338 222 155 q 300 611 222 520 m 645 135 q 661 155 645 135 q 693 228 677 176 q 710 324 710 280 q 703 402 710 368 q 681 468 695 436 q 646 528 667 500 q 601 576 626 555 q 481 621 546 621 q 309 466 349 621 q 294 360 294 409 q 297 278 294 312 q 307 212 300 245 q 325 149 313 179 q 355 95 336 118 q 457 45 395 45 q 567 70 520 45 q 645 135 613 94 m 781 332 q 751 186 781 254 q 673 69 722 118 q 418 -33 568 -33 q 154 67 253 -33 q 56 335 56 167 q 160 600 56 494 q 418 704 263 704 q 680 594 575 704 q 781 332 781 488 m 595 863 q 550 853 574 853 q 510 862 526 853 q 482 885 494 871 q 451 935 467 901 q 425 988 435 968 q 401 1022 415 1007 q 324 1053 370 1053 q 254 1025 277 1053 q 261 1027 257 1027 l 271 1027 q 372 961 332 1027 q 406 903 386 940 q 440 848 426 865 q 509 806 473 806 q 595 863 566 806 m 635 1102 q 680 932 680 1029 q 633 793 680 851 q 513 734 583 734 q 364 836 428 734 q 324 904 333 885 q 309 932 315 922 q 272 956 292 956 q 243 946 252 956 q 231 921 234 937 q 231 887 229 905 q 237 850 233 868 q 254 801 248 812 q 265 774 265 786 q 254 751 265 762 q 228 741 243 741 q 199 759 212 741 q 177 800 186 777 q 162 848 168 824 q 154 932 154 888 q 166 1011 154 977 q 199 1072 178 1046 q 315 1124 244 1124 q 486 1025 435 1124 q 511 975 499 999 q 548 924 534 924 q 572 931 563 924 q 588 947 582 937 q 598 988 598 966 q 578 1059 598 1030 q 569 1081 569 1066 q 581 1105 569 1095 q 603 1116 592 1116 q 635 1102 620 1116 z "},"":{"ha":835,"x_min":56,"x_max":781,"o":"m 300 611 q 140 435 178 564 q 126 334 126 391 q 139 233 126 278 q 174 155 152 189 q 290 61 216 92 q 222 338 222 155 q 300 611 222 520 m 645 135 q 661 155 645 135 q 693 228 677 176 q 710 324 710 280 q 703 402 710 368 q 681 468 695 436 q 646 528 667 500 q 601 576 626 555 q 481 621 546 621 q 309 466 349 621 q 294 360 294 409 q 297 278 294 312 q 307 212 300 245 q 325 149 313 179 q 355 95 336 118 q 457 45 395 45 q 567 70 520 45 q 645 135 613 94 m 781 332 q 751 186 781 254 q 673 69 722 118 q 418 -33 568 -33 q 154 67 253 -33 q 56 335 56 167 q 160 600 56 494 q 418 704 263 704 q 680 594 575 704 q 781 332 781 488 m 302 838 q 293 862 302 852 q 270 871 283 871 q 246 862 256 871 q 236 838 236 852 q 246 815 236 825 q 270 806 256 806 q 293 815 283 806 q 302 838 302 825 m 599 838 q 589 862 599 852 q 566 871 579 871 q 543 862 552 871 q 534 838 534 852 q 543 815 534 825 q 566 806 552 806 q 589 815 579 806 q 599 838 599 825 m 374 838 q 366 798 374 817 q 343 764 357 779 q 280 734 313 734 q 229 742 248 734 q 196 764 210 750 q 165 838 165 795 q 196 911 165 881 q 270 942 227 942 q 343 911 313 942 q 374 838 374 881 m 566 734 q 492 764 522 734 q 463 838 463 795 q 492 911 463 880 q 566 942 522 942 q 639 911 610 942 q 669 848 669 880 q 640 765 669 795 q 566 734 610 734 z "},"":{"ha":751,"x_min":52,"x_max":700,"o":"m 660 543 l 665 545 q 690 534 680 545 q 700 509 700 523 q 691 485 700 495 q 669 473 683 475 q 375 453 522 453 q 82 473 229 453 q 60 485 68 475 q 52 509 52 495 q 62 534 52 523 q 87 545 72 545 q 211 529 106 538 q 407 519 315 519 q 660 543 499 519 m 376 253 q 400 263 390 253 q 410 286 410 273 q 400 308 410 298 q 376 318 390 318 q 354 308 363 318 q 345 286 345 298 q 354 263 345 273 q 376 253 363 253 m 481 286 q 473 245 481 264 q 450 212 465 227 q 376 182 420 182 q 302 212 333 182 q 272 286 272 243 q 336 380 272 353 q 376 389 355 389 q 450 359 419 389 q 481 286 481 330 m 376 656 q 400 666 390 656 q 410 688 410 675 q 400 711 410 701 q 376 721 390 721 q 354 711 363 721 q 345 688 345 701 q 354 666 345 675 q 376 656 363 656 m 481 689 q 473 648 481 667 q 450 615 465 629 q 376 585 420 585 q 302 615 333 585 q 272 689 272 646 q 336 783 272 756 q 376 791 355 791 q 450 762 419 791 q 481 689 481 732 z "},"":{"ha":835,"x_min":56,"x_max":781,"o":"m 300 611 q 140 435 178 564 q 126 334 126 391 q 139 233 126 278 q 174 155 152 189 q 290 61 216 92 q 222 338 222 155 q 300 611 222 520 m 267 -5 q 244 -65 250 -48 q 234 -83 244 -77 q 212 -89 223 -89 q 188 -80 200 -89 q 176 -55 176 -71 q 204 25 176 -40 q 56 335 56 123 q 160 600 56 494 q 418 704 263 704 q 555 677 492 704 q 600 746 576 713 q 626 761 608 761 q 654 750 644 761 q 664 725 664 739 l 659 705 l 618 646 q 769 428 735 568 q 781 318 781 382 q 751 186 781 254 q 673 69 722 118 q 418 -33 568 -33 q 267 -5 334 -33 m 330 135 q 461 45 373 45 q 645 135 574 45 q 710 335 710 218 q 635 541 710 452 q 582 589 612 570 q 330 135 434 347 m 301 233 q 517 616 401 427 q 471 621 499 621 q 415 608 443 621 q 366 574 387 595 q 331 525 345 553 q 309 466 317 497 q 294 345 294 409 q 301 233 294 281 z "},"":{"ha":957,"x_min":17,"x_max":932,"o":"m 723 616 l 696 616 q 644 619 675 616 l 627 49 q 726 60 677 57 l 737 618 q 723 616 730 616 m 614 694 q 735 689 650 689 q 896 708 820 689 q 922 697 911 708 q 932 673 932 686 q 924 650 932 660 q 898 636 916 640 q 855 629 879 632 q 808 623 831 626 l 798 61 q 883 58 857 61 q 926 21 926 52 q 915 -6 926 4 q 892 -16 904 -16 l 888 -16 q 597 -29 738 3 l 590 -29 q 565 -19 576 -29 q 554 5 554 -8 l 554 7 l 558 131 q 332 -29 471 -29 q 152 79 212 -29 q 104 285 104 166 q 174 621 104 469 l 52 624 q 27 635 37 625 q 17 659 17 645 q 27 684 17 673 q 53 694 37 694 l 232 690 q 257 679 247 688 q 267 659 267 669 q 261 636 267 647 q 186 397 216 591 q 175 284 175 327 q 182 198 175 241 q 207 121 189 155 q 330 41 247 41 q 476 134 414 41 q 566 389 538 226 l 574 661 q 585 685 574 676 q 610 694 597 694 l 614 694 m 297 905 l 231 1030 l 158 1030 l 297 905 m 41 1038 q 29 1064 29 1048 q 39 1090 29 1080 q 65 1101 50 1101 l 252 1101 q 283 1083 273 1101 l 456 761 q 460 742 460 753 q 450 720 460 730 q 425 709 439 709 q 400 718 410 709 l 41 1038 z "},"":{"ha":957,"x_min":17,"x_max":932,"o":"m 723 616 l 696 616 q 644 619 675 616 l 627 49 q 726 60 677 57 l 737 618 q 723 616 730 616 m 614 694 q 735 689 650 689 q 896 708 820 689 q 922 697 911 708 q 932 673 932 686 q 924 650 932 660 q 898 636 916 640 q 855 629 879 632 q 808 623 831 626 l 798 61 q 883 58 857 61 q 926 21 926 52 q 915 -6 926 4 q 892 -16 904 -16 l 888 -16 q 597 -29 738 3 l 590 -29 q 565 -19 576 -29 q 554 5 554 -8 l 554 7 l 558 131 q 332 -29 471 -29 q 152 79 212 -29 q 104 285 104 166 q 174 621 104 469 l 52 624 q 27 635 37 625 q 17 659 17 645 q 27 684 17 673 q 53 694 37 694 l 232 690 q 257 679 247 688 q 267 659 267 669 q 261 636 267 647 q 186 397 216 591 q 175 284 175 327 q 182 198 175 241 q 207 121 189 155 q 330 41 247 41 q 476 134 414 41 q 566 389 538 226 l 574 661 q 585 685 574 676 q 610 694 597 694 l 614 694 m 680 1010 l 608 1010 l 542 886 l 680 1010 m 774 1081 q 800 1070 789 1081 q 810 1044 810 1060 q 797 1019 810 1029 l 439 698 q 414 690 429 690 q 389 700 399 690 q 379 722 379 711 q 383 741 379 734 l 555 1063 q 587 1081 566 1081 l 774 1081 z "},"":{"ha":957,"x_min":17,"x_max":932,"o":"m 723 616 l 696 616 q 644 619 675 616 l 627 49 q 726 60 677 57 l 737 618 q 723 616 730 616 m 614 694 q 735 689 650 689 q 896 708 820 689 q 922 697 911 708 q 932 673 932 686 q 924 650 932 660 q 898 636 916 640 q 855 629 879 632 q 808 623 831 626 l 798 61 q 883 58 857 61 q 926 21 926 52 q 915 -6 926 4 q 892 -16 904 -16 l 888 -16 q 597 -29 738 3 l 590 -29 q 565 -19 576 -29 q 554 5 554 -8 l 554 7 l 558 131 q 332 -29 471 -29 q 152 79 212 -29 q 104 285 104 166 q 174 621 104 469 l 52 624 q 27 635 37 625 q 17 659 17 645 q 27 684 17 673 q 53 694 37 694 l 232 690 q 257 679 247 688 q 267 659 267 669 q 261 636 267 647 q 186 397 216 591 q 175 284 175 327 q 182 198 175 241 q 207 121 189 155 q 330 41 247 41 q 476 134 414 41 q 566 389 538 226 l 574 661 q 585 685 574 676 q 610 694 597 694 l 614 694 m 629 816 l 454 1027 l 416 971 l 551 816 l 629 816 m 534 745 q 508 758 519 745 l 375 911 l 272 760 q 244 745 261 745 q 217 756 227 745 q 207 780 207 768 q 212 800 207 793 l 422 1106 q 450 1121 431 1121 q 479 1109 469 1121 l 732 803 q 740 779 740 793 q 728 755 740 766 q 704 745 717 745 l 534 745 z "},"":{"ha":957,"x_min":17,"x_max":932,"o":"m 723 616 l 696 616 q 644 619 675 616 l 627 49 q 726 60 677 57 l 737 618 q 723 616 730 616 m 614 694 q 735 689 650 689 q 896 708 820 689 q 922 697 911 708 q 932 673 932 686 q 924 650 932 660 q 898 636 916 640 q 855 629 879 632 q 808 623 831 626 l 798 61 q 883 58 857 61 q 926 21 926 52 q 915 -6 926 4 q 892 -16 904 -16 l 888 -16 q 597 -29 738 3 l 590 -29 q 565 -19 576 -29 q 554 5 554 -8 l 554 7 l 558 131 q 332 -29 471 -29 q 152 79 212 -29 q 104 285 104 166 q 174 621 104 469 l 52 624 q 27 635 37 625 q 17 659 17 645 q 27 684 17 673 q 53 694 37 694 l 232 690 q 257 679 247 688 q 267 659 267 669 q 261 636 267 647 q 186 397 216 591 q 175 284 175 327 q 182 198 175 241 q 207 121 189 155 q 330 41 247 41 q 476 134 414 41 q 566 389 538 226 l 574 661 q 585 685 574 676 q 610 694 597 694 l 614 694 m 359 850 q 350 873 359 863 q 327 883 340 883 q 303 873 313 883 q 293 850 293 863 q 303 827 293 836 q 327 817 313 817 q 350 827 340 817 q 359 850 359 836 m 656 850 q 646 873 656 863 q 623 883 636 883 q 600 873 609 883 q 591 850 591 863 q 600 827 591 836 q 623 817 609 817 q 646 827 636 817 q 656 850 656 836 m 431 850 q 422 809 431 828 q 400 776 414 790 q 337 745 370 745 q 286 753 305 745 q 253 776 267 762 q 222 850 222 806 q 253 923 222 892 q 327 954 283 954 q 400 923 370 954 q 431 850 431 892 m 623 745 q 549 776 579 745 q 519 850 519 807 q 549 923 519 892 q 623 954 579 954 q 696 923 667 954 q 726 860 726 892 q 696 776 726 807 q 623 745 667 745 z "},"":{"ha":839,"x_min":-71,"x_max":843,"o":"m 111 -155 q 97 -120 111 -134 q 61 -106 82 -106 q 25 -120 40 -106 q 11 -155 11 -134 q 25 -191 11 -176 q 61 -205 40 -205 q 97 -191 82 -205 q 111 -155 111 -176 m 686 640 q 659 639 673 639 l 586 639 q 470 189 521 356 q 404 -21 420 22 q 243 -314 330 -225 q 458 -109 374 -267 q 513 18 495 -38 q 545 117 532 74 q 571 208 557 159 q 599 307 585 256 q 626 406 612 357 q 650 499 639 455 q 671 579 661 543 q 686 640 680 616 m 465 720 q 633 710 538 710 q 803 720 728 710 l 807 720 q 833 708 823 720 q 843 684 843 697 q 834 660 843 670 q 811 648 825 650 q 786 645 798 646 q 760 643 773 644 q 746 590 755 624 q 726 511 738 555 q 702 416 715 467 q 674 311 688 364 q 645 204 660 257 q 616 104 630 151 q 563 -54 586 3 q 501 -175 539 -111 q 412 -288 463 -238 q 165 -397 302 -397 q 1 -347 66 -397 q -71 -201 -71 -292 q -37 -87 -71 -134 q 61 -35 1 -35 q 146 -70 111 -35 q 182 -155 182 -105 q 146 -241 182 -205 q 61 -277 112 -277 q 20 -269 41 -277 q 92 -313 54 -313 q 157 -295 130 -313 q 208 -248 184 -277 q 252 -184 232 -220 q 289 -114 273 -149 q 340 9 327 -34 q 359 71 353 52 q 171 420 231 245 q 127 627 132 532 q 1 643 16 627 q -8 667 -8 653 q 3 692 -8 682 q 28 703 14 703 l 32 703 q 120 697 70 697 q 254 704 213 697 q 305 711 296 711 q 325 700 314 711 q 335 675 335 688 q 327 652 335 663 q 297 639 318 642 q 199 628 248 632 q 290 319 202 501 q 386 157 326 244 q 514 643 451 378 q 486 645 500 644 q 457 648 471 646 q 434 660 444 650 q 425 685 425 670 q 437 710 425 700 q 461 720 448 720 l 465 720 m 658 1067 l 586 1067 l 519 943 l 658 1067 m 751 1138 q 777 1127 767 1138 q 787 1101 787 1117 q 774 1076 787 1086 l 416 755 q 392 747 406 747 q 367 757 377 747 q 357 779 357 768 q 361 798 357 791 l 533 1120 q 565 1138 544 1138 l 751 1138 z "},"":{"ha":909,"x_min":-17,"x_max":852,"o":"m 225 -281 l 269 -282 l 271 903 q 182 897 236 897 l 171 897 l 171 -282 l 225 -281 m 723 137 q 738 160 723 137 q 767 242 753 182 q 780 357 781 301 q 767 460 780 414 q 727 541 753 506 q 576 619 671 619 q 431 538 492 619 q 360 386 387 479 q 342 296 342 321 l 342 158 q 352 130 338 151 q 381 93 366 109 q 419 65 397 78 q 536 36 471 36 q 648 63 602 36 q 723 137 694 91 m 74 975 q 85 974 74 975 q 124 971 96 972 q 199 970 153 970 q 306 981 246 970 q 332 969 321 981 q 342 945 342 958 l 342 536 q 502 678 393 642 q 589 690 537 690 q 692 664 641 690 q 777 591 743 637 q 852 364 850 498 q 775 86 852 195 q 536 -36 689 -36 q 377 6 448 -36 q 342 32 356 18 l 342 -288 q 406 -294 377 -291 q 429 -309 421 -296 q 435 -335 436 -321 q 424 -357 434 -349 q 400 -366 414 -366 l 396 -366 q 214 -353 301 -353 q 36 -371 126 -353 l 31 -371 q 5 -360 15 -371 q -5 -336 -5 -350 q 24 -301 -5 -307 q 100 -289 64 -293 l 100 900 q 9 909 18 907 q -8 921 0 911 q -17 945 -17 931 l -17 950 q -4 971 -14 962 q 14 981 6 981 q 23 980 22 981 q 38 978 24 979 q 74 975 52 977 z "},"":{"ha":839,"x_min":-71,"x_max":843,"o":"m 111 -155 q 97 -120 111 -134 q 61 -106 82 -106 q 25 -120 40 -106 q 11 -155 11 -134 q 25 -191 11 -176 q 61 -205 40 -205 q 97 -191 82 -205 q 111 -155 111 -176 m 686 640 q 659 639 673 639 l 586 639 q 470 189 521 356 q 404 -21 420 22 q 243 -314 330 -225 q 458 -109 374 -267 q 513 18 495 -38 q 545 117 532 74 q 571 208 557 159 q 599 307 585 256 q 626 406 612 357 q 650 499 639 455 q 671 579 661 543 q 686 640 680 616 m 465 720 q 633 710 538 710 q 803 720 728 710 l 807 720 q 833 708 823 720 q 843 684 843 697 q 834 660 843 670 q 811 648 825 650 q 786 645 798 646 q 760 643 773 644 q 746 590 755 624 q 726 511 738 555 q 702 416 715 467 q 674 311 688 364 q 645 204 660 257 q 616 104 630 151 q 563 -54 586 3 q 501 -175 539 -111 q 412 -288 463 -238 q 165 -397 302 -397 q 1 -347 66 -397 q -71 -201 -71 -292 q -37 -87 -71 -134 q 61 -35 1 -35 q 146 -70 111 -35 q 182 -155 182 -105 q 146 -241 182 -205 q 61 -277 112 -277 q 20 -269 41 -277 q 92 -313 54 -313 q 157 -295 130 -313 q 208 -248 184 -277 q 252 -184 232 -220 q 289 -114 273 -149 q 340 9 327 -34 q 359 71 353 52 q 171 420 231 245 q 127 627 132 532 q 1 643 16 627 q -8 667 -8 653 q 3 692 -8 682 q 28 703 14 703 l 32 703 q 120 697 70 697 q 254 704 213 697 q 305 711 296 711 q 325 700 314 711 q 335 675 335 688 q 327 652 335 663 q 297 639 318 642 q 199 628 248 632 q 290 319 202 501 q 386 157 326 244 q 514 643 451 378 q 486 645 500 644 q 457 648 471 646 q 434 660 444 650 q 425 685 425 670 q 437 710 425 700 q 461 720 448 720 l 465 720 m 270 882 q 261 905 270 895 q 238 915 252 915 q 214 905 224 915 q 204 882 204 895 q 214 859 204 868 q 238 849 224 849 q 261 859 252 849 q 270 882 270 868 m 567 882 q 557 905 567 895 q 534 915 547 915 q 511 905 520 915 q 502 882 502 895 q 511 859 502 868 q 534 849 520 849 q 557 859 547 849 q 567 882 567 868 m 342 882 q 334 841 342 860 q 311 808 326 822 q 249 777 281 777 q 197 785 216 777 q 164 808 178 793 q 134 882 134 838 q 164 955 134 924 q 238 985 195 985 q 311 955 281 985 q 342 882 342 924 m 534 777 q 460 808 490 777 q 431 882 431 839 q 460 955 431 924 q 534 985 490 985 q 607 955 578 985 q 637 892 637 924 q 608 808 637 839 q 534 777 578 777 z "},"":{"ha":1140,"x_min":-32,"x_max":1178,"o":"m 278 357 q 465 343 399 343 q 679 357 566 343 q 479 770 604 585 q 278 357 354 557 m 838 75 l 895 77 l 916 77 q 936 75 926 77 q 572 918 816 587 l 519 836 q 745 386 659 645 q 838 75 824 138 m 357 -16 q 180 5 287 5 q 4 -16 74 5 q -22 -5 -12 -16 q -32 20 -32 6 q -3 56 -32 48 q 121 74 44 68 q 541 999 210 509 q 565 1014 551 1014 q 597 1002 588 1014 q 1010 72 880 642 q 1147 56 1079 66 q 1170 43 1161 54 q 1178 20 1178 33 q 1166 -5 1178 6 q 1147 -16 1154 -16 q 1106 -9 1138 -16 q 779 0 975 14 q 692 -9 721 -4 q 661 -15 663 -15 q 652 -16 660 -16 q 633 -4 644 -16 q 623 20 623 7 q 631 43 623 33 q 660 57 640 54 q 708 64 680 61 q 765 71 736 67 q 701 289 735 184 q 481 272 581 272 q 253 289 382 272 q 195 77 217 182 q 366 56 281 74 q 386 43 378 54 q 393 19 393 33 q 381 -5 393 5 q 357 -16 370 -16 m 737 1128 l 737 1187 l 402 1187 l 402 1128 l 737 1128 m 808 1091 q 798 1066 808 1077 q 773 1055 788 1055 l 366 1055 q 342 1066 352 1055 q 332 1091 332 1077 l 332 1222 q 342 1248 332 1238 q 366 1258 352 1258 l 773 1258 q 798 1248 788 1258 q 808 1222 808 1238 l 808 1091 z "},"":{"ha":850,"x_min":61,"x_max":875,"o":"m 515 237 q 513 286 513 260 l 488 286 q 269 245 376 286 q 132 98 132 194 q 164 43 132 63 q 233 28 191 28 q 319 46 276 28 q 399 95 362 65 q 515 237 464 149 m 679 69 q 681 151 681 90 q 679 267 681 212 q 668 374 676 322 q 644 471 660 425 q 600 549 627 516 q 428 623 538 623 q 425 622 426 623 q 421 621 423 621 l 424 621 q 566 425 533 562 q 586 282 584 349 q 587 176 587 214 q 582 53 587 115 q 679 69 631 63 m 793 77 l 842 75 q 866 64 857 74 q 875 39 875 54 q 865 14 875 24 q 840 3 855 3 l 838 3 q 814 4 826 4 l 790 4 q 550 -29 666 4 l 541 -31 q 515 -19 525 -31 q 505 5 505 -7 l 505 11 q 509 38 505 12 q 515 111 512 64 q 229 -43 378 -43 q 113 -5 161 -43 q 61 92 61 35 q 83 188 61 149 q 141 255 105 227 q 223 303 177 284 q 316 335 269 323 q 488 357 404 357 l 504 357 q 449 507 504 443 q 307 575 391 575 q 191 511 245 575 q 138 382 138 450 q 126 359 138 368 q 101 350 115 350 q 76 361 87 350 q 65 395 65 372 q 77 454 65 418 q 110 524 88 490 q 164 589 132 558 q 236 643 195 619 q 413 693 323 693 q 556 669 503 693 q 647 605 610 646 q 704 511 683 564 q 736 397 725 457 q 753 158 753 304 l 751 75 l 793 77 m 591 810 l 591 870 l 256 870 l 256 810 l 591 810 m 662 774 q 652 749 662 760 q 627 738 642 738 l 220 738 q 196 749 206 738 q 186 774 186 760 l 186 905 q 196 930 186 920 q 220 941 206 941 l 627 941 q 652 930 642 941 q 662 905 662 920 l 662 774 z "},"":{"ha":1140,"x_min":-32,"x_max":1178,"o":"m 278 357 q 465 343 399 343 q 679 357 566 343 q 479 770 604 585 q 278 357 354 557 m 838 75 l 895 77 l 916 77 q 936 75 926 77 q 572 918 816 587 l 519 836 q 745 386 659 645 q 838 75 824 138 m 357 -16 q 180 5 287 5 q 4 -16 74 5 q -22 -5 -12 -16 q -32 20 -32 6 q -3 56 -32 48 q 121 74 44 68 q 541 999 210 509 q 565 1014 551 1014 q 597 1002 588 1014 q 1010 72 880 642 q 1147 56 1079 66 q 1170 43 1161 54 q 1178 20 1178 33 q 1166 -5 1178 6 q 1147 -16 1154 -16 q 1106 -9 1138 -16 q 779 0 975 14 q 692 -9 721 -4 q 661 -15 663 -15 q 652 -16 660 -16 q 633 -4 644 -16 q 623 20 623 7 q 631 43 623 33 q 660 57 640 54 q 708 64 680 61 q 765 71 736 67 q 701 289 735 184 q 481 272 581 272 q 253 289 382 272 q 195 77 217 182 q 366 56 281 74 q 386 43 378 54 q 393 19 393 33 q 381 -5 393 5 q 357 -16 370 -16 m 648 1303 q 596 1132 640 1201 q 726 1303 703 1168 l 648 1303 m 802 1337 q 728 1141 794 1221 q 545 1055 657 1055 q 385 1141 441 1055 q 338 1320 338 1214 l 338 1341 q 349 1365 339 1355 q 374 1375 359 1375 q 398 1364 389 1375 q 408 1339 408 1354 l 408 1320 q 442 1177 408 1231 q 494 1142 463 1142 q 571 1272 547 1142 q 578 1328 576 1301 q 616 1375 582 1375 l 767 1375 q 792 1364 783 1375 q 802 1339 802 1352 l 802 1337 z "},"":{"ha":850,"x_min":61,"x_max":875,"o":"m 515 237 q 513 286 513 260 l 488 286 q 269 245 376 286 q 132 98 132 194 q 164 43 132 63 q 233 28 191 28 q 319 46 276 28 q 399 95 362 65 q 515 237 464 149 m 679 69 q 681 151 681 90 q 679 267 681 212 q 668 374 676 322 q 644 471 660 425 q 600 549 627 516 q 428 623 538 623 q 425 622 426 623 q 421 621 423 621 l 424 621 q 566 425 533 562 q 586 282 584 349 q 587 176 587 214 q 582 53 587 115 q 679 69 631 63 m 793 77 l 842 75 q 866 64 857 74 q 875 39 875 54 q 865 14 875 24 q 840 3 855 3 l 838 3 q 814 4 826 4 l 790 4 q 550 -29 666 4 l 541 -31 q 515 -19 525 -31 q 505 5 505 -7 l 505 11 q 509 38 505 12 q 515 111 512 64 q 229 -43 378 -43 q 113 -5 161 -43 q 61 92 61 35 q 83 188 61 149 q 141 255 105 227 q 223 303 177 284 q 316 335 269 323 q 488 357 404 357 l 504 357 q 449 507 504 443 q 307 575 391 575 q 191 511 245 575 q 138 382 138 450 q 126 359 138 368 q 101 350 115 350 q 76 361 87 350 q 65 395 65 372 q 77 454 65 418 q 110 524 88 490 q 164 589 132 558 q 236 643 195 619 q 413 693 323 693 q 556 669 503 693 q 647 605 610 646 q 704 511 683 564 q 736 397 725 457 q 753 158 753 304 l 751 75 l 793 77 m 503 984 q 452 813 495 882 q 582 984 558 850 l 503 984 m 657 1019 q 584 822 650 902 q 400 736 513 736 q 241 822 297 736 q 193 1001 193 895 l 193 1023 q 205 1046 195 1036 q 230 1057 215 1057 q 254 1046 244 1057 q 264 1020 264 1035 l 264 1001 q 298 858 264 912 q 350 823 319 823 q 427 953 403 823 q 434 1009 432 982 q 471 1057 437 1057 l 623 1057 q 648 1045 638 1057 q 657 1020 657 1034 l 657 1019 z "},"":{"ha":1140,"x_min":-32,"x_max":1178,"o":"m 357 -16 q 180 5 287 5 q 4 -16 74 5 q -22 -5 -12 -16 q -32 20 -32 6 q -3 56 -32 48 q 121 74 44 68 q 541 999 210 509 q 565 1014 551 1014 q 597 1002 588 1014 q 1010 72 880 642 q 1147 56 1079 66 q 1170 43 1161 54 q 1178 20 1178 33 q 1166 -5 1178 6 q 1147 -16 1154 -16 q 1109 -11 1138 -16 q 983 2 1046 1 l 919 3 l 918 3 q 839 -121 839 -47 q 856 -184 839 -158 q 921 -231 886 -231 q 993 -193 956 -231 q 1009 -176 1002 -184 q 1033 -167 1016 -167 q 1059 -178 1049 -167 q 1069 -201 1069 -190 q 1039 -279 1064 -241 q 985 -342 1014 -317 q 851 -393 924 -393 q 720 -332 776 -393 q 667 -200 667 -272 q 781 0 667 -91 q 687 -10 711 -5 q 661 -15 663 -15 q 652 -16 660 -16 q 633 -4 644 -16 q 623 20 623 7 q 631 43 623 33 q 660 57 640 54 q 708 64 680 61 q 765 71 736 67 q 701 289 735 184 q 481 272 581 272 q 253 289 382 272 q 195 77 217 182 q 366 56 281 74 q 386 43 378 54 q 393 19 393 33 q 381 -5 393 5 q 357 -16 370 -16 m 278 357 q 465 343 399 343 q 679 357 566 343 q 479 770 604 585 q 278 357 354 557 m 838 75 l 895 77 l 916 77 q 936 75 926 77 q 572 918 816 587 l 519 836 q 745 386 659 645 q 838 75 824 138 m 766 -117 q 739 -191 739 -159 q 748 -245 739 -224 q 773 -285 758 -267 q 851 -322 807 -322 q 918 -301 884 -322 q 808 -240 853 -297 q 766 -121 766 -186 l 766 -117 z "},"":{"ha":850,"x_min":61,"x_max":875,"o":"m 861 -205 q 831 -283 856 -245 q 777 -346 806 -321 q 643 -397 716 -397 q 513 -336 568 -397 q 458 -195 458 -276 q 542 -31 458 -114 l 541 -31 q 515 -19 525 -31 q 505 5 505 -7 l 505 11 q 509 38 505 12 q 515 111 512 64 q 229 -43 378 -43 q 113 -5 161 -43 q 61 92 61 35 q 83 188 61 149 q 141 255 105 227 q 223 303 177 284 q 316 335 269 323 q 488 357 404 357 l 504 357 q 449 507 504 443 q 307 575 391 575 q 191 511 245 575 q 138 382 138 450 q 126 359 138 368 q 101 350 115 350 q 76 361 87 350 q 65 395 65 372 q 77 454 65 418 q 110 524 88 490 q 164 589 132 558 q 236 643 195 619 q 413 693 323 693 q 556 669 503 693 q 647 605 610 646 q 704 511 683 564 q 736 397 725 457 q 753 158 753 304 l 751 75 l 793 77 l 842 75 q 866 64 857 74 q 875 39 875 54 q 865 14 875 24 q 840 3 855 3 l 838 3 q 814 4 826 4 l 790 4 q 710 -1 710 4 q 631 -125 631 -51 q 647 -188 631 -162 q 713 -235 677 -235 q 785 -197 747 -235 q 801 -180 793 -189 q 824 -171 808 -171 q 851 -182 841 -171 q 861 -205 861 -194 m 515 237 q 513 286 513 260 l 488 286 q 269 245 376 286 q 132 98 132 194 q 164 43 132 63 q 233 28 191 28 q 319 46 276 28 q 399 95 362 65 q 515 237 464 149 m 679 69 q 681 151 681 90 q 679 267 681 212 q 668 374 676 322 q 644 471 660 425 q 600 549 627 516 q 428 623 538 623 q 425 622 426 623 q 424 621 425 621 q 566 425 533 562 q 586 282 584 349 q 587 176 587 214 q 582 53 587 115 q 679 69 631 63 m 558 -121 q 530 -196 530 -164 q 540 -250 530 -228 q 565 -289 549 -271 q 643 -326 599 -326 q 710 -306 677 -326 q 600 -244 645 -302 q 558 -125 558 -191 l 558 -121 z "}}}
